<svg id="Icons" enable-background="new 0 0 512 512" height="512" viewBox="0 0 512 512" width="512" xmlns="http://www.w3.org/2000/svg"><g><circle cx="256" cy="256" fill="#6c53a2" r="256"/><g><g><path d="m434.726 125.555-19.461-29.093c-13.049-19.491-40.652-22.2-57.238-5.614l-40.535 40.535c-4.541-.681-9.189-1.037-13.921-1.037h-95.143c-4.731 0-9.379.356-13.921 1.037l-40.535-40.535c-16.586-16.586-44.189-13.877-57.238 5.614l-19.461 29.093c-9.881 14.757-7.954 34.444 4.606 47.003l34.855 34.856c-.901 5.199-1.375 10.544-1.375 16.001v95.143c0 51.403 41.665 93.068 93.068 93.068h95.143c51.403 0 93.068-41.665 93.068-93.068v-95.143c0-5.457-.474-10.802-1.375-16.001l34.856-34.856c12.562-12.56 14.488-32.246 4.607-47.003z" fill="#ea792e"/><path d="m430.121 172.561-34.854 34.854c.894 5.194 1.373 10.547 1.373 15.996v95.143c0 51.403-41.665 93.068-93.068 93.068h-47.572v-281.28h47.572c4.736 0 9.376.362 13.92 1.043l40.537-40.537c16.581-16.592 44.188-13.878 57.235 5.609l19.465 29.097c9.877 14.76 7.95 34.449-4.608 47.007z" fill="#f39e22"/></g><g><path d="m340.864 323.901v40.513c0 7.802 8.199 12.885 15.187 9.416l14.754-7.325c3.147-1.562 5.306-4.594 5.752-8.079l5.239-40.875c1.012-7.893-6.772-14.004-14.2-11.148l-19.993 7.687c-4.06 1.56-6.739 5.461-6.739 9.811z" fill="#f9c744"/><path d="m171.136 323.901v40.513c0 7.802-8.199 12.885-15.187 9.416l-14.754-7.325c-3.147-1.562-5.306-4.594-5.752-8.079l-5.239-40.875c-1.012-7.893 6.772-14.004 14.2-11.148l19.993 7.687c4.06 1.56 6.739 5.461 6.739 9.811z" fill="#f39e22"/></g><g><g fill="#3e4e60"><path d="m366.157 335.743-13.757 6.273c-6.644 3.03-14.485.1-17.515-6.544l-2.232-4.895c-3.03-6.644-.1-14.485 6.544-17.515l13.757-6.273c6.644-3.03 14.485-.1 17.515 6.544l2.232 4.895c3.029 6.644.099 14.485-6.544 17.515z"/><path d="m396.64 265.683v34.939l-1.415.649c-6.652 3.023-14.495.096-17.518-6.545l-2.235-4.896c-3.033-6.652-.096-14.484 6.545-17.517l13.75-6.268c.288-.128.575-.256.873-.362z"/><path d="m381.632 235.031-13.757 6.273c-6.644 3.03-14.485.1-17.515-6.544l-2.232-4.895c-3.03-6.644-.1-14.485 6.544-17.515l13.757-6.273c6.644-3.03 14.485-.1 17.515 6.544l2.232 4.895c3.03 6.644.1 14.485-6.544 17.515z"/><path d="m322.686 179.012-13.757 6.273c-6.644 3.03-14.485.1-17.515-6.544l-2.232-4.895c-3.03-6.644-.1-14.485 6.544-17.515l13.757-6.273c6.644-3.03 14.485-.1 17.515 6.544l2.232 4.895c3.029 6.643.099 14.485-6.544 17.515z"/></g><g fill="#2e3140"><path d="m145.843 335.743 13.757 6.273c6.644 3.03 14.485.1 17.515-6.544l2.232-4.895c3.03-6.644.1-14.485-6.544-17.515l-13.757-6.273c-6.644-3.03-14.485-.1-17.515 6.544l-2.232 4.895c-3.029 6.644-.1 14.485 6.544 17.515z"/><path d="m115.36 265.683v34.939l1.415.649c6.652 3.023 14.495.096 17.518-6.545l2.235-4.896c3.033-6.652.096-14.484-6.545-17.517l-13.75-6.268c-.288-.128-.575-.256-.873-.362z"/><path d="m130.368 235.031 13.757 6.273c6.644 3.03 14.485.1 17.515-6.544l2.232-4.895c3.03-6.644.1-14.485-6.544-17.515l-13.757-6.273c-6.644-3.03-14.485-.1-17.515 6.544l-2.232 4.895c-3.03 6.644-.1 14.485 6.544 17.515z"/><path d="m189.314 179.012 13.757 6.273c6.644 3.03 14.485.1 17.515-6.544l2.232-4.895c3.03-6.644.1-14.485-6.544-17.515l-13.757-6.273c-6.644-3.03-14.485-.1-17.515 6.544l-2.232 4.895c-3.029 6.643-.1 14.485 6.544 17.515z"/></g></g><g><g><path d="m322.388 336.831v73.901c0 24.265-19.678 43.943-43.943 43.943h-44.89c-24.265 0-43.943-19.678-43.943-43.953v-73.891c0-14.346 6.875-27.085 17.507-35.109 7.184-5.406 11.558-13.75 11.558-22.743v-17.23c0-10.313 8.354-18.678 18.667-18.678h37.313c10.312 0 18.667 8.365 18.667 18.678v17.23c0 8.993 4.374 17.337 11.558 22.743 10.631 8.024 17.506 20.763 17.506 35.109z" fill="#f39e22"/><path d="m322.388 336.831v73.901c0 24.265-19.678 43.943-43.943 43.943h-22.445v-211.604h18.656c10.312 0 18.667 8.365 18.667 18.678v17.23c0 8.993 4.374 17.337 11.558 22.743 10.632 8.024 17.507 20.763 17.507 35.109z" fill="#f9c744"/></g><path d="m324.028 407.381c-1.842-.905-4.075-.143-4.983 1.699-.097.196-9.879 19.652-26.331 19.652-12.971-.301-27.502 1.462-31.717-9.069 8.731-2.085 15.278-10.507 15.15-19.498-.211-3.819 2.831-7.102 6.672-7.089h4.193c2.939 0 5.321-2.383 5.321-5.321s-2.382-5.321-5.321-5.321h-4.193c-9.547 0-17.315 7.767-17.315 17.315.219 4.203-2.635 8.298-6.671 9.486-1.332-1.746-4.336-1.745-5.667.001-3.88-1.228-6.665-5.069-6.665-9.486 0-9.548-7.768-17.315-17.315-17.315h-4.193c-2.939 0-5.321 2.383-5.321 5.321s2.382 5.321 5.321 5.321h4.193c3.679 0 6.672 2.993 6.672 6.672 0 9.46 6.382 17.682 15.139 19.931-4.208 10.504-18.748 8.751-31.71 9.053-16.452 0-26.234-19.456-26.331-19.653-.904-1.843-3.133-2.609-4.979-1.705-1.848.904-2.614 3.135-1.711 4.982.633 1.82 13.762 25.569 35.28 23.828 13.548-.038 27.566.325 34.454-10.028 7.169 10.932 22.917 9.96 36.713 10.025 21.13 0 32.545-22.852 33.021-23.824.902-1.846.138-4.071-1.706-4.977z" fill="#dd5e26"/><g><g><g><path d="m395.081 413.089c-.234-.49-5.8-12.079-21.445-19.55-7.535-3.597-15.953-5.64-25.233-6.13-15.836-.83-34.173 2.863-54.809 11.058-1.905.766-2.842 2.927-2.086 4.842.766 1.905 2.927 2.842 4.842 2.086 20.135-8.003 38.228-11.473 53.425-10.344 7.45.553 14.208 2.214 20.167 4.981 13.473 6.258 18.358 16.134 18.39 16.219.639 1.352 1.979 2.15 3.374 2.15.532 0 1.075-.117 1.586-.351 1.863-.885 2.662-3.098 1.789-4.961z" fill="#ebd9ea"/><path d="m395.081 413.089c.873 1.862.074 4.076-1.788 4.959-.511.234-1.054.351-1.586.351-1.394 0-2.735-.798-3.374-2.15-.032-.085-4.917-9.961-18.39-16.219-5.96-2.767-12.718-4.427-20.167-4.981-.564-2.512-1.032-5.055-1.373-7.641 9.28.49 17.698 2.533 25.233 6.13 15.645 7.472 21.211 19.062 21.445 19.551z" fill="#fff"/></g><g><path d="m412.645 367.438c-.349-.415-8.638-10.244-25.654-13.562-8.195-1.597-16.857-1.469-25.964.379-15.54 3.159-32.369 11.323-50.298 24.42-1.653 1.219-2.019 3.545-.808 5.21 1.219 1.653 3.545 2.019 5.21.808 17.492-12.787 34.141-20.673 49.137-23.384 7.351-1.328 14.31-1.412 20.772-.224 14.611 2.687 21.811 11.027 21.864 11.101.956 1.149 2.454 1.586 3.804 1.237.515-.133 1.011-.382 1.447-.737 1.582-1.32 1.801-3.663.49-5.248z" fill="#ebd9ea"/><path d="m412.645 367.438c1.311 1.585 1.092 3.928-.49 5.249-.436.354-.932.604-1.447.737-1.35.349-2.848-.088-3.804-1.237-.052-.074-7.253-8.414-21.864-11.101-6.463-1.188-13.421-1.104-20.772.224-1.175-2.291-2.264-4.636-3.241-7.055 9.108-1.848 17.769-1.976 25.964-.379 17.016 3.319 25.305 13.147 25.654 13.562z" fill="#fff"/></g></g><g><g><path d="m118.707 418.049c.511.234 1.054.351 1.586.351 1.394 0 2.735-.798 3.374-2.15.032-.085 4.917-9.961 18.39-16.219 5.96-2.767 12.718-4.427 20.167-4.981 15.197-1.128 33.29 2.341 53.425 10.344 1.916.756 4.076-.181 4.842-2.086.756-1.916-.181-4.076-2.086-4.842-20.636-8.195-38.973-11.888-54.809-11.058-9.28.49-17.698 2.533-25.233 6.13-15.644 7.471-21.21 19.061-21.445 19.55-.872 1.864-.073 4.077 1.789 4.961z" fill="#ebd9ea"/><path d="m116.919 413.089c-.873 1.862-.074 4.076 1.788 4.959.511.234 1.054.351 1.586.351 1.394 0 2.735-.798 3.374-2.15.032-.085 4.917-9.961 18.39-16.219 5.96-2.767 12.718-4.427 20.167-4.981.564-2.512 1.032-5.055 1.373-7.641-9.28.49-17.698 2.533-25.233 6.13-15.645 7.472-21.211 19.062-21.445 19.551z" fill="#fff"/></g><g><path d="m99.845 372.687c.436.354.932.604 1.447.737 1.35.349 2.848-.088 3.804-1.237.052-.074 7.253-8.414 21.864-11.101 6.463-1.188 13.421-1.104 20.772.224 14.996 2.711 31.645 10.597 49.137 23.384 1.666 1.211 3.992.845 5.21-.808 1.211-1.666.845-3.992-.808-5.21-17.929-13.098-34.758-21.262-50.298-24.42-9.108-1.848-17.769-1.976-25.964-.379-17.016 3.319-25.305 13.147-25.654 13.562-1.311 1.584-1.092 3.927.49 5.248z" fill="#ebd9ea"/><path d="m99.355 367.438c-1.311 1.585-1.092 3.928.49 5.249.436.354.932.604 1.447.737 1.35.349 2.848-.088 3.804-1.237.052-.074 7.253-8.414 21.864-11.101 6.463-1.188 13.421-1.104 20.772.224 1.175-2.291 2.264-4.636 3.241-7.055-9.108-1.848-17.769-1.976-25.964-.379-17.016 3.319-25.305 13.147-25.654 13.562z" fill="#fff"/></g></g></g><g><g><path d="m241.179 396.556c0 7.404 5.255 14.001 12.58 15.075 9.182 1.346 17.066-5.735 17.066-14.658v-.417c0-6.624 5.37-11.993 11.993-11.993h4.193c8.187 0 14.823-6.637 14.823-14.823 0-8.187-6.637-14.823-14.823-14.823h-62.019c-8.187 0-14.823 6.637-14.823 14.823 0 8.187 6.637 14.823 14.823 14.823h4.193c6.625 0 11.995 5.369 11.994 11.993z" fill="#c0405c"/></g><g><path d="m279.975 375.22h-34.947c-5.607 0-10.152-4.545-10.152-10.152 0-5.607 4.545-10.152 10.152-10.152h34.947c5.607 0 10.152 4.545 10.152 10.152 0 5.607-4.546 10.152-10.152 10.152z" fill="#e9465e"/></g></g><g><path d="m287.012 320.783v34.13h-31.012v-65.143c17.124 0 31.012 13.889 31.012 31.013z" fill="#f39e22"/><path d="m224.99 320.783v34.13h31.012v-65.143c-17.123 0-31.012 13.889-31.012 31.013z" fill="#ea792e"/></g></g><g><g><g><path d="m368.885 267.133c-2.558-14.509-31.703-21.498-46.212-18.94s-24.198 16.395-21.639 30.904c2.558 14.509 16.395 24.198 30.904 21.639 14.509-2.558 39.505-19.094 36.947-33.603z" fill="#53b976"/></g><g><path d="m338.509 260.515 4.095 23.225c.48 2.725-.194 5.394-1.66 7.501-4.967 7.241-16.628 4.758-18.107-4.016 0 0-4.095-23.225-4.095-23.225-1.822-13.137 16.92-16.547 19.767-3.485z" fill="#3e4e60"/></g><g><path d="m338.509 260.515 4.095 23.225c.485 2.782-.212 5.515-1.765 7.638-4.633-.166-8.675-3.539-9.512-8.286l-4.095-23.225c-.492-2.788.226-5.519 1.776-7.64 4.622.168 8.664 3.54 9.501 8.288z" fill="#2e3140"/></g><g><path d="m352.531 263.208c-.912-5.174-5.846-8.628-11.02-7.716-12.337 2.67-9.198 20.448 3.304 18.736 5.173-.913 8.628-5.846 7.716-11.02z" fill="#fff"/></g></g><g><g><path d="m143.115 267.133c2.558-14.509 31.703-21.498 46.212-18.94s24.198 16.395 21.639 30.904c-2.558 14.509-16.395 24.198-30.904 21.639s-39.505-19.094-36.947-33.603z" fill="#53b976"/></g><g><path d="m193.257 264-4.095 23.225c-.48 2.725-2.028 5.003-4.125 6.481-7.144 5.105-17.252-1.216-15.641-9.966 0 0 4.095-23.225 4.095-23.225 2.78-12.968 21.558-9.763 19.766 3.485z" fill="#3e4e60"/></g><g><path d="m193.257 264-4.095 23.225c-.496 2.78-2.085 5.11-4.271 6.574-4.297-1.741-6.941-6.292-6.104-11.04l4.095-23.225c.492-2.788 2.1-5.109 4.282-6.572 4.286 1.739 6.931 6.291 6.093 11.038z" fill="#2e3140"/></g><g><path d="m185.814 267.853c.912-5.174 5.846-8.628 11.02-7.716 12.337 2.67 9.198 20.448-3.304 18.736-5.174-.912-8.628-5.846-7.716-11.02z" fill="#fff"/></g></g></g><g><path d="m314.814 193.546h-10.982c-9.143 0-16.555 7.412-16.555 16.555v14.722c0 9.143 7.412 16.555 16.555 16.555h10.982c9.143 0 16.555-7.412 16.555-16.555v-14.722c0-9.143-7.412-16.555-16.555-16.555z" fill="#ea792e"/><path d="m208.168 193.546h-10.982c-9.143 0-16.555 7.412-16.555 16.555v14.722c0 9.143 7.412 16.555 16.555 16.555h10.982c9.143 0 16.555-7.412 16.555-16.555v-14.722c.001-9.143-7.411-16.555-16.555-16.555z" fill="#dd5e26"/></g><g><path d="m279.315 159.156v41.221c0 12.876-10.438 23.314-23.314 23.314v-87.85c12.873 0 23.314 10.441 23.314 23.315z" fill="#f9c744"/><path d="m232.688 159.156v41.221c0 12.876 10.438 23.314 23.314 23.314v-87.85c-12.873 0-23.314 10.441-23.314 23.315z" fill="#f39e22"/></g><g><g><path d="m430.121 172.558-13.922 13.922c-9.422-6.035-18.595-13.373-27.159-21.937-20.032-20.032-33.33-43.354-39.064-65.644l8.052-8.052c16.586-16.586 44.189-13.877 57.238 5.614l19.461 29.093c9.88 14.758 7.954 34.444-4.606 47.004z" fill="#3e4e60"/><path d="m367.031 189.578-30.835-30.835c-4.664-4.664-4.664-12.226 0-16.889l19.396-19.396c10.293-10.293 27.426-8.611 35.522 3.487l12.079 18.052c6.13 9.161 4.931 21.377-2.863 29.172l-16.41 16.41c-4.663 4.663-12.225 4.663-16.889-.001z" fill="#ea792e"/></g><g><path d="m81.879 172.558 13.922 13.922c9.422-6.035 18.595-13.373 27.159-21.937 20.032-20.032 33.33-43.354 39.064-65.644l-8.052-8.052c-16.586-16.586-44.189-13.877-57.238 5.614l-19.461 29.093c-9.88 14.758-7.954 34.444 4.606 47.004z" fill="#2e3140"/><path d="m144.969 189.578 30.835-30.835c4.664-4.664 4.664-12.226 0-16.889l-19.396-19.396c-10.293-10.293-27.426-8.611-35.522 3.487l-12.08 18.052c-6.13 9.161-4.931 21.377 2.863 29.172l16.41 16.41c4.664 4.663 12.226 4.663 16.89-.001z" fill="#dd5e26"/></g></g></g></g></svg>