<svg id="Icons" enable-background="new 0 0 512 512" height="512" viewBox="0 0 512 512" width="512" xmlns="http://www.w3.org/2000/svg"><g><circle cx="256" cy="256" fill="#6c53a2" r="256"/><g><g><path d="m395.198 293.577v31.253c0 63.641-51.587 115.241-115.229 115.241h-47.932c-63.641 0-115.229-51.599-115.229-115.241v-31.253z" fill="#ea792e"/><path d="m395.198 293.577v31.253c0 33.335-14.148 63.358-36.777 84.402-20.571 19.128-48.145 30.839-78.452 30.839h-2.189c-39.131-24.865-64.315-63.712-64.315-107.374 0-13.592 2.448-26.734 6.991-39.119h174.742z" fill="#f39e22"/><path d="m395.198 293.577v31.253c0 33.335-14.148 63.358-36.777 84.402-34.683-4.069-61.631-34.541-61.631-71.543 0-16.62 5.442-31.927 14.586-44.111h83.822z" fill="#f9c744"/></g><g><path d="m406.637 246.614v13.947c0 29.514-23.931 53.444-53.445 53.444h-194.377c-29.514 0-53.445-23.931-53.445-53.444v-13.947c0-15.106 6.388-29.502 17.578-39.628l58.638-53.078c9.83-8.895 22.617-13.816 35.866-13.816h77.103c13.249 0 26.036 4.921 35.866 13.816l58.638 53.078c11.19 10.126 17.578 24.522 17.578 39.628z" fill="#53b976"/><path d="m406.637 246.614v13.947c0 29.514-23.931 53.444-53.445 53.444h-97.189v-173.913h38.552c13.249 0 26.036 4.921 35.866 13.816l58.638 53.078c11.19 10.126 17.578 24.522 17.578 39.628z" fill="#78c795"/></g><g><g><g><path d="m330.42 153.913 30.35-30.35c5.039-5.039 11.873-7.87 18.999-7.87 14.839 0 26.869 12.03 26.869 26.869v104.049h-34.915c-22.812 0-41.304-18.492-41.304-41.304v-51.394z" fill="#9acdae"/><path d="m342.404 164.017c-4.21-4.21-4.21-11.036 0-15.246l16.583-16.583c4.21-4.21 11.036-4.21 15.246 0 4.21 4.21 4.21 11.036 0 15.246l-16.583 16.583c-4.21 4.21-11.036 4.21-15.246 0z" fill="#fff"/></g><g><path d="m444.538 173.048v35.665c0 10.469-4.246 19.944-11.108 26.805-1.23 1.23-2.543 2.378-3.939 3.431-6.352 4.803-14.278 7.665-22.854 7.665-20.926 0-37.889-16.963-37.889-37.901v-35.665c0-5.749 1.278-11.202 3.572-16.076 6.045-12.894 19.14-21.813 34.317-21.813 20.926 0 37.901 16.963 37.901 37.889z" fill="#f39e22"/><path d="m444.538 173.048v35.665c0 10.469-4.246 19.944-11.108 26.805-1.23 1.23-2.543 2.378-3.939 3.431-30.153-16.585-51.883-46.596-57.171-81.977 6.045-12.894 19.14-21.813 34.317-21.813 20.926 0 37.901 16.963 37.901 37.889z" fill="#f9c744"/><path d="m406.639 145.584c-16.154 0-29.249 13.095-29.249 29.249v32.107c0 16.154 13.095 29.249 29.249 29.249 16.154 0 29.249-13.095 29.249-29.249v-32.107c0-16.154-13.095-29.249-29.249-29.249z" fill="#f4e6f4"/><path d="m435.891 175.071v31.62h-35.358c-6.672 0-12.089-5.406-12.089-12.078v-7.452c0-6.672 5.418-12.089 12.089-12.089h35.358z" fill="#3f5d77"/><path d="m435.891 175.071v31.62h-27.858c-.911-5.134-1.396-10.41-1.396-15.804s.485-10.682 1.396-15.816z" fill="#334353"/><circle cx="426.83" cy="172.741" fill="#fff" r="14.662"/></g></g><g><g><path d="m181.58 153.913-30.35-30.35c-5.039-5.039-11.873-7.87-18.999-7.87-14.839 0-26.869 12.03-26.869 26.869v104.049h34.915c22.812 0 41.304-18.492 41.304-41.304v-51.394z" fill="#78c795"/><path d="m169.596 164.017c4.21-4.21 4.21-11.036 0-15.246l-16.583-16.583c-4.21-4.21-11.036-4.21-15.246 0-4.21 4.21-4.21 11.036 0 15.246l16.583 16.583c4.21 4.21 11.036 4.21 15.246 0z" fill="#fff"/></g><g><path d="m67.462 173.048v35.665c0 10.469 4.247 19.944 11.108 26.805 1.23 1.23 2.543 2.378 3.939 3.431 6.352 4.803 14.278 7.665 22.854 7.665 20.926 0 37.889-16.963 37.889-37.901v-35.665c0-5.749-1.278-11.202-3.572-16.076-6.045-12.894-19.14-21.813-34.317-21.813-20.926 0-37.901 16.963-37.901 37.889z" fill="#ea792e"/><path d="m67.462 173.048v35.665c0 10.469 4.247 19.944 11.108 26.805 1.23 1.23 2.543 2.378 3.939 3.431 30.153-16.585 51.883-46.596 57.171-81.977-6.045-12.894-19.14-21.813-34.317-21.813-20.926 0-37.901 16.963-37.901 37.889z" fill="#f39e22"/><path d="m105.361 145.584c16.154 0 29.249 13.095 29.249 29.249v32.107c0 16.154-13.095 29.249-29.249 29.249-16.154 0-29.249-13.095-29.249-29.249v-32.107c0-16.154 13.095-29.249 29.249-29.249z" fill="#f4e6f4"/><path d="m76.109 175.071v31.62h35.358c6.672 0 12.089-5.406 12.089-12.078v-7.452c0-6.672-5.418-12.089-12.089-12.089h-35.358z" fill="#3f5d77"/><path d="m76.109 175.071v31.62h27.858c.911-5.134 1.396-10.41 1.396-15.804s-.485-10.682-1.396-15.816z" fill="#334353"/><circle cx="85.17" cy="172.741" fill="#fff" r="14.662"/></g></g></g><g><path d="m404.153 296.427c-11.675 16.561-30.721 26.45-50.961 26.45h-194.377c-20.24 0-39.285-9.889-50.961-26.45-2.827-3.998-1.869-9.534 2.141-12.362 3.998-2.827 9.534-1.869 12.362 2.141 8.352 11.853 21.979 18.927 36.458 18.927h194.378c14.479 0 28.106-7.074 36.458-18.927 2.827-4.01 8.363-4.968 12.362-2.141 4.009 2.828 4.967 8.364 2.14 12.362z" fill="#50755c"/><path d="m404.153 296.427c-11.675 16.561-30.721 26.45-50.961 26.45h-97.189v-17.744h97.189c14.479 0 28.106-7.074 36.458-18.927 2.827-4.01 8.363-4.968 12.362-2.141 4.01 2.828 4.968 8.364 2.141 12.362z" fill="#528f66"/></g><g><path d="m256.004 227.049h47.778c4.689 0 8.49 3.801 8.49 8.49 0 4.689-3.801 8.49-8.49 8.49h-9.327c-12.212 0-11.893 38.855-38.451 38.855z" fill="#9acdae"/><path d="m256.004 227.049h-47.778c-4.689 0-8.49 3.801-8.49 8.49 0 4.689 3.801 8.49 8.49 8.49h9.327c12.212 0 11.893 38.855 38.451 38.855z" fill="#78c795"/><path d="m298.542 235.542c0 2.342-.946 4.46-2.484 5.998s-3.667 2.484-6.009 2.484h-68.089c-4.696 0-8.493-3.797-8.493-8.482 0-2.354.946-4.471 2.484-6.009s3.667-2.484 6.009-2.484h68.089c4.695 0 8.493 3.797 8.493 8.493z" fill="#9acdae"/><path d="m298.542 235.542c0 2.342-.946 4.46-2.484 5.998s-3.667 2.484-6.009 2.484h-34.045v-16.975h34.045c4.695 0 8.493 3.797 8.493 8.493z" fill="#fff"/></g></g></g></svg>