<svg id="Icons" enable-background="new 0 0 512 512" height="512" viewBox="0 0 512 512" width="512" xmlns="http://www.w3.org/2000/svg"><g><circle cx="256" cy="256" fill="#6c53a2" r="256"/><g><g><path d="m135.339 107.75c4 11.55 11.74 20.54 20.23 27.37 16.56 13.36 35.95 18.5 35.95 18.5l44.48-42.33c-13.6-31.32-28.73-50.66-42.05-62.25-17.46-15.23-31.82-17.15-35.58-15.37-10.45 4.97-34.861 39.96-23.03 74.08z" fill="#3e4e60"/><path d="m135.339 107.75c4 11.55 11.74 20.54 20.23 27.37 23.85-12 40.37-38.04 40.37-68.23 0-6.15-.69-12.13-1.99-17.85-17.46-15.23-31.82-17.15-35.58-15.37-10.45 4.97-34.861 39.96-23.03 74.08z" fill="#3f5d77"/><path d="m152.439 119.87c14.41 13.22 31.19 23.97 45.58 17.38 2.42-1.1 4.76-2.69 7.02-4.84 14.74-14.02 3.3-49.39-13.48-71.64h-.01c-9.14-12.13-19.87-20.36-28.81-19.1-25.34 3.56-27.12 62.76-10.3 78.2z" fill="#c2aacf"/><path d="m175.732 86.613c-4.876 1.499-9.888 3.379-13.734 5.608-2.272 1.317-2.681 4.45-.821 6.304 3.663 3.651 10.253 9.218 18.392 11.71 3.252.996 3.972 5.251 1.17 7.178-1.387.954-2.781 1.99-4.089 3.083-1.802 1.506-1.936 4.23-.289 5.904 4.114 4.18 12.382 11.13 21.657 10.85 2.42-1.1 4.76-2.69 7.02-4.84 14.74-14.02 3.3-49.39-13.48-71.64h-.01c-14.566-5.255-24.506-6.588-30.104-6.817-2.873-.118-4.911 2.739-3.913 5.435 2.106 5.69 6.594 14.455 15.068 18.232 1.178.524 2.311.992 3.396 1.411 3.549 1.367 3.372 6.464-.263 7.582z" fill="#decee5"/></g><g><path d="m376.75 107.75c-4 11.55-11.74 20.54-20.23 27.37-16.56 13.36-35.95 18.5-35.95 18.5l-44.48-42.33c13.6-31.32 28.73-50.66 42.05-62.25 17.46-15.23 31.82-17.15 35.58-15.37 10.45 4.97 34.86 39.96 23.03 74.08z" fill="#3f5d77"/><path d="m376.75 107.75c-4 11.55-11.74 20.54-20.23 27.37-23.85-12-40.37-38.04-40.37-68.23 0-6.15.69-12.13 1.99-17.85 17.46-15.23 31.82-17.15 35.58-15.37 10.45 4.97 34.86 39.96 23.03 74.08z" fill="#3f6c8e"/><path d="m359.65 119.87c-14.41 13.22-31.19 23.97-45.58 17.38-2.42-1.1-4.76-2.69-7.02-4.84-14.74-14.02-3.3-49.39 13.48-71.64h.01c9.14-12.13 19.87-20.36 28.81-19.1 25.34 3.56 27.12 62.76 10.3 78.2z" fill="#f4e6f4"/><path d="m336.357 86.613c4.876 1.499 9.888 3.379 13.734 5.608 2.272 1.317 2.681 4.45.821 6.304-3.663 3.651-10.253 9.218-18.392 11.71-3.252.996-3.972 5.251-1.17 7.178 1.387.954 2.781 1.99 4.089 3.083 1.802 1.506 1.936 4.23.289 5.904-4.114 4.18-12.382 11.13-21.657 10.85-2.42-1.1-4.76-2.69-7.02-4.84-14.74-14.02-3.3-49.39 13.48-71.64h.01c14.566-5.255 24.506-6.588 30.104-6.817 2.873-.118 4.911 2.739 3.913 5.435-2.106 5.69-6.594 14.455-15.068 18.232-1.178.524-2.311.992-3.396 1.411-3.55 1.367-3.373 6.464.263 7.582z" fill="#fff"/></g><g><g><path d="m340.76 278.433v42.531c0 19.38-7.927 38.191-22.473 53.319l-37.487 38.989h-49.203l-37.487-38.989c-14.546-15.128-22.473-33.939-22.473-53.319v-42.531c0-38.689 37.511-70.084 83.908-70.364.216-.01.432-.01.648-.01 23.36 0 44.491 7.874 59.804 20.607 15.301 12.744 24.763 30.327 24.763 49.767z" fill="#c2aacf"/><path d="m340.76 278.433v42.531c0 19.38-7.927 38.191-22.473 53.319l-37.487 38.989h-25.255v-205.203c.216-.01.432-.01.648-.01 23.36 0 44.491 7.874 59.804 20.607 15.301 12.744 24.763 30.327 24.763 49.767z" fill="#decee5"/></g><g><path d="m331.54 231.63-4.23 5.97c-11.66 16.47-19.47 34.63-22.99 53.52l-9.11 48.74-6.28 33.58c-2.29 12.26-.1 24.81 6.31 36.02l6.23 10.91c4.63 8.1 6.62 17.07 5.78 26.02l-2.61 27.57c-.89 9.47-10.38 16.77-21.8 16.77h-53.33c-11.4 0-20.9-7.3-21.8-16.76l-2.66-27.95c-.84-8.71 1.03-17.46 5.4-25.4l7.12-12.92c6.06-11 8.1-23.26 5.86-35.23l-5.96-31.9-9.52-50.94c-3.53-18.85-11.31-36.98-22.93-53.43l-4.17-5.9c-8.58-12.11-10.3-26.75-4.73-40.02l24.32-57.9c5.31-12.63 19.63-21.09 35.7-21.09h39.95c16.14 0 30.49 8.53 35.75 21.23l24.52 59.27c5.47 13.23 3.7 27.79-4.82 39.84z" fill="#decee5"/><path d="m331.539 231.63-4.233 5.968c-11.656 16.476-19.463 34.628-22.989 53.519l-15.386 82.329c-2.291 12.254-.096 24.808 6.308 36.015l6.236 10.907c4.629 8.103 6.62 17.075 5.78 26.026l-2.614 27.563c-.887 9.47-10.385 16.775-21.801 16.775h-26.634v-379.44h19.883c16.142 0 30.496 8.532 35.748 21.226l24.524 59.277c5.466 13.221 3.704 27.78-4.822 39.835z" fill="#f4e6f4"/></g><g><path d="m307.25 446.39-2.61 27.57c-.89 9.47-10.38 16.77-21.8 16.77h-53.33c-11.4 0-20.9-7.3-21.8-16.76l-2.66-27.95c-.84-8.71 1.03-17.46 5.4-25.4l7.12-12.92c6.06-11 8.1-23.26 5.86-35.23l-5.96-31.9c11.72 5.11 24.58 7.93 38.07 7.93 14.11 0 27.53-3.08 39.67-8.64l-6.28 33.58c-2.29 12.26-.1 24.81 6.31 36.02l6.23 10.91c4.63 8.1 6.62 17.07 5.78 26.02z" fill="#3e4e60"/><path d="m307.25 446.39-2.61 27.57c-.89 9.47-10.38 16.77-21.8 16.77h-27.3v-142.23c14.11 0 27.53-3.08 39.67-8.64l-6.28 33.58c-2.29 12.26-.1 24.81 6.31 36.02l6.23 10.91c4.63 8.1 6.62 17.07 5.78 26.02z" fill="#3f5d77"/></g><g><path d="m256.19 348.49v29.76c-4.75 0-9.12-1.47-12.45-3.93-3.32-2.46-5.61-5.9-6.18-9.82l-2.64-18.25c6.65 1.48 13.55 2.25 20.62 2.25.22 0 .43 0 .65-.01z" fill="#3f5d77"/><path d="m277.52 345.93-2.68 18.57c-.57 3.92-2.86 7.36-6.18 9.82-3.34 2.46-7.71 3.93-12.46 3.93v-29.76c7.33-.04 14.46-.92 21.32-2.56z" fill="#3f6c8e"/><path d="m234.919 346.244c6.652 1.474 13.549 2.256 20.621 2.256.217 0 .433-.007.65-.009v-78.171h-11.07c-11.26 0-19.98 8.18-18.64 17.48z" fill="#f4e6f4"/><path d="m277.519 345.935.001-.005 8.39-58.13c1.35-9.3-7.38-17.48-18.63-17.48h-11.08v78.171c7.323-.05 14.457-.931 21.319-2.556z" fill="#fff"/></g><g><path d="m278.18 71.16-5.91 43.38c-.66 4.8-4.76 8.39-9.61 8.39h-14.23c-4.85 0-8.95-3.59-9.61-8.39l-5.91-43.38c-1.56-11.43 7.33-21.62 18.87-21.62h7.53c11.54 0 20.43 10.19 18.87 21.62z" fill="#3e4e60"/><path d="m278.18 71.16-5.91 43.38c-.66 4.8-4.76 8.39-9.61 8.39h-7.12v-73.39h3.77c11.54 0 20.43 10.19 18.87 21.62z" fill="#3f5d77"/></g><g><path d="m256.204 130.702h10.445c11.638 0 22.024 7.307 25.955 18.261l12.503 34.842c3.899 10.866-1.799 22.789-12.673 26.662-9.467 3.372-21.946 6.401-36.229 6.401v-86.166z" fill="#fff"/><path d="m256.204 130.702h-10.444c-11.638 0-22.024 7.307-25.955 18.261l-12.503 34.842c-3.899 10.866 1.799 22.789 12.673 26.662 9.467 3.372 21.946 6.401 36.229 6.401z" fill="#f4e6f4"/></g><g><g><path d="m332.959 227.2c7.402 4.274 9.977 13.686 5.809 21.121-.026.068-.062.131-.098.193l-5.428 9.401c-2.152 3.727-5.615 6.239-9.474 7.273-3.865 1.044-8.11.607-11.847-1.551-6.944-4.009-9.646-12.551-6.518-19.726.232-.546.501-1.085.802-1.605l5.428-9.401c2.158-3.737 5.625-6.233 9.484-7.267 3.86-1.034 8.105-.596 11.842 1.562z" fill="#3e4e60"/><path d="m332.959 227.2c7.402 4.274 9.977 13.686 5.809 21.121-8.344 4.427-19.205 4.389-28.564-1.014-1.739-1.004-3.345-2.14-4.799-3.396.232-.546.501-1.085.802-1.605l5.428-9.401c2.158-3.737 5.625-6.233 9.484-7.267 3.858-1.034 8.103-.596 11.84 1.562z" fill="#2e3140"/><path d="m319.403 233.537-3.266 5.656c-1.406 2.436-.572 5.55 1.864 6.956 2.436 1.406 5.55.572 6.956-1.864l3.266-5.656c1.406-2.436.572-5.55-1.864-6.956-2.435-1.406-5.549-.571-6.956 1.864z" fill="#fff"/></g><g><path d="m178.13 227.2c-7.402 4.274-9.977 13.686-5.809 21.121.026.068.062.131.098.193l5.428 9.401c2.152 3.727 5.615 6.239 9.474 7.273 3.865 1.044 8.11.607 11.847-1.551 6.944-4.009 9.646-12.551 6.518-19.726-.232-.546-.501-1.085-.802-1.605l-5.428-9.401c-2.158-3.737-5.625-6.233-9.484-7.267-3.86-1.034-8.104-.596-11.842 1.562z" fill="#3e4e60"/><path d="m178.13 227.2c-7.402 4.274-9.977 13.686-5.809 21.121 8.344 4.427 19.205 4.389 28.564-1.014 1.739-1.004 3.345-2.14 4.8-3.396-.232-.546-.501-1.085-.802-1.605l-5.428-9.401c-2.158-3.737-5.625-6.233-9.484-7.267s-8.103-.596-11.841 1.562z" fill="#2e3140"/><path d="m191.686 233.537 3.266 5.656c1.406 2.436.572 5.55-1.864 6.956-2.436 1.406-5.55.572-6.956-1.864l-3.266-5.656c-1.406-2.436-.572-5.55 1.864-6.956 2.436-1.406 5.55-.571 6.956 1.864z" fill="#fff"/></g></g><g><g><path d="m244.98 459.835c0 5.578-5.121 10.338-11.92 10.827-7.183.519-13.515-3.902-14.139-9.879l-1.031-9.84-1.247-11.805c-.636-5.978 4.689-11.247 11.872-11.775 7.183-.519 13.515 3.902 14.139 9.879l.827 7.854 1.451 13.791c.036.319.048.639.048.948z" fill="#151516"/><path d="m244.98 459.835c0 5.578-5.121 10.338-11.92 10.827-7.183.519-13.515-3.902-14.139-9.879l-1.031-9.84c8.035-2.874 16.621-4.87 25.591-5.848l1.451 13.791c.036.32.048.64.048.949z" fill="#2e3140"/></g><g><path d="m295.394 439.138-1.223 11.676-1.055 9.969c-.6 5.658-6.308 9.919-13.011 9.919-.372 0-.755-.01-1.139-.04-7.183-.519-12.496-5.798-11.872-11.775l1.451-13.831.827-7.814c.636-5.978 6.967-10.398 14.151-9.879 7.183.529 12.495 5.798 11.871 11.775z" fill="#2e3140"/><path d="m294.171 450.814-1.055 9.969c-.6 5.658-6.308 9.919-13.011 9.919-.372 0-.755-.01-1.139-.04-7.183-.519-12.496-5.798-11.872-11.775l1.451-13.831c8.981.948 17.58 2.914 25.626 5.758z" fill="#334353"/></g></g></g><path d="m326.57 215.3c.19 1.92-1.22 3.63-3.14 3.83-.12.01-.23.01-.35.01-1.78 0-3.3-1.34-3.48-3.15-1.67-16.77-9.14-17.89-17.78-19.18-5.37-.81-10.93-1.64-14.75-6.3-4.99-6.08-6.92-13.26-8.63-19.59-3.15-11.68-5.23-19.4-22.24-19.4-.05 0-.1-.02-.15-.02s-.1.02-.16.02h-.35c-16.69.11-18.76 7.8-21.88 19.4-1.71 6.33-3.64 13.51-8.63 19.59-3.82 4.66-9.38 5.49-14.75 6.3-8.65 1.29-16.11 2.41-17.78 19.18-.18 1.81-1.71 3.15-3.48 3.15-.12 0-.23 0-.35-.01-1.93-.2-3.33-1.91-3.14-3.83 2.22-22.2 14.64-24.06 23.71-25.42 4.43-.66 8.26-1.23 10.38-3.81 4.03-4.92 5.68-11.04 7.28-16.97 3.08-11.46 6.58-24.44 28.64-24.58h.35c.06 0 .11.01.16.01s.1-.01.15-.01c22.38 0 25.9 13.06 29 24.58 1.6 5.93 3.25 12.05 7.28 16.97 2.11 2.58 5.94 3.15 10.38 3.81 9.07 1.36 21.49 3.22 23.71 25.42zm-19.09 8.86c-3.19-11.44-9.62-12.53-15.28-13.49-2.45-.41-4.98-.84-7.52-2.1-7.99-3.97-9.02-4.48-25.32-38.63-.62-1.3-1.94-2.04-3.3-1.98h-.01c-.01 0-.01 0-.01 0-.17-.01-.34 0-.5.02-1.18.11-2.25.82-2.8 1.96-16.31 34.15-17.33 34.66-25.32 38.63-2.54 1.26-5.07 1.69-7.52 2.1-5.67.96-12.09 2.05-15.29 13.49-.52 1.86.57 3.79 2.43 4.31.32.09.63.13.95.13 1.53 0 2.93-1.01 3.37-2.55 2-7.17 4.58-7.61 9.71-8.48 2.81-.47 6-1.01 9.47-2.74 9.32-4.62 11.44-6.45 25-34.55.17-.35.34-.7.51-1.05 14.02 29.11 16.08 30.92 25.51 35.6 3.47 1.73 6.66 2.27 9.47 2.74 5.13.87 7.71 1.31 9.71 8.48.43 1.54 1.84 2.55 3.37 2.55.31 0 .63-.04.94-.13 1.87-.52 2.95-2.45 2.43-4.31zm-23.51 10.78c-4.87-3.06-10.4-6.53-15.45-14.88-1-1.66-3.15-2.19-4.8-1.19-1.66 1-2.19 3.15-1.19 4.81 5.91 9.77 12.73 14.06 17.72 17.19 5.72 3.6 8.09 5.08 7.34 11.76-.58 5.2-1 9.97-1.41 14.58-1.38 15.77-2.38 27.15-8.12 33.27-9.38 9.98-12.98 17.2-14.51 37.85-.14 1.93 1.31 3.6 3.23 3.75.09 0 .18.01.27.01 1.81 0 3.35-1.4 3.48-3.24 1.47-19.79 4.98-25.43 12.63-33.58 7.4-7.88 8.49-20.28 10-37.44.4-4.58.82-9.31 1.39-14.42 1.24-11.05-4.5-14.65-10.58-18.47zm-16.02 7.95c-1.4-1.34-3.62-1.29-4.95.11-1.34 1.4-1.29 3.61.11 4.95 6.69 6.38 9.44 12.31 7.01 28.69-1.98 13.35-6.1 17.55-6.64 18.05l.03-.02 4.03 5.73c.7-.49 6.93-5.32 9.51-22.74 2.5-16.87.12-25.97-9.1-34.77zm-11.95 9.61c-.16 0-.31.01-.46.03-1.71.23-3.04 1.7-3.04 3.47v29.59c0 1.77 1.33 3.24 3.04 3.47.15.02.3.03.46.03 1.93 0 3.5-1.57 3.5-3.5v-29.59c0-1.93-1.57-3.5-3.5-3.5zm81.43 24.25c-.67-1.81-2.68-2.74-4.5-2.08l-20.72 7.64c-1.81.66-2.74 2.68-2.07 4.49.52 1.41 1.86 2.29 3.28 2.29.41 0 .81-.07 1.21-.22l20.72-7.63c1.82-.67 2.74-2.68 2.08-4.49zm-4.21 24.31-21.98.52c-1.93.05-3.46 1.65-3.42 3.58.05 1.91 1.61 3.42 3.5 3.42h.09l21.97-.52c1.94-.05 3.47-1.65 3.42-3.59-.04-1.93-1.67-3.42-3.58-3.41zm-.97 26.72-24.61-6.65c-1.87-.5-3.79.6-4.29 2.47-.51 1.87.6 3.79 2.46 4.29l24.62 6.65c.31.08.61.12.91.12 1.55 0 2.96-1.03 3.38-2.59.5-1.87-.6-3.79-2.47-4.29zm-10.05 25.84-18.2-10.71c-1.67-.98-3.81-.42-4.79 1.25-.98 1.66-.43 3.81 1.24 4.79l18.2 10.7c.56.33 1.17.49 1.77.49 1.2 0 2.37-.62 3.02-1.73.98-1.67.42-3.81-1.24-4.79zm7.14-168.96c-.13-.55-3.37-13.38-21.16-14.37-6.66-.37-8.31-5.84-10.46-14.73-1.27-5.27-2.59-10.73-6.01-14.27-8.56-8.86-15.2-10.89-35.51-10.89-.05 0-.1.01-.15.01s-.1-.01-.16-.01h-.35c-20.04.02-26.64 2.08-35.15 10.89-3.42 3.54-4.74 9-6.01 14.27-2.15 8.89-3.8 14.36-10.47 14.73-17.79.99-21.03 13.82-21.16 14.37-.44 1.88.72 3.76 2.6 4.21.27.06.54.09.81.09 1.59 0 3.02-1.08 3.4-2.69.02-.08 2.11-8.29 14.74-8.99 12.2-.68 14.8-11.43 16.88-20.08 1.06-4.36 2.15-8.87 4.24-11.04 6.23-6.45 10.22-8.73 30.12-8.76h.35c.06 0 .11-.01.16-.02.05.01.1.02.15.02 20.21 0 24.21 2.27 30.48 8.76 2.09 2.17 3.18 6.68 4.24 11.04 2.08 8.65 4.68 19.4 16.88 20.08 12.39.69 14.65 8.69 14.73 8.99.38 1.61 1.82 2.69 3.41 2.69.26 0 .53-.03.81-.09 1.88-.45 3.04-2.33 2.59-4.21zm-103.426 82.56c-.406-4.617-.826-9.391-1.409-14.587-.75-6.68 1.619-8.167 7.343-11.762 4.985-3.13 11.813-7.418 17.719-17.194.999-1.654.468-3.806-1.187-4.805-1.653-.999-3.805-.47-4.806 1.186-5.045 8.352-10.572 11.823-15.449 14.885-6.077 3.816-11.816 7.42-10.577 18.47.574 5.113.99 9.844 1.393 14.42 1.51 17.159 2.6 29.556 9.998 37.436 7.653 8.149 11.16 13.789 12.626 33.576.136 1.839 1.671 3.241 3.486 3.241.087 0 .175-.003.263-.01 1.928-.143 3.374-1.821 3.231-3.749-1.529-20.649-5.13-27.868-14.503-37.85-5.741-6.114-6.742-17.499-8.128-33.257zm18.238-24.334c-9.219 8.806-11.601 17.907-9.102 34.778 2.58 17.413 8.805 22.242 9.506 22.736l4.027-5.726.095.07c-.046-.037-4.594-3.867-6.704-18.106-2.426-16.383.328-22.305 7.014-28.691 1.397-1.335 1.448-3.551.113-4.948-1.335-1.396-3.548-1.448-4.949-.113zm-67.406 38.357 20.719 7.632c.399.147.808.217 1.21.217 1.424 0 2.763-.876 3.284-2.291.668-1.814-.261-3.826-2.074-4.494l-20.719-7.632c-1.812-.667-3.825.26-4.494 2.074-.668 1.813.261 3.826 2.074 4.494zm23.946 27.337c.028 0 .057.001.085.001 1.894 0 3.452-1.513 3.497-3.417.046-1.933-1.483-3.537-3.416-3.583l-21.979-.523c-1.951-.035-3.536 1.483-3.582 3.416s1.483 3.537 3.416 3.583zm8.061 15.021c-.503-1.866-2.421-2.969-4.291-2.467l-24.618 6.644c-1.866.503-2.971 2.425-2.467 4.291.421 1.561 1.834 2.589 3.377 2.589.302 0 .608-.04.914-.122l24.618-6.644c1.866-.504 2.971-2.425 2.467-4.291zm-.652 19.312-18.199 10.706c-1.666.98-2.223 3.125-1.242 4.791.652 1.109 1.82 1.726 3.02 1.726.604 0 1.215-.156 1.771-.484l18.199-10.706c1.666-.98 2.223-3.125 1.242-4.791-.981-1.667-3.129-2.222-4.791-1.242z" fill="#3e4e60"/><path d="m256.2 130.4c20.31 0 26.95 2.03 35.51 10.89 3.42 3.54 4.74 9 6.01 14.27 2.15 8.89 3.8 14.36 10.46 14.73 17.79.99 21.03 13.82 21.16 14.37.45 1.88-.71 3.76-2.59 4.21-.28.06-.55.09-.81.09-1.59 0-3.03-1.08-3.41-2.69-.08-.3-2.34-8.3-14.73-8.99-12.2-.68-14.8-11.43-16.88-20.08-1.06-4.36-2.15-8.87-4.24-11.04-6.27-6.49-10.27-8.76-30.48-8.76zm0 122.12v36.55c1.835-.106 3.3-1.618 3.3-3.48v-29.59c0-1.861-1.465-3.374-3.3-3.48zm53.94 34.28c.52 1.41 1.86 2.29 3.28 2.29.41 0 .81-.07 1.21-.22l20.72-7.63c1.82-.67 2.74-2.68 2.08-4.49-.67-1.81-2.68-2.74-4.5-2.08l-20.72 7.64c-1.81.66-2.74 2.68-2.07 4.49zm-31.7-115.88c1.71 6.33 3.64 13.51 8.63 19.59 3.82 4.66 9.38 5.49 14.75 6.3 8.64 1.29 16.11 2.41 17.78 19.18.18 1.81 1.7 3.15 3.48 3.15.12 0 .23 0 .35-.01 1.92-.2 3.33-1.91 3.14-3.83-2.22-22.2-14.64-24.06-23.71-25.42-4.44-.66-8.27-1.23-10.38-3.81-4.03-4.92-5.68-11.04-7.28-16.97-3.1-11.52-6.62-24.58-29-24.58v7c17.01 0 19.09 7.72 22.24 19.4zm-1.39 106.74c2.5-16.87.12-25.97-9.1-34.77-1.4-1.34-3.62-1.29-4.95.11-1.34 1.4-1.29 3.61.11 4.95 6.69 6.38 9.44 12.31 7.01 28.69-1.98 13.35-6.1 17.55-6.64 18.05l.03-.02 4.03 5.73c.7-.49 6.93-5.32 9.51-22.74zm45.15 75.96-18.2-10.71c-1.67-.98-3.81-.42-4.79 1.25-.98 1.66-.43 3.81 1.24 4.79l18.2 10.7c.56.33 1.17.49 1.77.49 1.2 0 2.37-.62 3.02-1.73.98-1.67.42-3.81-1.24-4.79zm10.05-25.84-24.61-6.65c-1.87-.5-3.79.6-4.29 2.47-.51 1.87.6 3.79 2.46 4.29l24.62 6.65c.31.08.61.12.91.12 1.55 0 2.96-1.03 3.38-2.59.5-1.87-.6-3.79-2.47-4.29zm.97-26.72-21.98.52c-1.93.05-3.46 1.65-3.42 3.58.05 1.91 1.61 3.42 3.5 3.42h.09l21.97-.52c1.94-.05 3.47-1.65 3.42-3.59-.04-1.93-1.67-3.42-3.58-3.41zm-29.11-72.46c.31 0 .63-.04.94-.13 1.87-.52 2.95-2.45 2.43-4.31-3.19-11.44-9.62-12.53-15.28-13.49-2.45-.41-4.98-.84-7.52-2.1-7.99-3.97-9.02-4.48-25.32-38.63-.599-1.255-1.85-1.981-3.16-1.976v11.576c13.882 28.805 15.964 30.627 25.36 35.29 3.47 1.73 6.66 2.27 9.47 2.74 5.13.87 7.71 1.31 9.71 8.48.43 1.54 1.84 2.55 3.37 2.55zm-20.14 6.34c-4.87-3.06-10.4-6.53-15.45-14.88-1-1.66-3.15-2.19-4.8-1.19-1.66 1-2.19 3.15-1.19 4.81 5.91 9.77 12.73 14.06 17.72 17.19 5.72 3.6 8.09 5.08 7.34 11.76-.58 5.2-1 9.97-1.41 14.58-1.38 15.77-2.38 27.15-8.12 33.27-9.38 9.98-12.98 17.2-14.51 37.85-.14 1.93 1.31 3.6 3.23 3.75.09 0 .18.01.27.01 1.81 0 3.35-1.4 3.48-3.24 1.47-19.79 4.98-25.43 12.63-33.58 7.4-7.88 8.49-20.28 10-37.44.4-4.58.82-9.31 1.39-14.42 1.24-11.05-4.5-14.65-10.58-18.47z" fill="#3f5d77"/></g></g></svg>