<svg id="Icons" enable-background="new 0 0 512 512" height="512" viewBox="0 0 512 512" width="512" xmlns="http://www.w3.org/2000/svg"><g><circle cx="256" cy="256" fill="#6c53a2" r="256"/><g><g><g><g><path d="m50.419 167.66v55.9c0 27.51 22.31 49.81 49.82 49.81h24.36c27.51 0 49.81-22.3 49.81-49.81v-55.9c0-27.51-22.3-49.81-49.81-49.81h-24.36c-27.51 0-49.82 22.3-49.82 49.81z" fill="#9175a7"/><path d="m100.239 248.82v24.55h24.36c27.51 0 49.81-22.3 49.81-49.81v-26.68h-22.24c-28.68 0-51.93 23.25-51.93 51.94z" fill="#746087"/><path d="m135.57 140.498h-46.313c-12.931 0-23.413 10.482-23.413 23.413 0 12.931 10.482 23.413 23.413 23.413h46.312c12.931 0 23.413-10.482 23.413-23.413.001-12.93-10.482-23.413-23.412-23.413z" fill="#a583bb"/></g><g><path d="m461.581 167.66v55.9c0 27.51-22.31 49.81-49.82 49.81h-24.36c-27.51 0-49.81-22.3-49.81-49.81v-55.9c0-27.51 22.3-49.81 49.81-49.81h24.36c27.51 0 49.82 22.3 49.82 49.81z" fill="#a583bb"/><path d="m411.761 248.82v24.55h-24.36c-27.51 0-49.81-22.3-49.81-49.81v-26.68h22.24c28.68 0 51.93 23.25 51.93 51.94z" fill="#9175a7"/><path d="m422.743 140.498h-46.313c-12.931 0-23.413 10.482-23.413 23.413 0 12.931 10.482 23.413 23.413 23.413h46.312c12.931 0 23.413-10.482 23.413-23.413 0-12.93-10.482-23.413-23.412-23.413z" fill="#c2aacf"/></g></g><g><path d="m371.04 251.89v81.61c0 48.31-39.16 87.47-87.47 87.47h-55.14c-48.31 0-87.47-39.16-87.47-87.47v-81.61c0-33.69 27.31-61 61-61h108.08c33.69 0 61 27.31 61 61z" fill="#9175a7"/><path d="m371.04 251.89v81.61c0 48.31-39.16 87.47-87.47 87.47h-27.57v-230.08h54.04c33.69 0 61 27.31 61 61z" fill="#a583bb"/></g><g><path d="m327.431 268.391h-71.431v-67.73h34.088c29.015 0 52.536 23.521 52.536 52.536 0 8.392-6.802 15.194-15.193 15.194z" fill="#c2aacf"/><path d="m184.569 268.391h71.431v-67.73h-34.088c-29.015 0-52.536 23.521-52.536 52.536 0 8.392 6.802 15.194 15.193 15.194z" fill="#a583bb"/></g></g><g><g><path d="m324.974 313.161c-8.144 8.144-21.371 8.144-29.515 0-8.154-8.154-8.144-21.371 0-29.515 2.208-2.208 4.786-3.82 7.538-4.827 7.405-2.721 16.031-1.119 21.977 4.827 5.936 5.936 7.548 14.573 4.827 21.977-1.006 2.752-2.619 5.33-4.827 7.538z" fill="#c2aacf"/><ellipse cx="316.399" cy="292.221" fill="#ebd9ea" rx="12.127" ry="18.953" transform="matrix(.707 -.707 .707 .707 -113.96 309.317)"/><path d="m323.404 298.403c0 5.679-3.602 10.53-8.642 12.389-1.423.508-2.948.799-4.546.799-7.291 0-13.187-5.911-13.187-13.188 0-7.291 5.897-13.187 13.187-13.187 1.598 0 3.123.29 4.546.799 5.04 1.859 8.642 6.695 8.642 12.388z" fill="#3f5d77"/><ellipse cx="314.762" cy="298.403" fill="#2e3140" rx="8.642" ry="12.389"/><circle cx="310.213" cy="295.291" fill="#83d5ef" r="6.5"/></g><g><path d="m215.748 313.161c-8.144 8.144-21.371 8.144-29.515 0-8.154-8.154-8.144-21.371 0-29.515 2.208-2.208 4.786-3.82 7.538-4.827 7.405-2.721 16.031-1.119 21.977 4.827 5.936 5.936 7.548 14.573 4.827 21.977-1.007 2.752-2.619 5.33-4.827 7.538z" fill="#a583bb"/><ellipse cx="207.172" cy="292.221" fill="#decee5" rx="12.127" ry="18.953" transform="matrix(.707 -.707 .707 .707 -145.952 232.082)"/><path d="m214.177 298.403c0 5.679-3.602 10.53-8.641 12.389-1.423.508-2.948.799-4.546.799-7.291 0-13.187-5.911-13.187-13.188 0-7.291 5.897-13.187 13.187-13.187 1.598 0 3.123.29 4.546.799 5.04 1.859 8.641 6.695 8.641 12.388z" fill="#3f5d77"/><ellipse cx="205.536" cy="298.403" fill="#2e3140" rx="8.642" ry="12.389"/><circle cx="200.986" cy="295.291" fill="#83d5ef" r="6.5"/></g></g><g><g><g><path d="m283.57 385.52v15.33c0 11.11-9.01 20.12-20.12 20.12h-14.9c-11.11 0-20.12-9.01-20.12-20.12v-15.33c0-11.11 9.01-20.12 20.12-20.12h14.9c11.11 0 20.12 9.01 20.12 20.12z" fill="#a583bb"/><path d="m283.57 385.52v15.33c0 11.11-9.01 20.12-20.12 20.12h-7.45v-55.57h7.45c11.11 0 20.12 9.01 20.12 20.12z" fill="#c2aacf"/></g><g><path d="m256 394.847c-10.571 0-20.567-3.727-29.387-7.014-6.293-2.346-12.238-4.562-17.361-5.06-2.749-.267-4.76-2.711-4.493-5.46s2.715-4.757 5.46-4.493c6.425.624 12.964 3.062 19.888 5.643 8.419 3.139 17.126 6.384 25.894 6.384 8.771 0 17.48-3.246 25.903-6.385 6.924-2.581 13.463-5.018 19.888-5.643 2.753-.275 5.193 1.745 5.46 4.493.267 2.749-1.744 5.193-4.493 5.46-5.124.498-11.069 2.714-17.363 5.06-8.823 3.288-18.822 7.015-29.396 7.015z" fill="#746087"/></g></g><g><g><path d="m256 273.87h7.82c15.511 0 28.13 12.619 28.13 28.13 0 4.971-4.029 9-9 9s-9-4.029-9-9c0-5.585-4.544-10.13-10.13-10.13h-7.82z" fill="#c2aacf"/></g><g><path d="m256 273.87h-7.82c-15.511 0-28.13 12.619-28.13 28.13 0 4.971 4.029 9 9 9s9-4.029 9-9c0-5.585 4.544-10.13 10.13-10.13h7.82z" fill="#a583bb"/></g></g><g><path d="m316.28 325.084h-33.33v29.606h33.33c8.176 0 14.803-6.628 14.803-14.803 0-8.176-6.627-14.803-14.803-14.803z" fill="#c2aacf"/><path d="m195.72 354.69h33.33v-29.606h-33.33c-8.176 0-14.803 6.628-14.803 14.803 0 8.175 6.627 14.803 14.803 14.803z" fill="#a583bb"/></g><g><path d="m282.95 302v52.69c0 10.57-8.56 19.13-19.13 19.13h-15.64c-10.57 0-19.13-8.56-19.13-19.13v-52.69c0-10.57 8.56-19.13 19.13-19.13h15.64c10.57 0 19.13 8.56 19.13 19.13z" fill="#334353"/><path d="m282.95 302v52.69c0 10.57-8.56 19.13-19.13 19.13h-7.82v-90.95h7.82c10.57 0 19.13 8.56 19.13 19.13z" fill="#3e4e60"/><path d="m282.95 347.48v7.21c0 10.57-8.56 19.13-19.13 19.13h-15.64c-10.57 0-19.13-8.56-19.13-19.13v-7.21c0-10.57 8.56-19.14 19.13-19.14h15.64c10.57 0 19.13 8.57 19.13 19.14z" fill="#2e3140"/><path d="m282.95 347.48v7.21c0 10.57-8.56 19.13-19.13 19.13h-7.82v-45.48h7.82c10.57 0 19.13 8.57 19.13 19.14z" fill="#334353"/><g><path d="m261.339 363.116c-1.907-2.632-1.319-6.311 1.312-8.218l5.295-3.837c2.632-1.907 6.311-1.319 8.218 1.312 1.907 2.632 1.319 6.311-1.312 8.218l-5.295 3.837c-2.631 1.907-6.311 1.319-8.218-1.312z" fill="#ea7589"/><path d="m250.661 363.116c1.907-2.632 1.319-6.311-1.312-8.218l-5.295-3.837c-2.632-1.907-6.311-1.319-8.218 1.312-1.907 2.632-1.319 6.311 1.312 8.218l5.295 3.837c2.631 1.907 6.311 1.319 8.218-1.312z" fill="#dd5273"/></g></g></g></g></g></svg>