<svg id="Icons" enable-background="new 0 0 512 512" height="512" viewBox="0 0 512 512" width="512" xmlns="http://www.w3.org/2000/svg"><g><circle cx="256" cy="256" fill="#22bce0" r="256"/><g><g><g><path d="m353.21 384.93-37.26 57.91c-7.02 10.92-19.12 17.52-32.1 17.52h-55.7c-12.98 0-25.08-6.6-32.1-17.52l-37.26-57.91c-11.95-18.57-16.31-41.03-12.18-62.72l8.28-43.46c1.61-8.45 4.48-16.62 8.5-24.22l24.34-45.93c12.05-22.74 35.68-36.96 61.41-36.96h13.72c25.73 0 49.36 14.22 61.41 36.96l24.34 45.93c4.02 7.6 6.89 15.77 8.5 24.22l8.28 43.46c4.13 21.69-.23 44.15-12.18 62.72z" fill="#c17e62"/><path d="m353.21 384.93-37.26 57.91c-7.02 10.92-19.12 17.52-32.1 17.52h-27.85v-288.72h6.86c25.73 0 49.36 14.22 61.41 36.96l24.34 45.93c4.02 7.6 6.89 15.77 8.5 24.22l8.28 43.46c4.13 21.69-.23 44.15-12.18 62.72z" fill="#d48d77"/></g><g><g><g><path d="m327.28 336.86c-2.75 1.79-5.96 2.95-9.45 3.25-11.4 1-25.17-7.11-26.17-18.51-.68-7.87 5.2-11.79 12.66-13.8 3.34-.89 7-1.4 10.53-1.71 11.4-.99 20.82.17 21.81 11.57.69 7.91-3.15 15.17-9.38 19.2z" fill="#3e4e60"/><path d="m327.28 336.86c-13.02-1.42-23.16-12.45-23.16-25.85 0-1.09.07-2.16.2-3.21 3.34-.89 7-1.4 10.53-1.71 11.4-.99 20.82.17 21.81 11.57.69 7.91-3.15 15.17-9.38 19.2z" fill="#2e3140"/><path d="m328.337 319.745c-.271-3.095-2.999-5.384-6.094-5.114-7.405.937-6.473 11.572.981 11.208 3.094-.271 5.384-2.999 5.113-6.094z" fill="#fff"/></g><g><path d="m220.34 321.6c-.56 6.36-5.09 11.7-10.97 14.99-4.66 2.62-10.16 3.96-15.2 3.52-11.4-.99-19.83-11.05-18.83-22.45.72-8.33 5.94-11.19 13.15-11.74 2.66-.21 5.59-.1 8.66.17 11.4 1 24.18 4.11 23.19 15.51z" fill="#3e4e60"/><path d="m220.34 321.6c-.56 6.36-5.09 11.7-10.97 14.99-12.16-2.17-21.38-12.8-21.38-25.58 0-1.74.17-3.44.5-5.09 2.66-.21 5.59-.1 8.66.17 11.4 1 24.18 4.11 23.19 15.51z" fill="#2e3140"/><path d="m213.964 322.396c.271-3.095-2.019-5.823-5.114-6.094-7.455-.363-8.384 10.272-.98 11.208 3.094.27 5.823-2.019 6.094-5.114z" fill="#fff"/></g></g><g><g><path d="m295.53 357.11v64.66c0 21.31-17.28 52.44-38.59 52.44h-1.88c-21.31 0-38.59-31.13-38.59-52.44v-64.66c0-21.83 17.7-51.3 39.53-51.3 10.92 0 20.8 7.37 27.95 17.46 7.15 10.1 11.58 22.93 11.58 33.84z" fill="#d48d77"/><path d="m295.53 357.11v64.66c0 21.31-17.28 52.44-38.59 52.44h-.94v-168.4c10.92 0 20.8 7.37 27.95 17.46 7.15 10.1 11.58 22.93 11.58 33.84z" fill="#eea47d"/></g><g><g><path d="m287.87 395.69c0 2.65-.66 5.37-2.1 7.95-3.95 7.06-11.41 11.44-19.5 11.44h-20.54c-4.05 0-7.93-1.1-11.3-3.07-3.37-1.98-6.23-4.84-8.2-8.37-6.09-10.89 1.78-24.31 14.26-24.31h31.02c9.52 0 16.36 7.81 16.36 16.36z" fill="#3e4e60"/><path d="m287.87 395.69c0 2.65-.66 5.37-2.1 7.95-3.95 7.06-11.41 11.44-19.5 11.44h-10.27v-35.75h15.51c9.52 0 16.36 7.81 16.36 16.36z" fill="#3f5d77"/></g><path d="m295.033 396.886c-2.598.249-4.507 2.585-4.508 5.196-.004 37.744-1.166 42.076-11.153 42.076-8.339 0-11.644-.979-14.56-1.842-.012-.004-.024-.007-.036-.011-2.238-.662-3.777-2.714-3.777-5.048v-25.007c0-2.611-1.909-4.944-4.508-5.192-2.982-.285-5.492 2.053-5.492 4.976v25.222c0 2.334-1.539 4.386-3.777 5.048-.012.004-.024.007-.036.011-2.916.863-6.221 1.842-14.56 1.842-9.987 0-11.148-4.331-11.153-42.076 0-2.61-1.909-4.947-4.508-5.196-2.983-.285-5.493 2.053-5.493 4.976 0 18.086 0 30.034 2.194 38.115 2.626 9.674 8.65 14.18 18.959 14.18 9.788 0 14.008-1.249 17.398-2.253 2.059-.609 3.428-1.013 5.922-1.019.018 0 .034.005.052.005s.034-.005.052-.005c2.495.006 3.863.409 5.922 1.019 3.391 1.004 7.611 2.253 17.398 2.253 10.309 0 16.333-4.506 18.959-14.18 2.194-8.081 2.194-20.029 2.194-38.115.004-2.922-2.506-5.26-5.489-4.975z" fill="#a26d5a"/><g><g><path d="m256 401.36v10.675c-.187.247-.385.481-.596.702-3.111 3.267-8.154 3.267-11.323 0l-2.613-2.689-6.238-6.413c-3.294-3.396-3.5-8.97-.399-12.454 1.566-1.759 3.664-2.642 5.794-2.642s4.269.883 5.916 2.642l8.851 9.452c.216.236.418.478.608.727z" fill="#151516"/><path d="m276.77 403.635-8.851 9.102c-3.169 3.267-8.212 3.267-11.323 0-.211-.221-.409-.455-.596-.702v-10.675c.19-.249.392-.491.607-.727l8.851-9.452c1.647-1.759 3.786-2.642 5.917-2.642s4.228.883 5.794 2.642c3.101 3.483 2.895 9.058-.399 12.454z" fill="#2e3140"/></g></g></g></g><g><path d="m301.16 291.28h-90.32c-8.57 0-14.99-7.86-13.27-16.26l3.12-15.28c2.35-11.52 6.7-22.54 12.84-32.56l9.35-15.25c7.06-11.52 19.6-18.55 33.12-18.55s26.06 7.03 33.12 18.55l9.35 15.25c6.14 10.02 10.49 21.04 12.84 32.56l3.12 15.28c1.72 8.4-4.7 16.26-13.27 16.26z" fill="#d48d77"/><path d="m301.16 291.28h-45.16v-97.9c13.52 0 26.06 7.03 33.12 18.55l9.35 15.25c6.14 10.02 10.49 21.04 12.84 32.56l3.12 15.28c1.72 8.4-4.7 16.26-13.27 16.26z" fill="#eea47d"/></g></g></g><g><path d="m424.43 91.9-3.48 20.61-8.95 52.99c-1.26 7.42-4.05 14.5-8.19 20.79l-27.48 41.67-23.55 35.7-43.23-52.41-16.211-19.659c-8.817-10.693-9.213-26.018-.958-37.152l15.8-21.31c1.88-2.54 3.87-4.99 5.96-7.34 6.89-7.79 14.86-14.56 23.7-20.11l57.61-36.18c6.75-4.24 15.61-2.74 20.58 3.5l5.2 6.52c2.779 3.481 3.939 7.981 3.199 12.381z" fill="#c17e62"/><path d="m424.43 91.9-3.48 20.61-8.95 52.99c-1.26 7.42-4.05 14.5-8.19 20.79l-27.48 41.67c-34.84-16.16-60-55.5-62.19-102.17 6.89-7.79 14.86-14.56 23.7-20.11l57.61-36.18c6.75-4.24 15.61-2.74 20.58 3.5l5.2 6.52c2.78 3.48 3.94 7.98 3.2 12.38z" fill="#a26d5a"/><path d="m420.95 112.51-8.95 52.99c-1.26 7.42-4.05 14.5-8.19 20.79l-51.03 77.37-27.062-32.809c-10.19-12.354-14.038-28.752-10.406-44.348l9.354-40.175c2.375-10.199 8.522-19.12 17.206-24.971l52.09-35.094c4.616-3.11 10.901-1.655 13.681 3.167z" fill="#fff"/><path d="m325.718 230.851 18.41-24.461c4.778-6.348 7.361-14.077 7.361-22.022v-25.706c0-11.318 4.496-22.173 12.5-30.177l17.193-17.193c3.308-3.308 8.965-.965 8.965 3.713v92.001l-37.367 56.654z" fill="#3f5d77"/></g><g><path d="m87.571 91.9 3.48 20.61 8.95 52.99c1.26 7.42 4.05 14.5 8.19 20.79l27.48 41.67 23.55 35.7 43.23-52.41 16.211-19.659c8.817-10.693 9.213-26.018.958-37.152l-15.8-21.31c-1.88-2.54-3.87-4.99-5.96-7.34-6.89-7.79-14.86-14.56-23.7-20.11l-57.61-36.18c-6.75-4.24-15.61-2.74-20.58 3.5l-5.2 6.52c-2.779 3.481-3.939 7.981-3.199 12.381z" fill="#d48d77"/><path d="m87.571 91.9 3.48 20.61 8.95 52.99c1.26 7.42 4.05 14.5 8.19 20.79l27.48 41.67c34.84-16.16 60-55.5 62.19-102.17-6.89-7.79-14.86-14.56-23.7-20.11l-57.61-36.18c-6.75-4.24-15.61-2.74-20.58 3.5l-5.2 6.52c-2.78 3.48-3.94 7.98-3.2 12.38z" fill="#a26d5a"/><path d="m91.051 112.51 8.95 52.99c1.26 7.42 4.05 14.5 8.19 20.79l51.03 77.37 27.062-32.809c10.19-12.354 14.038-28.752 10.406-44.348l-9.354-40.175c-2.374-10.199-8.522-19.12-17.206-24.971l-52.09-35.094c-4.616-3.11-10.901-1.655-13.681 3.167z" fill="#c2aacf"/><path d="m186.283 230.851-18.41-24.461c-4.778-6.348-7.361-14.077-7.361-22.022v-25.706c0-11.318-4.496-22.173-12.5-30.177l-17.193-17.193c-3.308-3.308-8.965-.965-8.965 3.713v92.001l37.366 56.653z" fill="#3e4e60"/></g></g></g></svg>