<svg id="Icons" enable-background="new 0 0 512 512" height="512" viewBox="0 0 512 512" width="512" xmlns="http://www.w3.org/2000/svg"><g><circle cx="256" cy="256" fill="#ea792e" r="256"/><g><g><path d="m300.12 465.34h-88.24c-19.33 0-34.59-16.43-33.17-35.7l7.37-99.92h139.84l7.37 99.92c1.42 19.27-13.84 35.7-33.17 35.7z" fill="#2e3140"/><path d="m300.12 465.34h-44.12v-135.62h69.92l7.37 99.92c1.42 19.27-13.84 35.7-33.17 35.7z" fill="#334353"/></g><g><g><path d="m395.81 197.008v75.62c0 31.53-25.56 57.09-57.08 57.09h-165.46c-31.52 0-57.08-25.56-57.08-57.09v-75.62c0-21.02 11.36-39.38 28.27-49.29 26.45-15.5 50.12-35.32 68.88-59.55l2.06-2.66c10.28-13.27 25.44-19.91 40.6-19.91s30.32 6.64 40.6 19.91l2.06 2.66c18.76 24.23 42.43 44.05 68.88 59.55 16.91 9.91 28.27 28.27 28.27 49.29z" fill="#334353"/><path d="m395.81 197.008v75.62c0 31.53-25.56 57.09-57.08 57.09h-82.73v-264.12c15.16 0 30.32 6.64 40.6 19.91l2.06 2.66c18.76 24.23 42.43 44.05 68.88 59.55 16.91 9.91 28.27 28.27 28.27 49.29z" fill="#3e4e60"/></g><g><g><path d="m379.121 259.822c-12.222 12.222-32.073 12.222-44.296 0-12.238-12.238-12.222-32.074 0-44.296 3.314-3.314 7.182-5.734 11.313-7.244 11.113-4.084 24.059-1.68 32.983 7.244 8.908 8.908 11.328 21.87 7.244 32.983-1.51 4.131-3.93 7.999-7.244 11.313z" fill="#334353"/><ellipse cx="366.252" cy="228.396" fill="#3f5d77" rx="18.2" ry="28.444" transform="matrix(.707 -.707 .707 .707 -54.228 325.874)"/><path d="m378.839 237.674c0 9.416-5.972 17.459-14.328 20.541-2.36.843-4.889 1.324-7.537 1.324-12.089 0-21.866-9.801-21.866-21.866 0-12.089 9.777-21.866 21.866-21.866 2.649 0 5.178.482 7.537 1.324 8.356 3.084 14.328 11.103 14.328 20.543z" fill="#dd5e26"/><path d="m371.34 237.674c0 6.187-3.924 11.471-9.414 13.496-1.551.554-3.212.87-4.952.87-7.943 0-14.367-6.44-14.367-14.367 0-7.943 6.424-14.367 14.367-14.367 1.74 0 3.402.316 4.952.87 5.49 2.027 9.414 7.296 9.414 13.498z" fill="#2e3140"/><path d="m371.34 230.782c0 3.219-2.041 5.968-4.898 7.022-.807.288-1.671.453-2.577.453-4.132 0-7.474-3.35-7.474-7.474 0-4.132 3.342-7.474 7.474-7.474.905 0 1.77.165 2.577.453 2.856 1.052 4.898 3.793 4.898 7.02z" fill="#fff"/></g><g><path d="m132.879 259.822c12.222 12.222 32.073 12.222 44.296 0 12.238-12.238 12.222-32.074 0-44.296-3.314-3.314-7.182-5.734-11.313-7.244-11.113-4.084-24.059-1.68-32.983 7.244-8.908 8.908-11.328 21.87-7.244 32.983 1.51 4.131 3.93 7.999 7.244 11.313z" fill="#2e3140"/><ellipse cx="145.748" cy="228.396" fill="#3e4e60" rx="28.444" ry="18.2" transform="matrix(.707 -.707 .707 .707 -118.812 169.956)"/><path d="m176.897 237.674c0 9.416-5.972 17.459-14.328 20.541-2.36.843-4.889 1.324-7.537 1.324-12.089 0-21.866-9.801-21.866-21.866 0-12.089 9.777-21.866 21.866-21.866 2.649 0 5.178.482 7.537 1.324 8.356 3.084 14.328 11.103 14.328 20.543z" fill="#dd5e26"/><path d="m169.398 237.674c0 6.187-3.924 11.471-9.414 13.496-1.551.554-3.212.87-4.952.87-7.943 0-14.367-6.44-14.367-14.367 0-7.943 6.424-14.367 14.367-14.367 1.74 0 3.402.316 4.952.87 5.49 2.027 9.414 7.296 9.414 13.498z" fill="#2e3140"/><path d="m169.398 230.782c0 3.219-2.041 5.968-4.898 7.022-.807.288-1.671.453-2.577.453-4.132 0-7.474-3.35-7.474-7.474 0-4.132 3.342-7.474 7.474-7.474.905 0 1.77.165 2.577.453 2.856 1.052 4.898 3.793 4.898 7.02z" fill="#fff"/></g></g><g><path d="m356.182 133.587-42.961 14.515c-21.572 7.289-33.151 30.685-25.863 52.258l1.049 3.105c7.289 21.572 30.685 33.151 52.258 25.863l42.961-14.515c21.572-7.289 33.151-30.685 25.863-52.258l-1.049-3.105c-7.289-21.572-30.686-33.152-52.258-25.863z" fill="#3f5d77"/><path d="m155.818 133.587 42.961 14.515c21.572 7.289 33.151 30.685 25.863 52.258l-1.049 3.105c-7.289 21.572-30.685 33.151-52.258 25.863l-42.961-14.515c-21.572-7.289-33.151-30.685-25.863-52.258l1.049-3.105c7.289-21.572 30.686-33.152 52.258-25.863z" fill="#3e4e60"/></g><g><path d="m395.81 272.308c0 1.59-.46 3.11-1.27 4.4-.82 1.29-2 2.35-3.43 3.02l-10.17 4.81c-9.11 4.31-16.22 11.97-19.82 21.39l-4.84 12.64c-5.08 13.27-14.57 24.38-26.87 31.48l-65.24 37.65c-2.59 1.19-5.38 1.78-8.17 1.78s-5.58-.59-8.17-1.78l-65.24-37.65c-12.3-7.1-21.79-18.21-26.87-31.48l-4.84-12.64c-3.6-9.42-10.71-17.08-19.82-21.39l-10.17-4.81c-2.87-1.35-4.7-4.24-4.7-7.42 0-4.61 3.75-8.21 8.19-8.21.45 0 .9.03 1.36.11l51.04 8.45c7.91 1.31 15.45 4.27 22.14 8.68l3.94 2.59c.57.37 1.14.74 1.72 1.09-.61-2.45-.93-5.02-.93-7.65v-10.8c0-17.53 14.21-31.75 31.75-31.75h41.2c17.54 0 31.75 14.22 31.75 31.75v10.8c0 2.63-.32 5.2-.93 7.65.58-.35 1.15-.72 1.72-1.09l3.94-2.59c6.69-4.41 14.23-7.37 22.14-8.68l51.04-8.45c5-.83 9.55 3.03 9.55 8.1z" fill="#3e4e60"/><path d="m395.81 272.308c0 1.59-.46 3.11-1.27 4.4-.82 1.29-2 2.35-3.43 3.02l-10.17 4.81c-9.11 4.31-16.22 11.97-19.82 21.39l-4.84 12.64c-5.08 13.27-14.57 24.38-26.87 31.48l-65.24 37.65c-2.59 1.19-5.38 1.78-8.17 1.78v-154.66h20.6c17.54 0 31.75 14.22 31.75 31.75v10.8c0 2.63-.32 5.2-.93 7.65.58-.35 1.15-.72 1.72-1.09l3.94-2.59c6.69-4.41 14.23-7.37 22.14-8.68l51.04-8.45c5-.83 9.55 3.03 9.55 8.1z" fill="#3f5d77"/><g><path d="m279.808 315.439 4.93-8.378c2.402-4.082 7.932-4.959 11.479-1.821l6.874 6.081c3.051 2.699 3.403 7.336.793 10.464l-1.916 2.297c-1.431 1.715-3.549 2.706-5.782 2.706h-9.888c-5.825 0-9.445-6.33-6.49-11.349z" fill="#334353"/><path d="m232.192 315.439-4.93-8.378c-2.402-4.082-7.932-4.959-11.479-1.821l-6.874 6.081c-3.051 2.699-3.403 7.336-.793 10.464l1.916 2.297c1.431 1.715 3.549 2.706 5.782 2.706h9.888c5.825 0 9.445-6.33 6.49-11.349z" fill="#2e3140"/></g><g><path d="m320.236 300.228v-10.471c0-2.509 1.702-4.698 4.134-5.316l37.571-9.547c3.467-.881 6.835 1.739 6.835 5.316 0 2.026-1.117 3.888-2.906 4.84l-37.571 20.017c-3.653 1.948-8.063-.7-8.063-4.839z" fill="#3f6c8e"/><path d="m191.764 300.228v-10.471c0-2.509-1.702-4.698-4.134-5.316l-37.571-9.547c-3.467-.881-6.835 1.739-6.835 5.316 0 2.026 1.117 3.888 2.906 4.84l37.571 20.017c3.653 1.948 8.063-.7 8.063-4.839z" fill="#3f5d77"/></g><path d="m256 258.343c6.48 0 11.733 5.253 11.733 11.733v50.833c0 7.725 6.262 13.987 13.987 13.987h32.193c3.492 0 6.323 2.831 6.323 6.323 0 2.255-1.194 4.336-3.146 5.467-11.487 6.658-51.025 29.14-61.09 29.14z" fill="#3f6c8e"/><path d="m256 258.343c-6.48 0-11.733 5.253-11.733 11.733v50.833c0 7.725-6.262 13.987-13.987 13.987h-32.193c-3.492 0-6.323 2.831-6.323 6.323 0 2.255 1.194 4.336 3.146 5.467 11.487 6.658 51.025 29.14 61.09 29.14z" fill="#3f5d77"/></g><g><g><g><path d="m277.118 93.256c-.079 0-.159-.001-.239-.004-4.14-.129-7.391-3.591-7.261-7.731l1.367-43.629c.129-4.14 3.557-7.409 7.731-7.261 4.14.129 7.391 3.591 7.261 7.731l-1.367 43.629c-.127 4.06-3.458 7.265-7.492 7.265z" fill="#3f5d77"/></g><g><path d="m297.078 113.332c-.862 0-1.738-.149-2.595-.465-3.886-1.433-5.874-5.746-4.441-9.632l15.087-40.905c1.435-3.886 5.747-5.875 9.633-4.441s5.874 5.746 4.441 9.632l-15.087 40.905c-1.118 3.029-3.986 4.906-7.038 4.906z" fill="#3f5d77"/></g><g><path d="m317.979 132.137c-1.664 0-3.339-.551-4.73-1.684-3.212-2.615-3.696-7.339-1.08-10.551l24.348-29.902c2.613-3.211 7.337-3.696 10.551-1.081 3.212 2.615 3.696 7.339 1.08 10.551l-24.348 29.902c-1.482 1.821-3.642 2.765-5.821 2.765z" fill="#3f5d77"/></g></g><g><g><path d="m234.882 93.256c.079 0 .159-.001.239-.004 4.14-.129 7.391-3.591 7.261-7.731l-1.367-43.629c-.129-4.14-3.557-7.409-7.731-7.261-4.14.129-7.391 3.591-7.261 7.731l1.367 43.629c.127 4.06 3.458 7.265 7.492 7.265z" fill="#3e4e60"/></g><g><path d="m214.922 113.332c.862 0 1.738-.149 2.595-.465 3.886-1.433 5.874-5.746 4.441-9.632l-15.087-40.905c-1.435-3.886-5.747-5.875-9.633-4.441s-5.874 5.746-4.441 9.632l15.087 40.905c1.118 3.029 3.986 4.906 7.038 4.906z" fill="#3e4e60"/></g><g><path d="m194.021 132.137c1.664 0 3.339-.551 4.73-1.684 3.212-2.615 3.696-7.339 1.08-10.551l-24.348-29.902c-2.613-3.211-7.337-3.696-10.551-1.081-3.212 2.615-3.696 7.339-1.08 10.551l24.348 29.902c1.482 1.821 3.642 2.765 5.821 2.765z" fill="#3e4e60"/></g></g></g></g></g></g></svg>