<svg id="Icons" enable-background="new 0 0 512 512" height="512" viewBox="0 0 512 512" width="512" xmlns="http://www.w3.org/2000/svg"><g><circle cx="256" cy="256" fill="#53b976" r="256"/><g><g><g><path d="m385.97 171.81v60.6c0 7.38-1.14 14.66-3.36 21.6-2.36 7.47-5.97 14.55-10.71 20.92l-52.71 73.84c-5.72 8.01-12.81 14.75-20.84 19.96-2.2 1.45-4.48 2.77-6.81 3.97-10.84 5.58-23 8.61-35.54 8.61-15.24 0-29.92-4.48-42.35-12.58-8.03-5.21-15.12-11.95-20.84-19.96l-52.71-73.84c-4.74-6.37-8.35-13.45-10.71-20.92-2.22-6.94-3.36-14.22-3.36-21.6v-60.6c0-28.27 16.71-53.86 42.58-65.23l50.1-22.02c11.88-5.22 24.59-7.84 37.29-7.84s25.41 2.62 37.29 7.84l50.1 22.02c25.87 11.37 42.58 36.96 42.58 65.23z" fill="#a26d5a"/><path d="m385.97 171.81v60.6c0 15.32-4.93 30.23-14.07 42.52l-52.71 73.84c-7.29 10.21-16.81 18.35-27.65 23.93s-23 8.61-35.54 8.61v-304.59c12.7 0 25.41 2.62 37.29 7.84l50.1 22.02c25.87 11.37 42.58 36.96 42.58 65.23z" fill="#c17e62"/></g><g><path d="m382.61 254.01c-2.36 7.47-5.97 14.55-10.71 20.92l-52.71 73.84c-5.72 8.01-12.81 14.75-20.84 19.96-13.99-19.18-12.34-46.21 4.97-63.53l37.37-37.37c11.42-11.42 27.08-16.02 41.92-13.82z" fill="#f3c3b1"/><path d="m213.65 368.73c-8.03-5.21-15.12-11.95-20.84-19.96l-52.71-73.84c-4.74-6.37-8.35-13.45-10.71-20.92 2.4-.35 4.83-.53 7.25-.53 12.55 0 25.1 4.78 34.67 14.35l37.37 37.37c17.31 17.32 18.96 44.35 4.97 63.53z" fill="#eea47d"/></g><g><path d="m277.885 263.018c-8.855-8.855-8.855-23.211 0-32.066l17.281-17.281c8.855-8.855 23.211-8.855 32.066 0 8.855 8.855 8.855 23.211 0 32.066l-17.281 17.281c-8.855 8.855-23.211 8.855-32.066 0z" fill="#f3c3b1"/><path d="m234.115 263.018c-8.855 8.855-23.211 8.855-32.066 0l-17.281-17.281c-8.855-8.855-8.855-23.211 0-32.066 8.855-8.855 23.211-8.855 32.066 0l17.281 17.281c8.854 8.855 8.854 23.212 0 32.066z" fill="#eea47d"/></g><g><path d="m287.812 196.03h-31.812v-82.944h31.812c22.904 0 41.472 18.568 41.472 41.472 0 22.904-18.568 41.472-41.472 41.472z" fill="#d48d77"/><path d="m224.188 113.086h31.812v82.944h-31.812c-22.904 0-41.472-18.568-41.472-41.472 0-22.904 18.568-41.472 41.472-41.472z" fill="#c17e62"/></g></g><g><g><path d="m321.61 322.86v89.94c0 34.58-28.03 62.61-62.61 62.61h-6c-34.58 0-62.61-28.03-62.61-62.61v-89.94c0-6.3 1.63-12.21 4.5-17.35 3.11-5.58 4.85-11.82 4.85-18.21v-11.68c0-8.58 6.96-15.53 15.54-15.53h1.03c4.29 0 8.17-1.74 10.98-4.55 2.81-2.82 4.55-6.7 4.55-10.99 0-8.58 6.96-15.53 15.54-15.53h17.24c4.29 0 8.18 1.74 10.99 4.55s4.55 6.69 4.55 10.98c0 8.58 6.95 15.54 15.53 15.54h1.03c8.58 0 15.54 6.95 15.54 15.53v11.68c0 6.39 1.74 12.63 4.85 18.21 2.87 5.14 4.5 11.05 4.5 17.35z" fill="#334353"/><path d="m321.61 322.86v89.94c0 34.58-28.03 62.61-62.61 62.61h-3v-246.39h8.62c4.29 0 8.18 1.74 10.99 4.55s4.55 6.69 4.55 10.98c0 8.58 6.95 15.54 15.53 15.54h1.03c8.58 0 15.54 6.95 15.54 15.53v11.68c0 6.39 1.74 12.63 4.85 18.21 2.87 5.14 4.5 11.05 4.5 17.35z" fill="#3e4e60"/></g><g><g><path d="m310.91 413.48c0 14.41-7.4 27.34-19.08 36.09-9.62 7.2-22.15 11.56-35.83 11.56v-10c8.28 0 16.04-1.89 22.71-5.18 13.27-6.55 22.2-18.65 22.2-32.47 0-2.76 2.24-5 5-5s5 2.24 5 5z" fill="#22a8b9"/></g><g><path d="m256 451.13v10c-13.68 0-26.21-4.36-35.83-11.56-11.68-8.75-19.08-21.68-19.08-36.09 0-2.76 2.24-5 5-5s5 2.24 5 5c0 13.82 8.93 25.92 22.2 32.47 6.67 3.29 14.43 5.18 22.71 5.18z" fill="#3f5d77"/></g></g><g><circle cx="271.397" cy="404.896" fill="#2e3140" r="10.998"/><circle cx="240.603" cy="404.896" fill="#151516" r="10.998"/></g><g><path d="m266.54 419.894h-10.54v17.109h20.914c6.127 0 8.497-7.973 3.364-11.319l-4.812-3.137c-2.655-1.731-5.756-2.653-8.926-2.653z" fill="#22a8b9"/><path d="m245.46 419.894h10.54v17.109h-20.914c-6.127 0-8.497-7.973-3.364-11.319l4.812-3.137c2.655-1.731 5.756-2.653 8.926-2.653z" fill="#3f5d77"/></g><g><path d="m288.363 267.401h-32.363v28.086h32.363c7.756 0 14.043-6.287 14.043-14.043 0-7.756-6.287-14.043-14.043-14.043z" fill="#22a8b9"/><path d="m223.637 295.486h32.363v-28.086h-32.363c-7.756 0-14.043 6.287-14.043 14.043 0 7.756 6.287 14.043 14.043 14.043z" fill="#3f5d77"/></g><g><path d="m269.642 235.473h-13.642v11.839h13.642c3.269 0 5.919-2.65 5.919-5.919 0-3.27-2.65-5.92-5.919-5.92z" fill="#22a8b9"/><path d="m242.358 247.312h13.642v-11.839h-13.642c-3.269 0-5.919 2.65-5.919 5.919 0 3.27 2.65 5.92 5.919 5.92z" fill="#3f5d77"/></g><g><path d="m282.279 267.401h-26.279v16.977h26.279c4.688 0 8.489-3.801 8.489-8.489 0-4.688-3.801-8.488-8.489-8.488z" fill="#fff"/><path d="m229.721 284.378h26.279v-16.977h-26.279c-4.688 0-8.489 3.801-8.489 8.489 0 4.688 3.801 8.488 8.489 8.488z" fill="#22a8b9"/></g><g><path d="m256 451.13v10c-13.68 0-26.21-4.36-35.83-11.56 4.2-1.47 8.58-2.68 13.12-3.62 6.67 3.29 14.43 5.18 22.71 5.18z" fill="#22a8b9"/><path d="m291.83 449.57c-9.62 7.2-22.15 11.56-35.83 11.56v-10c8.28 0 16.04-1.89 22.71-5.18 4.54.94 8.92 2.15 13.12 3.62z" fill="#fff"/></g></g><g><g><path d="m348.01 206.53c0 3.57-1.37 7.14-4.09 9.86l-13.24 13.25c-.86.86-1.8 1.58-2.8 2.16-5.35 3.14-12.34 2.42-16.92-2.16-2.72-2.72-4.09-6.3-4.09-9.86 0-3.57 1.37-7.14 4.09-9.86l13.24-13.25c4.59-4.58 11.58-5.3 16.92-2.17 1 .59 1.94 1.31 2.8 2.17 2.72 2.73 4.09 6.29 4.09 9.86z" fill="#2e3140"/><path d="m348.01 206.53c0 3.57-1.37 7.14-4.09 9.86l-13.24 13.25c-.86.86-1.8 1.58-2.8 2.16-1-.58-1.95-1.3-2.81-2.16-2.73-2.72-4.09-6.3-4.09-9.86 0-3.57 1.36-7.14 4.09-9.86l13.24-13.25c.86-.86 1.81-1.58 2.81-2.17 1 .59 1.94 1.31 2.8 2.17 2.72 2.73 4.09 6.29 4.09 9.86z" fill="#3e4e60"/><circle cx="334.868" cy="206.036" fill="#fff" r="8.875"/></g><g><path d="m163.676 206.53c0 3.57 1.37 7.14 4.09 9.86l13.24 13.25c.86.86 1.8 1.58 2.8 2.16 5.35 3.14 12.34 2.42 16.92-2.16 2.72-2.72 4.09-6.3 4.09-9.86 0-3.57-1.37-7.14-4.09-9.86l-13.24-13.25c-4.59-4.58-11.58-5.3-16.92-2.17-1 .59-1.94 1.31-2.8 2.17-2.72 2.73-4.09 6.29-4.09 9.86z" fill="#2e3140"/><path d="m163.676 206.53c0 3.57 1.37 7.14 4.09 9.86l13.24 13.25c.86.86 1.8 1.58 2.8 2.16 1-.58 1.95-1.3 2.81-2.16 2.73-2.72 4.09-6.3 4.09-9.86 0-3.57-1.36-7.14-4.09-9.86l-13.24-13.25c-.86-.86-1.81-1.58-2.81-2.17-1 .59-1.94 1.31-2.8 2.17-2.72 2.73-4.09 6.29-4.09 9.86z" fill="#3e4e60"/><circle cx="176.819" cy="206.036" fill="#fff" r="8.875"/></g></g></g></g></svg>