<svg id="Icons" enable-background="new 0 0 512 512" height="512" viewBox="0 0 512 512" width="512" xmlns="http://www.w3.org/2000/svg"><g><circle cx="256" cy="256" fill="#ee6781" r="256"/><g><g><g><path d="m430.881 189.617c-4.341 14.068-13.354 28.957-29.076 44.332l-98.475-85.264c18.622-26.138 32.809-43.381 44.261-53.929 24.366-22.463 36.294-14.603 52.157 2.343 17.291 18.48 43.607 52.062 31.133 92.518z" fill="#334353"/><path d="m430.881 189.617c-48.53-12.51-83.504-47.781-83.504-89.343 0-1.855.071-3.687.214-5.518 24.366-22.463 36.294-14.603 52.157 2.343 17.291 18.48 43.607 52.062 31.133 92.518z" fill="#2e3140"/><path d="m343.747 169.144c-3.159-3.32-4.426-8.022-3.327-12.47 10.336-41.828 26.551-86.133 60.235-42.887 29.925 38.42 20.318 72.057 3.244 95.49-4.958 6.804-14.858 7.474-20.661 1.375z" fill="#f4829b"/></g><g><path d="m81.111 189.617c4.341 14.068 13.354 28.957 29.076 44.332l98.475-85.264c-18.622-26.138-32.809-43.381-44.261-53.929-24.366-22.463-36.294-14.603-52.157 2.343-17.29 18.48-43.607 52.062-31.133 92.518z" fill="#2e3140"/><path d="m81.111 189.617c48.53-12.51 83.504-47.781 83.504-89.343 0-1.855-.071-3.687-.214-5.518-24.366-22.463-36.294-14.603-52.157 2.343-17.29 18.48-43.607 52.062-31.133 92.518z" fill="#151516"/><path d="m168.246 169.144c3.159-3.32 4.426-8.022 3.327-12.47-10.336-41.828-26.551-86.133-60.235-42.887-29.925 38.42-20.318 72.057-3.244 95.49 4.958 6.804 14.858 7.474 20.661 1.375z" fill="#9175a7"/></g></g><g><g><path d="m407.501 258.625v52.347c0 19.907-10.488 38.339-27.601 48.506l-68.841 40.908c-6.933 4.115-14.841 6.279-22.892 6.279h-64.334c-8.051 0-15.959-2.164-22.892-6.279l-68.841-40.908c-17.112-10.167-27.601-28.6-27.601-48.506v-52.347c0-14.484 5.577-28.421 15.578-38.91l53.227-55.879c9.216-9.68 22-15.15 35.366-15.15h94.658c13.366 0 26.15 5.47 35.366 15.15l53.239 55.879c9.991 10.489 15.568 24.426 15.568 38.91z" fill="#2e3140"/><path d="m407.501 258.625v52.347c0 19.907-10.488 38.339-27.601 48.506l-68.841 40.908c-6.933 4.115-14.841 6.279-22.892 6.279h-32.167v-257.979h47.329c13.366 0 26.15 5.47 35.366 15.15l53.239 55.879c9.99 10.489 15.567 24.426 15.567 38.91z" fill="#334353"/></g><g><g><path d="m354.561 279.738c-11.682 11.682-30.655 11.682-42.337 0-11.696-11.696-11.682-30.655 0-42.337 3.167-3.167 6.865-5.48 10.813-6.923 10.621-3.904 22.995-1.606 31.524 6.923 8.515 8.515 10.827 20.903 6.923 31.524-1.443 3.949-3.756 7.646-6.923 10.813z" fill="#f4829b"/><ellipse cx="342.261" cy="249.702" fill="#f0a6b3" rx="17.395" ry="27.186" transform="matrix(.707 -.707 .707 .707 -76.32 315.15)"/><path d="m354.291 258.57c0 8.999-5.708 16.687-13.695 19.633-2.256.806-4.672 1.266-7.204 1.266-11.554 0-20.899-9.368-20.899-20.899 0-11.554 9.345-20.899 20.899-20.899 2.532 0 4.949.46 7.204 1.266 7.987 2.946 13.695 10.611 13.695 19.633z" fill="#2e3140"/><path d="m347.124 258.57c0 5.913-3.75 10.964-8.998 12.9-1.482.529-3.07.832-4.733.832-7.591 0-13.731-6.155-13.731-13.731 0-7.591 6.14-13.731 13.731-13.731 1.663 0 3.251.302 4.733.832 5.248 1.934 8.998 6.97 8.998 12.898z" fill="#3e4e60"/><path d="m347.124 251.983c0 3.076-1.951 5.704-4.681 6.711-.771.275-1.597.433-2.463.433-3.949 0-7.144-3.202-7.144-7.144 0-3.95 3.194-7.144 7.144-7.144.865 0 1.692.157 2.463.433 2.73 1.006 4.681 3.626 4.681 6.711z" fill="#fff"/></g><g><path d="m157.44 237.402c-11.682 11.682-11.682 30.655 0 42.337 11.696 11.696 30.655 11.682 42.337 0 3.167-3.167 5.48-6.865 6.923-10.813 3.904-10.621 1.606-22.995-6.923-31.524-8.515-8.515-20.903-10.827-31.524-6.923-3.949 1.443-7.646 3.755-10.813 6.923z" fill="#9175a7"/><ellipse cx="187.476" cy="249.702" fill="#f4829b" rx="17.395" ry="27.186" transform="matrix(.707 -.707 .707 .707 -121.656 205.702)"/><path d="m199.511 258.57c0 8.999-5.708 16.687-13.695 19.633-2.256.806-4.672 1.266-7.204 1.266-11.554 0-20.899-9.368-20.899-20.899 0-11.554 9.345-20.899 20.899-20.899 2.532 0 4.949.46 7.204 1.266 7.987 2.946 13.695 10.611 13.695 19.633z" fill="#2e3140"/><path d="m192.343 258.57c0 5.913-3.75 10.964-8.998 12.9-1.482.529-3.07.832-4.733.832-7.591 0-13.731-6.155-13.731-13.731 0-7.591 6.14-13.731 13.731-13.731 1.663 0 3.251.302 4.733.832 5.248 1.934 8.998 6.97 8.998 12.898z" fill="#3e4e60"/><path d="m192.343 251.983c0 3.076-1.951 5.704-4.681 6.711-.771.275-1.597.433-2.463.433-3.949 0-7.144-3.202-7.144-7.144 0-3.95 3.194-7.144 7.144-7.144.865 0 1.692.157 2.463.433 2.73 1.006 4.681 3.626 4.681 6.711z" fill="#fff"/></g></g><g><path d="m331.977 356.446-23.938 41.454c-9.668 16.744-27.541 27.066-46.877 27.066h-10.31c-19.348 0-37.221-10.322-46.889-27.066l-23.938-41.454c-8.705-15.079-4.78-34.284 9.133-44.737l46.176-34.676c6.124-4.59 13.402-6.897 20.668-6.897 7.278 0 14.555 2.307 20.668 6.897l46.176 34.676c13.911 10.453 17.836 29.659 9.131 44.737z" fill="#9175a7"/><path d="m331.977 356.446-23.938 41.454c-9.668 16.744-27.541 27.066-46.877 27.066h-5.161v-154.83c7.278 0 14.555 2.307 20.668 6.897l46.176 34.676c13.912 10.453 17.837 29.659 9.132 44.737z" fill="#f4829b"/></g><g><g><path d="m303.348 416.725c-3.928 0-7.112-3.184-7.112-7.112v-17.188h14.224v17.188c.001 3.928-3.184 7.112-7.112 7.112z" fill="#fff"/><path d="m208.653 416.725c-3.928 0-7.112-3.184-7.112-7.112v-17.188h14.224v17.188c0 3.928-3.184 7.112-7.112 7.112z" fill="#ebd9ea"/></g><path d="m312.91 384.581c-1.86-1.349-4.463-.933-5.812.927-6.046 8.339-14.919 4.353-28.825-3.206-7.852-4.269-15.268-8.301-22.273-8.301s-14.421 4.032-22.273 8.301c-13.901 7.559-22.78 11.547-28.825 3.206-1.348-1.86-3.951-2.276-5.812-.927-1.862 1.349-2.277 3.952-.928 5.813 4.34 5.986 9.517 8.154 14.992 8.154 8.12 0 16.893-4.77 24.548-8.932 6.593-3.584 13.41-7.29 18.297-7.29 4.888 0 11.705 3.706 18.297 7.29 7.655 4.162 16.428 8.932 24.548 8.932 5.476 0 10.654-2.168 14.992-8.154 1.352-1.861.936-4.463-.926-5.813z" fill="#2e3140"/></g><g><path d="m284.315 345.078v16.553c0 7.409-5.993 13.414-13.402 13.414h-29.825c-7.397 0-13.402-6.005-13.402-13.414v-16.553c0-14.734 11.939-26.673 26.673-26.673h3.294c14.723 0 26.662 11.939 26.662 26.673z" fill="#2e3140"/><path d="m284.315 345.078v16.553c0 7.409-5.993 13.414-13.402 13.414h-14.912v-56.641h1.653c14.722.001 26.661 11.94 26.661 26.674z" fill="#334353"/><g><path d="m271.763 347.551h-3.585c-3.35 0-6.066 2.716-6.066 6.066v7.662c0 3.35 2.716 6.066 6.066 6.066h3.585c3.35 0 6.066-2.716 6.066-6.066v-7.662c0-3.35-2.716-6.066-6.066-6.066z" fill="#2e3140"/><path d="m243.824 347.551h-3.585c-3.35 0-6.066 2.716-6.066 6.066v7.662c0 3.35 2.716 6.066 6.066 6.066h3.585c3.35 0 6.066-2.716 6.066-6.066v-7.662c0-3.35-2.716-6.066-6.066-6.066z" fill="#151516"/></g><path d="m256.001 327.905h13.022c4.166 0 7.544 3.378 7.544 7.544 0 4.166-3.378 7.544-7.544 7.544h-13.022z" fill="#3f5d77"/><path d="m256.001 342.993h-13.022c-4.166 0-7.544-3.378-7.544-7.544 0-4.166 3.378-7.544 7.544-7.544h13.022z" fill="#334353"/></g><g><path d="m262.121 313.089h-6.12v-35.411h6.12c6.147 0 11.13 4.983 11.13 11.13v13.152c0 6.146-4.983 11.129-11.13 11.129z" fill="#f0a6b3"/><path d="m249.881 277.678h6.12v35.411h-6.12c-6.147 0-11.13-4.983-11.13-11.13v-13.152c0-6.146 4.983-11.129 11.13-11.129z" fill="#f4829b"/></g><g><path d="m326.508 218.909h-70.508v-59.967h34.74c12.043 0 23.473 5.31 31.241 14.512l16.54 19.594c8.628 10.22 1.363 25.861-12.013 25.861z" fill="#3e4e60"/><path d="m185.493 218.909h70.508v-59.967h-34.74c-12.043 0-23.473 5.31-31.241 14.512l-16.54 19.594c-8.627 10.22-1.362 25.861 12.013 25.861z" fill="#334353"/></g><g><g><g><path d="m401.504 374.973c-.245-.512-6.068-12.637-22.435-20.453-7.883-3.763-16.69-5.901-26.398-6.413-16.567-.868-35.751 2.995-57.339 11.568-1.993.802-2.973 3.062-2.182 5.066.802 1.993 3.062 2.973 5.066 2.182 21.065-8.373 39.993-12.002 55.892-10.822 7.794.579 14.864 2.316 21.099 5.211 14.096 6.547 19.206 16.879 19.239 16.968.668 1.414 2.071 2.249 3.529 2.249.557 0 1.125-.122 1.659-.367 1.947-.925 2.783-3.241 1.87-5.189z" fill="#3e4e60"/><path d="m401.504 374.973c.913 1.948.078 4.264-1.871 5.188-.534.245-1.102.367-1.659.367-1.459 0-2.861-.835-3.529-2.249-.033-.089-5.144-10.421-19.239-16.968-6.235-2.895-13.305-4.632-21.099-5.211-.59-2.628-1.08-5.289-1.436-7.994 9.709.512 18.516 2.65 26.398 6.413 16.367 7.817 22.19 19.941 22.435 20.454z" fill="#3f5d77"/></g><g><path d="m419.879 327.213c-.365-.435-9.037-10.716-26.839-14.188-8.574-1.671-17.635-1.537-27.163.397-16.257 3.305-33.864 11.846-52.621 25.548-1.729 1.275-2.112 3.708-.845 5.451 1.275 1.729 3.708 2.112 5.451.845 18.3-13.377 35.717-21.628 51.406-24.464 7.691-1.39 14.97-1.477 21.731-.235 15.285 2.811 22.818 11.536 22.873 11.614 1.001 1.202 2.568 1.659 3.98 1.294.539-.139 1.058-.4 1.514-.771 1.655-1.381 1.884-3.833.513-5.491z" fill="#3e4e60"/><path d="m419.879 327.213c1.371 1.658 1.142 4.109-.513 5.491-.456.371-.975.632-1.514.771-1.412.365-2.979-.092-3.98-1.294-.055-.078-7.588-8.803-22.873-11.614-6.761-1.243-14.041-1.155-21.731.235-1.229-2.396-2.369-4.85-3.391-7.38 9.528-1.934 18.59-2.068 27.163-.397 17.802 3.472 26.474 13.754 26.839 14.188z" fill="#3f5d77"/></g></g><g><g><path d="m112.368 380.161c.534.245 1.102.367 1.659.367 1.459 0 2.861-.835 3.529-2.249.033-.089 5.144-10.421 19.239-16.968 6.235-2.895 13.305-4.632 21.099-5.211 15.899-1.18 34.827 2.449 55.892 10.822 2.004.791 4.264-.189 5.066-2.182.791-2.004-.189-4.264-2.182-5.066-21.589-8.573-40.772-12.437-57.339-11.568-9.709.512-18.516 2.65-26.398 6.413-16.367 7.816-22.19 19.941-22.435 20.453-.913 1.949-.078 4.265 1.87 5.189z" fill="#334353"/><path d="m110.498 374.973c-.913 1.948-.078 4.264 1.871 5.188.534.245 1.102.367 1.659.367 1.459 0 2.861-.835 3.529-2.249.033-.089 5.144-10.421 19.239-16.968 6.235-2.895 13.305-4.632 21.099-5.211.59-2.628 1.08-5.289 1.436-7.994-9.709.512-18.516 2.65-26.398 6.413-16.367 7.817-22.19 19.941-22.435 20.454z" fill="#3e4e60"/></g><g><path d="m92.635 332.705c.456.371.975.632 1.514.771 1.412.365 2.979-.092 3.98-1.294.055-.078 7.588-8.803 22.873-11.614 6.761-1.243 14.041-1.155 21.731.235 15.689 2.836 33.106 11.086 51.406 24.464 1.743 1.267 4.176.884 5.451-.845 1.267-1.743.884-4.176-.845-5.451-18.757-13.702-36.363-22.243-52.621-25.548-9.528-1.934-18.59-2.068-27.163-.397-17.802 3.472-26.474 13.754-26.839 14.188-1.371 1.657-1.142 4.109.513 5.491z" fill="#334353"/><path d="m92.123 327.213c-1.371 1.658-1.142 4.109.513 5.491.456.371.975.632 1.514.771 1.412.365 2.979-.092 3.98-1.294.055-.078 7.588-8.803 22.873-11.614 6.761-1.243 14.041-1.155 21.731.235 1.229-2.396 2.369-4.85 3.391-7.38-9.528-1.934-18.59-2.068-27.163-.397-17.802 3.472-26.474 13.754-26.839 14.188z" fill="#3e4e60"/></g></g></g></g></g></g></svg>