<svg id="Icons" enable-background="new 0 0 512 512" height="512" viewBox="0 0 512 512" width="512" xmlns="http://www.w3.org/2000/svg"><g><circle cx="256" cy="256" fill="#ee6781" r="256"/><g><g><path d="m483.79 166.29-.01 5.96-.01 2.21-.27 109.77-.01 2.21-.01 6.01c-.01 3.25-4.3 4.4-5.93 1.59l-23.28-42.87c-3.65-6.72-5.55-14.25-5.53-21.89.01-3.82.5-7.61 1.45-11.28.95-3.68 2.35-7.23 4.19-10.58l23.49-42.75c1.64-2.8 5.93-1.63 5.92 1.62z" fill="#9175a7"/><path d="m483.78 172.25-.01 2.21-.27 109.77-.01 2.21-19.15-35.27c-3.65-6.72-5.55-14.25-5.53-21.89.01-3.82.5-7.61 1.44-11.28.95-3.68 2.35-7.23 4.19-10.58z" fill="#746087"/></g><g><path d="m468.51 226.73v.1c0 3.58-1.8 6.93-4.82 8.87-23.92 15.49-131.13 81.99-214.62 86.56-2.54.15-5.06.23-7.55.25-26.89.24-55.56-4.21-82.86-10.72h-.01c-15.67-3.38-55.13-4.44-73.19-4.75-6.01-.1-11.76-2.45-16.13-6.58l-.92-.87c-2.86-2.7-1.85-7.48 1.87-8.79l6.26-2.21c1.27-.44 1.29-2.23.04-2.71-14.41-5.56-26.36-10.68-34.72-14.41-8.45-3.77-15.41-10.21-19.84-18.33l-3.39-6.21c-3.13-5.76-.52-12.92 5.56-15.39 65.17-26.58 150.24-26.47 243.18-27.27 14.34-.13 28.78.07 42.97.48 65.8 1.95 126.43 8.79 148.89 11.57 5.27.65 9.24 5.11 9.28 10.41z" fill="#9175a7"/><path d="m313.89 228.79c0 37.36-25.12 70.84-64.82 93.47-2.54.15-5.06.23-7.55.25-26.89.24-55.56-4.21-82.86-10.72h-.01c-6.66-1.44-17.63-2.46-29.42-3.18-15.94-.97-33.39-1.39-43.77-1.57-6.01-.1-11.76-2.45-16.13-6.58l-.92-.87c-2.86-2.7-1.85-7.48 1.87-8.79l6.26-2.21c1.27-.44 1.29-2.23.04-2.71-14.41-5.56-26.36-10.68-34.72-14.41-8.45-3.77-15.41-10.21-19.84-18.33l-3.39-6.21c-3.13-5.76-.52-12.92 5.56-15.39 9.45-3.85 19.31-7.15 29.56-9.96 60.44-16.61 134.15-16.63 213.62-17.31 14.34-.13 28.78.07 42.97.48 2.33 7.78 3.55 15.81 3.55 24.04z" fill="#a583bb"/><path d="m129.23 308.61c-15.94-.97-33.39-1.39-43.77-1.57-6.01-.1-11.76-2.45-16.13-6.58l-.92-.87c-2.86-2.7-1.85-7.48 1.87-8.79l6.26-2.21c1.27-.44 1.29-2.23.04-2.71-14.41-5.56-26.36-10.68-34.72-14.41-8.45-3.77-15.41-10.21-19.84-18.33l-3.39-6.21c-3.13-5.76-.52-12.92 5.56-15.39 9.45-3.85 19.31-7.15 29.56-9.96 26.76 38.62 54.94 67.99 75.48 87.03z" fill="#9175a7"/><path d="m468.51 226.73v.1c0 3.58-1.8 6.93-4.82 8.87-17.1 11.07-76.78 48.22-139.92 70.17-25.17 8.76-50.9 15.09-74.7 16.4-2.54.14-5.06.22-7.55.24-12.57.11-25.53-.8-38.56-2.47-14.84-1.9-29.77-4.78-44.31-8.25 0 0 0 0 0-.01-15.67-3.37-55.13-4.43-73.2-4.74-6.01-.11-11.75-2.45-16.12-6.58l-.92-.87c-1.29-1.22-1.8-2.88-1.61-4.44.14-1.09.59-2.13 1.35-2.96.56-.6 1.26-1.09 2.13-1.39l6.27-2.21c1.18-.42 1.27-2.01.25-2.6-.01 0-.03-.01-.04-.01-.05-.04-.11-.07-.18-.1-.82-.31-1.62-.62-2.43-.94 0 0 0 0-.01 0-13.32-5.2-24.4-9.95-32.28-13.47-8.45-3.77-15.41-10.21-19.84-18.33 41.6 4.12 61.25 10.12 70.53 14.91 5.68 2.94 12.52 2.22 17.44-1.87 6.02-5.01 14.53-9.72 24.02-7.86 2.07.4 4.19 1.12 6.34 2.22 13.28 6.81 34.9 18.84 49.21 26.89 7.42 4.18 16.59 3.12 23.08-2.4 9.38-7.98 28.21-17.57 64.5-17.57h83.11c.17 0 .35 0 .52-.02 4.28-.21 7.99-3.08 9.28-7.2 2.85-9.09 10.72-23.55 32.04-23.55 31.11 0 66.42-9.96 66.42-9.96z" fill="#f4e6f4"/><path d="m304.53 267.46c-10.71 21.48-30.12 40.35-55.46 54.81-2.54.14-5.06.22-7.55.24-12.57.11-25.53-.8-38.56-2.47-14.84-1.9-29.77-4.78-44.31-8.25 0 0 0 0 0-.01-6.66-1.43-17.63-2.45-29.42-3.17-15.94-.97-33.39-1.39-43.78-1.57-6.01-.11-11.75-2.45-16.12-6.58l-.92-.87c-1.29-1.22-1.8-2.88-1.61-4.44.14-1.09.59-2.13 1.35-2.96.56-.6 1.26-1.09 2.13-1.39l6.27-2.21c1.18-.42 1.27-2.01.25-2.6-.01 0-.03-.01-.04-.01-.05-.04-.11-.07-.18-.1-.82-.31-1.62-.62-2.43-.94 0 0 0 0-.01 0-13.32-5.2-24.4-9.95-32.28-13.47-8.45-3.77-15.41-10.21-19.84-18.33 36.04 3.57 55.6 8.55 66.22 12.93 1.64.68 3.07 1.34 4.31 1.98 5.68 2.94 12.52 2.22 17.44-1.87 6.02-5.01 14.53-9.72 24.02-7.86 2.07.4 4.19 1.12 6.34 2.22 13.28 6.81 34.9 18.84 49.21 26.89 7.42 4.18 16.59 3.12 23.08-2.4 9.38-7.98 28.21-17.57 64.5-17.57z" fill="#fff"/><path d="m129.23 308.61c-15.94-.97-33.39-1.39-43.78-1.57-6.01-.11-11.75-2.45-16.12-6.58l-.92-.87c-1.29-1.22-1.8-2.88-1.61-4.44.14-1.09.59-2.13 1.35-2.96.56-.6 1.26-1.09 2.13-1.39l6.27-2.21c1.18-.42 1.27-2.01.25-2.6-.01 0-.03-.01-.04-.01-.05-.04-.11-.07-.18-.1-.82-.31-1.62-.62-2.43-.94 0 0 0 0-.01 0-13.32-5.2-24.4-9.95-32.28-13.47-8.45-3.77-15.41-10.21-19.84-18.33 36.04 3.57 55.6 8.55 66.22 12.93 15.03 17.42 29.26 31.66 40.99 42.54z" fill="#f4e6f4"/><path d="m284.763 217.14h-120.337c-5.296 0-9.59 4.294-9.59 9.59 0 5.296 4.294 9.59 9.59 9.59h120.337c5.296 0 9.59-4.294 9.59-9.59 0-5.296-4.293-9.59-9.59-9.59z" fill="#c2aacf"/><path d="m244.41 236.32h-62.156c-5.296 0-9.59-4.294-9.59-9.59 0-5.296 4.294-9.59 9.59-9.59h62.156c5.296 0 9.59 4.294 9.59 9.59 0 5.296-4.294 9.59-9.59 9.59z" fill="#f4e6f4"/><path d="m88.382 300.502c-8.678 4.555-20.229-8.314-20.229-8.314.557-.602 1.261-1.09 2.124-1.386l6.27-2.215c1.181-.42 1.272-2.01.25-2.601 13.891 4.998 20.24 9.962 11.585 14.516z" fill="#746087"/><g><path d="m79.56 247.54c-.1.28-.22.56-.35.84-.53 1.15-1.27 2.22-2.21 3.16-4.33 4.33-11.36 4.33-15.69 0s-4.32-11.35 0-15.68c.19-.18.37-.36.57-.52 1.04-.91 2.21-1.59 3.44-2.05 3.93-1.44 8.52-.59 11.68 2.57 3.15 3.15 4.01 7.74 2.56 11.68z" fill="#c2aacf"/><path d="m79.56 247.54c-.1.28-.22.56-.35.84-.96.2-1.95.31-2.97.31-7.6 0-13.83-5.88-14.36-13.35 1.04-.91 2.21-1.59 3.44-2.05 3.93-1.44 8.52-.59 11.68 2.57 3.15 3.15 4.01 7.74 2.56 11.68z" fill="#f4e6f4"/><path d="m76.163 243.701c0 3.018-1.914 5.595-4.592 6.583-.756.27-1.567.424-2.416.424-3.874 0-7.008-3.141-7.008-7.008 0-3.874 3.133-7.008 7.008-7.008.849 0 1.659.154 2.416.424 2.678.99 4.592 3.56 4.592 6.585z" fill="#3f5d77"/><ellipse cx="71.571" cy="243.701" fill="#2e3140" rx="4.592" ry="6.583"/><circle cx="69.154" cy="242.047" fill="#83d5ef" r="3.454"/></g></g><g><path d="m295.59 367.56c-5.35.6-12.48 1.03-21.93 1.03-47.39 0-92.22-52.1-80.2-58.32 4.57-2.36 10.79-3.65 17.79-4.19 18.37-1.46 42.12 2.16 55.66 4.67 4.25.79 6.33 5.53 4.2 9.29-1.85 3.29-3.37 7.84-3.37 13.92 0 9.68 16.71 19 29.26 24.64 1.41.63 2.25 1.73 2.59 2.95.72 2.56-.78 5.64-4 6.01z" fill="#a583bb"/><path d="m299.59 361.55c-2.65-.01-5.53-.07-8.67-.2-39.66-1.58-76.09-39.59-79.67-55.27 18.37-1.46 42.12 2.16 55.66 4.67 4.25.79 6.33 5.53 4.2 9.29-1.85 3.29-3.37 7.84-3.37 13.92 0 9.68 16.71 19 29.26 24.64 1.41.63 2.25 1.73 2.59 2.95z" fill="#9175a7"/></g><g><path d="m421.69 283.18c-8.61.25-24.73.09-34.51-3.91-1.98-.81-2.56-3.3-1.15-4.89 1.67-1.89 4.31-4.42 8.15-6.99 2.75-1.84 6.13-3.71 10.22-5.36 7.03-2.84 11.67-3.37 14.65-3.1 2.41.21 3.66 2.93 2.23 4.88-1.58 2.16-3.31 4.99-3.2 6.87.07 1.27 1.4 3.29 3.04 5.31.77.96 1.61 1.92 2.42 2.8 1.52 1.66.4 4.32-1.85 4.39z" fill="#9175a7"/><path d="m421.28 263.81c-1.58 2.16-3.31 4.99-3.2 6.87.07 1.27 1.4 3.29 3.04 5.31-7.78-1.55-19.06-4.34-26.94-8.6 2.75-1.84 6.13-3.71 10.22-5.36 7.03-2.84 11.67-3.37 14.65-3.1 2.41.21 3.66 2.93 2.23 4.88z" fill="#746087"/></g><g><g><path d="m313.89 204.86-70.54-.02-28.95-.01c3.18-6.52 6.97-12.46 11.15-17.86 13.05-16.88 29.82-28.43 43.13-35.71 4.37-2.39 8.38-4.32 11.75-5.83 4.51-2.01 9.39 1.95 8.36 6.78l-.24 1.11-5.91 27.77c-1.06 4.97 1.46 10.01 6.07 12.14z" fill="#9175a7"/><path d="m313.89 204.86-70.54-.02c2.99-23.63 20.88-43.29 45.2-51.52l-5.91 27.77c-1.06 4.97 1.46 10.01 6.07 12.14z" fill="#746087"/></g><path d="m268.68 151.26c-10.58 18.1-24.39 31.48-33.35 39.03-3.54 2.98-8.86 1.01-9.78-3.32 13.05-16.88 29.82-28.43 43.13-35.71z" fill="#a583bb"/></g></g></g></svg>