<svg id="Icons" enable-background="new 0 0 512 512" height="512" viewBox="0 0 512 512" width="512" xmlns="http://www.w3.org/2000/svg"><g><circle cx="256" cy="256" fill="#6c53a2" r="256"/><g><g><g><path d="m362.507 298.698-6.059 2.211-61.591 22.483-9.114 3.32c37.724 15.219 53.976 14.694 67.639 9.993 35.903-12.365 9.125-38.007 9.125-38.007z" fill="#dd5e26"/><path d="m372.064 319.014c.756-10.446-9.556-20.316-9.556-20.316l-6.059 2.211c2.918 3.99 6.38 10.478 4.038 16.706-1.601 4.29-5.949 8.453-15.095 11.591-7.132 2.461-15.092 3.573-27.618 1.048-6.318-1.265-13.794-3.454-22.916-6.862l-9.114 3.32c10.426 4.209 19.216 7.211 26.759 9.253 19.753 5.354 30.991 4.145 40.88.74 13.621-4.692 18.223-11.296 18.681-17.691z" fill="#2e3140"/><path d="m372.064 319.014c-3.68-.732-7.522-1.211-11.488-1.395l-.09-.004c-1.601 4.29-5.949 8.453-15.095 11.591-7.132 2.461-15.092 3.573-27.618 1.048-2.044 1.757-3.805 3.677-5.271 5.711 19.753 5.354 30.991 4.145 40.88.74 13.622-4.692 18.224-11.296 18.682-17.691z" fill="#3f5d77"/></g><g><path d="m372.15 216.38-5.95-2.49-60.48-25.32-8.95-3.74c38.39-13.45 54.6-12.17 68.03-6.84 35.29 14.02 7.35 38.39 7.35 38.39z" fill="#dd5e26"/><path d="m382.64 196.53c.27 10.47-10.49 19.85-10.49 19.85l-5.95-2.49c3.1-3.85 6.86-10.17 4.81-16.5-1.4-4.36-5.55-8.72-14.54-12.28-7.01-2.79-14.91-4.27-27.54-2.33-6.37.97-13.94 2.81-23.21 5.79l-8.95-3.74c10.61-3.72 19.53-6.31 27.16-8 19.98-4.43 31.15-2.7 40.87 1.16 13.39 5.32 17.68 12.13 17.84 18.54z" fill="#2e3140"/><path d="m382.64 196.53c-3.71.56-7.57.86-11.54.86h-.09c-1.4-4.36-5.55-8.72-14.54-12.28-7.01-2.79-14.91-4.27-27.54-2.33-1.96-1.85-3.63-3.85-5-5.95 19.98-4.43 31.15-2.7 40.87 1.16 13.39 5.32 17.68 12.13 17.84 18.54z" fill="#3f5d77"/></g></g><g><g><g><path d="m487.14 258.87c0 13.44-4.65 25.61-12.3 35.17-13.27 16.56-34.78 23.58-55.12 19.36-3.15-.65-6.27-1.58-9.33-2.78l-17.33-6.8-20.91-8.2-7.7 4.05c-13.67 7.18-27.73 13.49-42.12 18.9 0 0 0 .01-.01.01 0 0 0 .01-.01.01-13.3 5.01-26.87 9.26-40.64 12.72-20.54 5.18-41.53 8.61-62.76 10.24l-30.97 2.38c-14.3 1.1-28.61-2.08-41.1-9.14l-19.05-10.77-49.96-28.23c-11.11-6.28-17.98-18.06-17.98-30.82v-17.94c0-12.76 6.87-24.54 17.98-30.82l8.88-5.02 34.46-19.47 25.67-14.51c1.47-.83 2.97-1.61 4.49-2.33h.01c11.37-5.42 23.99-7.78 36.6-6.81l30.97 2.38c26.46 2.03 52.55 6.87 77.86 14.38 11.42 3.38 22.67 7.31 33.73 11.78 11.55 4.66 22.88 9.91 33.95 15.72l7.7 4.05 20.91-5.64c0-.01 0-.01 0-.01l23.72-6.4c1.41-.38 2.83-.72 4.26-.99h.01c.49-.09.98-.18 1.48-.25 2.81-.42 5.59-.62 8.34-.62 22.38 0 42.37 13.41 51.31 33.21 3.18 7.03 4.96 14.86 4.96 23.19z" fill="#dd5e26"/><path d="m482.18 235.68c-4.66 2.78-9.49 5.46-14.47 8.01-25.51 13.13-55.13 23.29-87.47 29.64-6.03 1.2-12.16 2.25-18.38 3.16-17.38 2.57-35.43 4.05-53.96 4.34-2.2.03-4.41.05-6.63.05-19.17 0-37.86-1.28-55.85-3.72-13.99-1.89-27.56-4.48-40.62-7.7-14.14-3.49-27.67-7.72-40.47-12.62-30.67-11.75-57.12-27.33-77.62-45.65l34.46-19.47 25.67-14.51c1.47-.83 2.97-1.61 4.49-2.33h.01c11.37-5.42 23.99-7.78 36.6-6.81l30.97 2.38c26.46 2.03 52.55 6.87 77.86 14.38 11.42 3.38 22.67 7.31 33.73 11.78 11.55 4.66 22.88 9.91 33.95 15.72l7.7 4.05 20.91-5.64c0-.01 0-.01 0-.01l23.72-6.4c1.42-.38 2.84-.72 4.27-.99.49-.09.98-.18 1.48-.25 2.81-.42 5.59-.62 8.34-.62 22.38 0 42.37 13.41 51.31 33.21z" fill="#ea792e"/></g><path d="m205.84 258.87c0 45.95-59 75.92-59 75.92l-19.05-10.77 1.4-1.5c56.95-56.95 38.14-84.65-8.02-130.8l25.67-14.51c1.47-.83 2.97-1.61 4.49-2.33h.01s54.5 38.04 54.5 83.99z" fill="#f4e6f4"/><path d="m205.84 258.87c0 3.63-.37 7.16-1.04 10.59-14.14-3.49-27.67-7.72-40.47-12.62-1.81-21.27-18.62-40.59-43.16-65.12l25.67-14.51c1.47-.83 2.97-1.61 4.49-2.33h.01s54.5 38.04 54.5 83.99z" fill="#fff"/><path d="m306.51 263.37c0 34.49 15.82 55.2 15.82 55.2s0 .01-.01.01c0 0 0 .01-.01.01-13.3 5.01-26.87 9.26-40.64 12.72 0-49.33-46.02-38.49-46.02-80.67s32.35-3.26 61.12-65.81c11.42 3.38 22.67 7.31 33.73 11.78 0 0-23.99 32.28-23.99 66.76z" fill="#f4e6f4"/><path d="m306.51 263.37c0 6.29.53 12.13 1.39 17.46-2.2.03-4.41.05-6.63.05-19.17 0-37.86-1.28-55.85-3.72-5.71-6.14-9.77-13.99-9.77-26.52 0-42.18 32.35-3.26 61.12-65.81 11.42 3.38 22.67 7.31 33.73 11.78 0 0-23.99 32.28-23.99 66.76z" fill="#fff"/><path d="m378.5 258.07c0 24.68 14.56 45.75 14.56 45.75l-20.91-8.2s-13.02-9.96-13.02-42.05 13.02-37.19 13.02-37.19l20.91-5.64c-.39.6-14.56 22.98-14.56 47.33z" fill="#f4e6f4"/><path d="m378.5 258.07c0 5.31.67 10.45 1.74 15.26-6.03 1.2-12.16 2.25-18.38 3.16-1.6-5.92-2.73-13.46-2.73-22.92 0-32.09 13.02-37.19 13.02-37.19l20.91-5.64c-.39.6-14.56 22.98-14.56 47.33z" fill="#fff"/><g><path d="m487.14 258.87c0 13.44-4.65 25.61-12.3 35.17-13.27 16.56-34.78 23.58-55.12 19.36 31.41-14.05 50.91-33.65 50.91-55.33 0-21.37-18.95-40.73-49.58-54.73.49-.09.98-.18 1.48-.25 2.81-.42 5.59-.62 8.34-.62 22.38 0 42.37 13.41 51.31 33.21 3.18 7.03 4.96 14.86 4.96 23.19z" fill="#2e3140"/><path d="m482.18 235.68c-4.66 2.78-9.49 5.46-14.47 8.01-6.41-15.61-23.07-29.57-46.66-40.35.49-.09.98-.18 1.48-.25 2.81-.42 5.59-.62 8.34-.62 22.38 0 42.37 13.41 51.31 33.21z" fill="#3f5d77"/></g><g><path d="m112.341 289.341c-14.348 0-22.351-5.671-29.412-10.675-6.585-4.666-12.271-8.696-23.08-8.696-2.761 0-5-2.238-5-5s2.239-5 5-5c13.992 0 21.892 5.599 28.862 10.537 6.688 4.74 12.465 8.834 23.629 8.834 4.767 0 14.35-4.221 19.271-6.882 2.43-1.313 5.463-.41 6.776 2.019 1.314 2.428.413 5.461-2.015 6.775-1.527.828-15.186 8.088-24.031 8.088z" fill="#ea792e"/></g><path d="m205.259 185.831 55.618 9.422c5.099.864 6.946 7.235 3.099 10.692-6.163 5.538-14.516 7.961-22.686 6.581l-23.17-3.914c-7.797-1.317-14.633-5.965-18.724-12.731l-.458-.757c-2.738-4.527 1.106-10.177 6.321-9.293z" fill="#f39e22"/></g><g><path d="m127.938 248.532c-.183.514-.404 1.028-.642 1.541-.973 2.111-2.331 4.075-4.056 5.8-7.947 7.947-20.848 7.947-28.795 0s-7.928-20.83 0-28.777c.349-.33.679-.66 1.046-.954 1.909-1.67 4.056-2.918 6.313-3.762 7.213-2.643 15.636-1.083 21.436 4.716 5.781 5.781 7.359 14.205 4.698 21.436z" fill="#ea792e"/><path d="m127.938 248.532c-.183.514-.404 1.028-.642 1.541-1.762.367-3.579.569-5.451.569-13.948 0-25.382-10.791-26.354-24.501 1.909-1.67 4.056-2.918 6.313-3.762 7.213-2.643 15.636-1.083 21.436 4.716 5.781 5.782 7.359 14.206 4.698 21.437z" fill="#f39e22"/><path d="m121.704 241.486c0 5.538-3.513 10.269-8.427 12.082-1.388.496-2.875.779-4.433.779-7.11 0-12.861-5.765-12.861-12.861 0-7.11 5.751-12.861 12.861-12.861 1.558 0 3.045.283 4.433.779 4.914 1.814 8.427 6.53 8.427 12.082z" fill="#3f5d77"/><ellipse cx="113.277" cy="241.486" fill="#2e3140" rx="8.427" ry="12.082"/><circle cx="108.84" cy="238.452" fill="#83d5ef" r="6.339"/></g><g><g><g><path d="m244.88 318.97c-.26 2.23-.95 4.35-2.02 6.27-1.06 1.91-2.5 3.62-4.26 5l-29.21 22.97c-2.72 2.15-6.28 2.92-9.65 2.09l-6.27-1.53-17.93-4.39c-2.25-.55-4.27-1.78-5.8-3.53l-30.64-35.01c-2.66-3.04-3.49-7.26-2.18-11.08.64-1.88 1.75-3.52 3.19-4.79s3.21-2.18 5.15-2.59l40.43-8.51 9.93-2.09c2.76-.58 5.64-.1 8.07 1.33l33.08 19.58c5.68 3.36 8.85 9.73 8.11 16.28z" fill="#ea792e"/></g><g><path d="m147.118 303.669c-1.69 0-3.177-1.228-3.452-2.949-.305-1.909.996-3.703 2.904-4.008l38.568-6.157c1.907-.312 3.703.995 4.008 2.904s-.996 3.703-2.904 4.008l-38.568 6.157c-.187.03-.373.045-.556.045z" fill="#f39e22"/></g><g><path d="m156.471 313.77c-1.908 0-3.469-1.531-3.499-3.445-.03-1.933 1.512-3.524 3.445-3.555l53.427-.836c1.948.008 3.524 1.513 3.554 3.445s-1.512 3.524-3.445 3.555l-53.427.836c-.018 0-.036 0-.055 0z" fill="#f39e22"/></g><g><path d="m203.365 331.039c-.155 0-.312-.01-.47-.031l-40.632-5.458c-1.916-.257-3.26-2.019-3.003-3.935s2.021-3.262 3.935-3.003l40.632 5.458c1.916.257 3.26 2.019 3.003 3.935-.236 1.758-1.739 3.034-3.465 3.034z" fill="#f39e22"/></g><g><path d="m192.299 344.451c-.26 0-.524-.029-.788-.09l-21.123-4.861c-1.884-.434-3.059-2.312-2.625-4.196.433-1.883 2.311-3.059 4.196-2.626l21.123 4.861c1.884.434 3.059 2.312 2.625 4.196-.373 1.619-1.813 2.716-3.408 2.716z" fill="#f39e22"/></g></g><path d="m244.88 318.97c-.26 2.23-.95 4.35-2.02 6.27-.11.19-.22.38-.34.57-1.01 1.68-2.34 3.19-3.92 4.43l-29.21 22.97c-2.72 2.15-6.28 2.92-9.65 2.09l-6.27-1.53 28.23-22.22c2.65-2.07 4.58-4.88 5.59-8.03.33-1.04.57-2.12.69-3.23.07-.64.11-1.27.11-1.9 0-5.86-3.09-11.35-8.21-14.38l-33.09-19.58c-.36-.21-.72-.4-1.1-.56l9.93-2.09c2.76-.58 5.64-.1 8.07 1.33l33.08 19.58c5.68 3.36 8.85 9.73 8.11 16.28z" fill="#2e3140"/><path d="m244.88 318.97c-.26 2.23-.95 4.35-2.02 6.27-.11.19-.22.38-.34.57-5.24-.43-10.32-1.21-15.23-2.29.33-1.04.57-2.12.69-3.23.07-.64.11-1.27.11-1.9 0-5.86-3.09-11.35-8.21-14.38l-33.09-19.58c-.36-.21-.72-.4-1.1-.56l9.93-2.09c2.76-.58 5.64-.1 8.07 1.33l33.08 19.58c5.68 3.36 8.85 9.73 8.11 16.28z" fill="#3f5d77"/></g></g><g><path d="m296.77 184.83-10.97-1.69-91.56-14.1-6.3-.97c16.21-29.52 24.69-37.35 51.76-31.15s57.07 47.91 57.07 47.91z" fill="#ea792e"/><path d="m296.77 184.83-10.97-1.69c-3.95-4.51-8.76-9.65-14.08-14.56-9.71-8.99-21.1-17.27-32.02-19.77-10.81-2.47-18.66-2.71-25.22-.21-7.61 2.89-13.48 9.45-20.24 20.44l-6.3-.97c7.05-12.85 12.65-21.59 18.94-26.84 8.17-6.84 17.53-7.81 32.82-4.31 16 3.66 33.02 19.73 44.27 32.26 7.78 8.67 12.8 15.65 12.8 15.65z" fill="#2e3140"/><path d="m283.97 169.18c-4.17-.03-8.26-.24-12.25-.6-9.71-8.99-21.1-17.27-32.02-19.77-10.81-2.47-18.66-2.71-25.22-.21-2.92-2.31-5.46-4.78-7.6-7.37 8.17-6.84 17.53-7.81 32.82-4.31 16 3.66 33.02 19.73 44.27 32.26z" fill="#3f5d77"/><g><g><path d="m211.996 173.42c-.569 0-1.145-.139-1.679-.432-1.695-.929-2.316-3.056-1.388-4.751l8.082-14.753c.929-1.695 3.057-2.317 4.751-1.388 1.695.929 2.316 3.056 1.388 4.751l-8.082 14.753c-.636 1.162-1.836 1.82-3.072 1.82z" fill="#f39e22"/></g><g><path d="m229.643 177.993c-.569 0-1.147-.14-1.681-.433-1.694-.931-2.314-3.058-1.384-4.752l10.259-18.691c.932-1.696 3.06-2.313 4.752-1.385 1.694.931 2.314 3.058 1.384 4.752l-10.259 18.691c-.637 1.162-1.836 1.818-3.071 1.818z" fill="#f39e22"/></g><g><path d="m247.512 181.899c-.515 0-1.037-.114-1.531-.354-1.737-.847-2.46-2.941-1.613-4.68l6.457-13.252c.848-1.737 2.944-2.457 4.68-1.613 1.737.847 2.46 2.941 1.613 4.68l-6.457 13.252c-.606 1.244-1.852 1.967-3.149 1.967z" fill="#f39e22"/></g><g><path d="m262.962 185.82c-.494 0-.996-.105-1.473-.327-1.753-.815-2.513-2.896-1.698-4.649l3.459-7.439c.815-1.753 2.896-2.514 4.649-1.698 1.753.815 2.513 2.896 1.698 4.649l-3.459 7.439c-.593 1.275-1.856 2.025-3.176 2.025z" fill="#f39e22"/></g></g></g></g></g></svg>