<svg id="Icons" enable-background="new 0 0 512 512" height="512" viewBox="0 0 512 512" width="512" xmlns="http://www.w3.org/2000/svg"><g><circle cx="256" cy="256" fill="#53b976" r="256"/><g><g><path d="m417.21 215.18c-2.3-1.53-4.87-2.31-7.44-2.41-.368-3.562-1.435-7.297-3.06-10.52 3-2.66 4.9-6.53 4.9-10.86-.28-16.1-21.97-19.9-27.93-5.41-2.526-.443-15.712-.17-18.51-.24-4.46-12.32-22.57-12.32-27.03 0h-16.57c-.298-9.204-10.011-15.834-18.74-12.98l-5.04-15.53c11.864-8.604 4.976-26.792-8.54-26.27-.648-1.87-4.946-15.574-5.66-17.04 5.67-4.42 7.86-12.96 3.31-19.6-7.53-10.58-20.97-6.96-25.25 1.93-3.717-.718-7.839-.697-11.55.05-4.64-9.48-19.65-12.1-26.05-.17-3.37 6.44-1.02 14.02 4.23 18.09-.519 1.04-5.116 15.561-5.63 17.04-13.547-.51-20.382 17.672-8.53 26.27l-5.03 15.45c-8.7-3.016-18.594 3.767-18.89 12.76h-16.65c-4.46-12.32-22.57-12.32-27.03 0-3.101.081-15.661-.234-18.5.28-2.15-5.31-7.35-9.06-13.43-9.06-13.343-.096-19.643 17.017-9.41 25.54-1.624 3.252-2.651 7.012-2.99 10.58-4.38.24-8.65 2.34-11.21 6.36-9.176 14.19 8.977 29.86 21.51 19.02 1.019.978 12.406 9.094 13.8 10.15-6.232 14.318 11.348 27.244 23.01 16.72l12.87 9.35c-6.618 7.144-3.649 20.109 6.3 23.31l-5.03 15.51c-13.537-.514-20.402 17.665-8.54 26.27-1.026 3.469-4.76 13.698-5.15 17.14-5.94-.07-11.93 3.32-14.08 10.92-3.322 13.189 12.067 23.332 22.82 15.08 2.43 2.35 5.22 4.26 8.23 5.68-3.09 8.68 2.84 19.43 13.66 19.46 10.066.227 17.598-10.926 13.3-20.26 2.495-1.199 11.574-8.157 14-9.83 11.704 10.585 29.236-2.47 23-16.71l12.93-9.4c5.39 9.397 19.441 9.425 24.87.07l13.09 9.51c-6.233 14.244 11.296 27.29 23 16.71 2.643 1.827 11.267 8.48 14.01 9.8-4.15 9.27 3.06 20.4 13.34 20.23 10.078.157 17.17-10.512 13.59-19.69 3-1.45 5.77-3.39 8.18-5.76 9.969 7.638 24.599-1.117 22.94-13.38-1.26-8.61-7.86-12.74-14.42-12.71-.394-3.198-4.246-13.907-5.21-17.15 11.611-8.355 5.421-26.641-8.53-26.27l-.22-.68-4.8-14.78c10.012-3.058 13.13-16.066 6.6-23.23l12.9-9.37c11.677 10.521 29.239-2.401 23.01-16.72 1.676-1.272 12.471-8.917 13.77-10.17 15.814 12.616 33.965-10.96 17.48-23.08zm-18.46 1.98c-3.37 3.46-4.51 7.84-3.94 11.95-1.777 2.269-13.574 10.237-16.01 12.16-10.311-4.845-22.023 3.981-20.42 14.84l-18.48 13.43c-15.315-1.182-21.706 19.996-7.21 27.48 1.525 4.685 4.923 15.13 6.41 19.72-9.367 7.716-4.777 24.226 8.24 25.37.998 3.551 5.199 14.507 5.24 18.05-3.413 2.736-5.727 8.771-4.54 13.95-2.58 3.08-6.06 5.39-9.92 6.55-3.73-1.76-8.16-2.04-12.08-.31-3.913-1.083-13.419-8.949-16.89-11.25 1.611-10.929-10.212-19.669-20.44-14.84l-18.52-13.46c-3.784-14.312-24.307-14.396-28.22-.12l-18.44 13.4c-10.225-4.825-22.052 3.935-20.43 14.85-3.46 2.29-13.11 10.228-16.97 11.36-3.88-1.66-8.44-1.71-12.37.33-3.81-1.16-7.24-3.45-9.8-6.5 1.061-5.565-1.168-10.792-4.57-13.61-.029-3.697 4.14-14.434 5.17-18.11 13.028-1.149 17.617-17.664 8.24-25.36l6.37-19.61c14.652-7.262 8.601-28.47-6.67-27.61l-18.63-13.53c1.6-10.856-10.129-19.685-20.42-14.84-2.329-1.834-14.342-10.014-16.05-12.11.828-4.645-1.386-10.22-5.33-13.21-.03-3.55.87-7.07 2.58-10.17 6.22.01 11.74-4.13 13.68-9.89 2.501-.61 15.257-.233 18.04-.33 4.553 12.827 22.779 12.827 27.33 0h19.58c11.46 13.81 32.015-.232 24.11-15.94l6.38-19.64c13.038-1.15 17.611-17.661 8.25-25.37.628-1.743 5.161-16.411 5.92-17.67 5.876-.313 11.654-4.763 13.05-10.77 3.252-.83 6.679-.831 9.94-.03 1.507 5.903 7.076 10.207 13 10.52.907 1.503 5.254 15.71 5.96 17.66-9.385 7.71-4.776 24.221 8.24 25.37l6.35 19.54c-8.335 15.715 12.483 29.86 23.84 16.33h19.67c4.553 12.827 22.779 12.827 27.33 0 2.643.088 15.718-.244 18.06.27 1.972 5.673 7.463 10.091 13.93 9.87 1.73 3.11 2.64 6.64 2.62 10.2-.41.34-.81.69-1.18 1.08z" fill="#fbcb74"/><path d="m409.17 241.76c-3.77.01-6.99-1.35-9.44-3.5-1.245 1.212-12.156 8.944-13.77 10.17 6.229 14.332-11.342 27.235-23.01 16.72l-12.9 9.37c6.535 7.171 3.405 20.175-6.6 23.23l4.8 14.78c-97.066-28.183-177.023-69.669-215.8-126.79h14.07c4.46-12.32 22.57-12.32 27.03 0h16.65c.297-8.998 10.193-15.775 18.89-12.76l5.03-15.45c-11.862-8.609-5.002-26.784 8.53-26.27.536-1.546 5.092-15.943 5.63-17.04-5.25-4.07-7.6-11.65-4.23-18.09 6.4-11.93 21.41-9.31 26.05.17 3.711-.747 7.833-.768 11.55-.05 4.28-8.89 17.72-12.51 25.25-1.93 4.55 6.64 2.36 15.18-3.31 19.6.692 1.401 5.037 15.244 5.66 17.04 13.531-.518 20.395 17.677 8.54 26.27l5.04 15.53c8.733-2.855 18.442 3.78 18.74 12.98h16.57c4.46-12.32 22.57-12.32 27.03 0 2.88.071 15.909-.205 18.51.24 5.96-14.49 27.65-10.69 27.93 5.41 0 4.33-1.9 8.2-4.9 10.86 1.626 3.223 2.692 6.958 3.06 10.52 18.729 1.166 18.128 28.528-.6 28.99z" fill="#fbd9a3"/></g><path d="m391.66 231.93-53.05 38.54c-7.02 5.1-9.95 14.13-7.27 22.37l20.26 62.37c3.06 9.41-.95 18.01-7.69 22.66-6.45 4.46-15.43 5.28-23.1-.29l-53.05-38.54c-7.01-5.1-16.51-5.1-23.52 0l-53.05 38.54c-7.67 5.57-16.65 4.75-23.1.29-6.74-4.65-10.75-13.25-7.69-22.66l20.26-62.37c2.68-8.24-.25-17.27-7.27-22.37l-53.05-38.54c-8.281-6.061-9.959-15.68-6.78-23.72h.01c2.81-6.99 9.42-12.47 18.53-12.47h65.58c8.67 0 16.35-5.59 19.03-13.83l20.26-62.36c3-9.25 11.07-13.86 19.11-13.83 7.99.03 15.97 4.64 18.95 13.83l20.26 62.36c2.68 8.24 10.36 13.83 19.03 13.83h65.58c19.388.004 27.431 24.806 11.76 36.19z" fill="#f39e22"/><g><path d="m398.97 209.71v.05l-119.94 31.41c-11.6 3.04-22.95-5.71-22.95-17.71v-117.74c7.99.03 15.97 4.64 18.95 13.83l20.26 62.36c2.68 8.24 10.36 13.83 19.03 13.83h65.58c9.75 0 16.64 6.28 19.07 13.97z" fill="#f9c744"/><g fill="#ea792e"><path d="m391.66 231.93-53.05 38.54c-7.02 5.1-9.95 14.13-7.27 22.37l20.26 62.37c3.06 9.41-.95 18.01-7.69 22.66h-.02l-74.61-110.34c-6.46-9.56-1.58-22.64 9.57-25.63l120.12-32.19c2.41 7.59.48 16.56-7.31 22.22z"/><path d="m242.69 267.53-74.6 110.34c-6.74-4.65-10.75-13.25-7.69-22.66l20.26-62.37c2.68-8.24-.25-17.27-7.27-22.37l-53.05-38.54c-7.79-5.66-9.72-14.63-7.31-22.22l120.1 32.19c11.15 2.99 16.03 16.07 9.56 25.63z"/></g></g></g></g></svg>