<svg id="Icons" enable-background="new 0 0 512 512" height="512" viewBox="0 0 512 512" width="512" xmlns="http://www.w3.org/2000/svg"><g><circle cx="256" cy="256" fill="#6c53a2" r="256"/><g><g><path d="m444.6 287.66c0 7.66-2.28 15.39-7.02 21.39-14.19 17.95-33.43 28.03-53.49 28.03h-301.76c-4.23 0-8.06-2.17-10.84-5.68-9.05-10.967-3.717-32.857 10.84-33.11 5.615-.354 41.4.933 45.78-.96 2.25-.631 4.44-1.57 6.54-2.82 17.04-10.1 35.63-15.34 54.45-15.34h132.46c22.454-.344 30.64-19.213 42.1-35.9 8.1-12.15 21.88-15.32 32.84-7.54l35.86 25.46c8.289 5.942 12.227 16.316 12.24 26.47z" fill="#9175a7"/><path d="m444.6 287.66c0 7.66-2.28 15.39-7.02 21.39-14.19 17.95-33.43 28.03-53.49 28.03h-301.76c-9.575-.23-15.38-9.933-15.33-19.39h50.83c19.91 0 39.64-3.75 58.15-11.06 18.504-7.327 38.249-11.065 58.16-11.07h134.94c11.32 0 22.18-4.5 30.18-12.5 7.556-7.559 17.793-11.802 28.48-11.8h13.09c2.49 4.93 3.77 10.64 3.77 16.4z" fill="#a583bb"/><g fill="#c2aacf"><path d="m346.316 320.523h-115.422c-16.53-.655-16.586-24.283 0-24.963h115.422c16.53.655 16.586 24.283 0 24.963z"/><path d="m178.69 327.39c-.007 5.346-4.335 9.695-9.69 9.69h-86.67c-9.596-.229-15.365-9.934-15.33-19.39h102c5.35 0 9.69 4.34 9.69 9.7z"/></g></g><g><g><path d="m448.05 190.79v8.72c.573 21.022-14.542 42.956-33.52 42.409h-62.23c-5.56 0-10.92 3.17-14.18 8.87-4.63 8.06-12.13 13.41-20.78 13.41-7.17 0-14.32-.77-21.39-2.3l-72.75-15.75c-3.97-.86-7.93 1.74-9.59 6.39-2.46 6.87-7.93 11.66-14.29 11.66h-38.92c-10.33 0-19.75-4.95-26.86-13.08-2.92-3.34-7.4-2.93-10.09.71-5.62 7.61-13.62 12.37-22.51 12.37h-28.44c-6.68 0-12.74-3.43-17.11-8.97-4.64-5.902-7.133-13.816-7.09-21.65 0-13.9 7.41-26.06 18.03-29.6l44.42-14.81c6.55-2.19 13.01.83 17 6.73 3.15 4.66 7.93 7.01 12.73 6.14l74.52-13.579 105.63-19.25c9.366-1.573 18.114-8.148 24.01-16.9 7.529-10.234 18.017-15.176 29.29-14.48 9.47 0 18.57 4.72 25.32 13.13l3.54 4.42c5.87 7.31 13.77 11.4 22.01 11.4h4.27c10.49 0 18.98 10.75 18.98 24.01z" fill="#9175a7"/><path d="m448.05 190.79c-.033 4.932.23 12.29-.64 17.04h-96.45c-6.2 0-12.15 2.46-16.54 6.85-9.378 10.391-20.72 16.809-34.97 16.81h-43.97c-7.824.319-16.793-3.228-24.1-5.75-6.07-2.08-12.8-.47-17.28 4.12l-3.25 3.33c-6.94 7.11-16.45 11.12-26.39 11.12h-13.83c-9.216.117-17.916-3.668-24.96-9.47-9.95-7.34-23.62-6.96-33.13.93l-2.85 2.35c-4.82 4-10.89 6.19-17.15 6.19h-42.71c-3.706-11.941-.644-27.532 8.75-35.77 2.3-2.05 4.91-3.61 7.75-4.56l42.22-14.08 2.2-.73c6.55-2.19 13.01.83 17 6.73 3.058 4.559 7.935 7.041 12.73 6.14 42.845-7.808 136.646-24.902 180.15-32.83 9.674-1.609 18.433-8.587 24.01-16.9 7.528-10.236 18.018-15.174 29.29-14.48 9.47 0 18.57 4.72 25.32 13.13l3.54 4.42c5.468 6.856 13.374 11.413 22.01 11.4h4.27c10.49 0 18.98 10.75 18.98 24.01z" fill="#a583bb"/><g fill="#c2aacf"><path d="m411.26 162.89c-19.068 18.723-56.139 17.538-73.47-2.56 2.497-2.236 4.828-5.199 6.85-8.02 6.82-9.23 16.36-14.48 26.36-14.48 10.724-.647 20.759 3.747 28.25 13.13 3.289 4.29 7.421 9.399 12.01 11.93z"/><path d="m128.05 196.33c-.165 10.735-7.436 20.359-17.72 23.45 0 0-11.99 3.66-11.99 3.66l-16.38 5.61-5.56 1.71c-9.67 2.96-20.13-.19-26.56-7.9 2.657-8.75 8.124-15.963 16.49-18.88 0 0 42.22-14.08 42.22-14.08 7.645-3.259 14.793-.744 19.5 6.43z"/><path d="m302 203.89-136.28 16.02c-11.75 1.39-22.64-6.33-25.24-17.87 59.842-10.904 120.309-21.927 180.15-32.83l1.39 7.56c2.42 13.13-6.77 25.56-20.02 27.12z"/></g><g><g><path d="m199.86 207.6c-2.648.496-5.323-1.34-5.78-4.07 0 0-1.89-10.91-1.89-10.91l9.84-1.8 1.91 11c.47 2.72-1.36 5.31-4.08 5.78z" fill="#a583bb"/></g><g><path d="m177.51 210.23c-2.661.469-5.323-1.333-5.78-4.07 0 0-1.65-9.51-1.65-9.51l9.83-1.8 1.67 9.6c.47 2.72-1.35 5.31-4.07 5.78z" fill="#a583bb"/></g><g><path d="m155.15 212.86c-2.661.469-5.323-1.332-5.78-4.07 0 0-1.41-8.11-1.41-8.11l9.84-1.8 1.42 8.2c.47 2.72-1.35 5.31-4.07 5.78z" fill="#a583bb"/></g><g><path d="m222.22 204.97c-2.657.497-5.324-1.34-5.78-4.07 0 0-2.14-12.31-2.14-12.31l9.84-1.8 2.15 12.4c.48 2.72-1.35 5.31-4.07 5.78z" fill="#a583bb"/></g><g><path d="m244.58 202.34c-2.66.494-5.323-1.329-5.78-4.07 0 0-2.38-13.71-2.38-13.71l9.83-1.8 2.4 13.8c.47 2.72-1.35 5.31-4.07 5.78z" fill="#a583bb"/></g><g><path d="m266.94 199.72c-2.661.469-5.323-1.332-5.78-4.07 0 0-2.62-15.12-2.62-15.12l9.83-1.8 2.64 15.21c.47 2.72-1.35 5.3-4.07 5.78z" fill="#a583bb"/></g><g><path d="m289.29 197.09c-2.65.47-5.312-1.333-5.78-4.07 0 0-2.87-16.52-2.87-16.52l9.85-1.8 2.88 16.61c.47 2.72-1.35 5.31-4.08 5.78z" fill="#a583bb"/></g><g><path d="m311.65 194.46c-2.658.47-5.324-1.333-5.78-4.07 0 0-3.11-17.92-3.11-17.92.003.001 9.835-1.804 9.84-1.8l3.12 18.01c.48 2.72-1.35 5.31-4.07 5.78z" fill="#a583bb"/></g></g><path d="m425.447 207.83h-58.124c-10.183-.345-10.212-15.054 0-15.41h58.124c4.255 0 7.705 3.45 7.705 7.705s-3.45 7.705-7.705 7.705z" fill="#c2aacf"/></g><g><g><path d="m397.87 174.15c.009 10.165-8.314 18.298-18.27 18.27h-25.07c-10.092.003-18.273-8.178-18.27-18.27-.045-10.117 8.345-18.326 18.27-18.27h25.07c10.086-.004 18.268 8.178 18.27 18.27z" fill="#746087"/><path d="m397.87 174.15c0 6.43-3.32 12.08-8.34 15.33-20.68-1.62-36.86-15.99-36.92-33.5-.298-.214 26.387-.053 26.99-.1 10.086-.004 18.268 8.178 18.27 18.27z" fill="#9175a7"/></g><path d="m390.97 174.15c0 6.57-5.33 11.89-11.89 11.89h-24.03c-15.773-.626-15.777-23.142 0-23.78h24.03c6.562-.003 11.892 5.337 11.89 11.89z" fill="#53b976"/><g><path d="m372.7 174.15c0 4.5-1.55 8.63-4.16 11.89h-13.49c-6.577-.002-11.888-5.313-11.89-11.89 0-6.56 5.32-11.89 11.89-11.89h13.48c2.61 3.25 4.17 7.39 4.17 11.89z" fill="#2e3140"/><path d="m372.7 174.15c0 4.5-1.55 8.63-4.16 11.89h-8.35c-2.992-7.274-2.992-16.506 0-23.78h8.34c2.61 3.25 4.17 7.39 4.17 11.89z" fill="#3e4e60"/></g><path d="m381.776 167.973h-14.084c-2.751 0-4.981 2.23-4.981 4.981s2.23 4.981 4.981 4.981h14.084c6.58-.201 6.586-9.758 0-9.962z" fill="#83d5ef"/></g><g><path d="m105.17 213.89c.015 4.275-2.767 8.172-6.83 9.55 0 0-16.38 5.61-16.38 5.61-12.826 3.848-19.054-14.248-6.54-19.11 0 0 16.37-5.61 16.37-5.61 6.405-2.333 13.486 2.785 13.38 9.56z" fill="#2e3140"/><path d="m102.23 221c-1.06 1.07-2.37 1.92-3.89 2.44l-16.38 5.61c-7.888 2.799-15.678-5.135-12.78-12.92 10.523-2.45 25.252-.464 33.05 4.87z" fill="#3e4e60"/></g></g><g><g><path d="m81.85 255.4v26.84c0 2.59-3.15 3.86-4.95 2-.61-.63-1.2-1.28-1.76-1.95-2.9-3.41-5.2-7.24-6.86-11.34-1.98-4.89-3.02-10.17-3.02-15.55-.003-3.522 2.857-6.372 6.37-6.37h3.84c3.53 0 6.38 2.85 6.38 6.37z" fill="#fbd9a3"/><path d="m75.14 252.54v17.316c0 3.818-5.283 4.911-6.742 1.383-2.058-4.976-3.138-10.352-3.138-15.84 0-1.76.71-3.35 1.86-4.5 2.353-2.564 7.829-2.81 8.02 1.641z" fill="#faefdc"/></g><g><path d="m105.795 302.232-12.608-23.695c-1.217-2.287-4.594-1.928-5.309.56-1.465 5.124-1.922 10.528-1.367 15.782.549 5.247 2.111 10.397 4.638 15.146 1.652 3.111 5.515 4.283 8.616 2.631l3.39-1.804c3.116-1.658 4.293-5.513 2.64-8.62z" fill="#fbd9a3"/><path d="m101.214 307.908-8.134-15.287c-1.793-3.371-6.97-1.854-6.601 1.946.52 5.36 2.092 10.613 4.67 15.457.827 1.554 2.2 2.624 3.756 3.099 3.252 1.178 8.251-1.231 6.309-5.215z" fill="#faefdc"/></g><g><path d="m140.153 297.777-12.608-23.695c-1.217-2.287-4.594-1.928-5.309.56-1.465 5.124-1.922 10.528-1.367 15.782.549 5.247 2.111 10.397 4.638 15.146 1.652 3.111 5.515 4.283 8.616 2.631l3.39-1.804c3.116-1.658 4.293-5.512 2.64-8.62z" fill="#fbd9a3"/><path d="m135.573 303.454-8.134-15.287c-1.793-3.371-6.97-1.854-6.601 1.946.52 5.36 2.092 10.613 4.67 15.458.827 1.554 2.2 2.624 3.756 3.099 3.251 1.177 8.25-1.232 6.309-5.216z" fill="#faefdc"/></g><g><path d="m217.249 279.58-12.608-23.695c-1.217-2.287-4.594-1.928-5.309.56-1.465 5.124-1.922 10.528-1.367 15.782.549 5.247 2.111 10.397 4.638 15.146 1.652 3.111 5.515 4.283 8.616 2.631l3.39-1.804c3.116-1.658 4.294-5.512 2.64-8.62z" fill="#fbd9a3"/><path d="m212.669 285.257-8.134-15.287c-1.793-3.371-6.97-1.854-6.601 1.946.52 5.36 2.092 10.613 4.67 15.457.827 1.554 2.2 2.624 3.756 3.099 3.251 1.178 8.251-1.231 6.309-5.215z" fill="#faefdc"/></g><g><path d="m271.052 281.58-12.608-23.695c-1.217-2.287-4.594-1.928-5.309.56-1.465 5.124-1.922 10.528-1.367 15.782.549 5.247 2.111 10.397 4.638 15.146 1.652 3.111 5.515 4.283 8.616 2.631l3.39-1.804c3.116-1.658 4.293-5.512 2.64-8.62z" fill="#fbd9a3"/><path d="m266.472 287.257-8.134-15.287c-1.793-3.371-6.97-1.854-6.601 1.946.52 5.36 2.092 10.613 4.67 15.457.827 1.554 2.2 2.624 3.756 3.099 3.251 1.178 8.25-1.231 6.309-5.215z" fill="#faefdc"/></g><g><path d="m315.048 281.58-12.608-23.695c-1.217-2.287-4.594-1.928-5.309.56-1.465 5.124-1.922 10.528-1.367 15.782.549 5.247 2.111 10.397 4.638 15.146 1.652 3.111 5.515 4.283 8.616 2.631l3.39-1.804c3.116-1.658 4.294-5.512 2.64-8.62z" fill="#fbd9a3"/><path d="m310.468 287.257-8.134-15.287c-1.793-3.371-6.97-1.854-6.601 1.946.52 5.36 2.092 10.613 4.67 15.457.827 1.554 2.2 2.624 3.756 3.099 3.251 1.178 8.251-1.231 6.309-5.215z" fill="#faefdc"/></g><g><path d="m111.307 252.523v26.84c0 2.59-3.15 3.86-4.95 2-.61-.63-1.2-1.28-1.76-1.95-2.9-3.41-5.2-7.24-6.86-11.34-1.98-4.89-3.02-10.17-3.02-15.55-.003-3.522 2.857-6.372 6.37-6.37h3.84c3.53 0 6.38 2.85 6.38 6.37z" fill="#fbd9a3"/><path d="m104.597 249.663v17.316c0 3.818-5.283 4.911-6.742 1.383-2.058-4.976-3.138-10.352-3.138-15.84 0-1.76.71-3.35 1.86-4.5 2.353-2.564 7.829-2.81 8.02 1.641z" fill="#faefdc"/></g><g><path d="m189.28 255.4v26.84c0 2.59-3.15 3.86-4.95 2-.61-.63-1.2-1.28-1.76-1.95-2.9-3.41-5.2-7.24-6.86-11.34-1.98-4.89-3.02-10.17-3.02-15.55-.003-3.522 2.857-6.372 6.37-6.37h3.84c3.53 0 6.38 2.85 6.38 6.37z" fill="#fbd9a3"/><path d="m182.57 252.54v17.316c0 3.818-5.283 4.911-6.742 1.383-2.058-4.976-3.138-10.352-3.138-15.84 0-1.76.71-3.35 1.86-4.5 2.353-2.564 7.829-2.81 8.02 1.641z" fill="#faefdc"/></g><g><path d="m244.715 240.832v26.84c0 2.59-3.15 3.86-4.95 2-.61-.63-1.2-1.28-1.76-1.95-2.9-3.41-5.2-7.24-6.86-11.34-1.98-4.89-3.02-10.17-3.02-15.55-.003-3.522 2.857-6.372 6.37-6.37h3.84c3.53 0 6.38 2.85 6.38 6.37z" fill="#fbd9a3"/><path d="m238.005 237.972v17.316c0 3.818-5.283 4.911-6.742 1.383-2.058-4.976-3.138-10.352-3.138-15.84 0-1.76.71-3.35 1.86-4.5 2.353-2.564 7.829-2.81 8.02 1.641z" fill="#faefdc"/></g><g><path d="m287.214 252.523v26.84c0 2.59-3.15 3.86-4.95 2-.61-.63-1.2-1.28-1.76-1.95-2.9-3.41-5.2-7.24-6.86-11.34-1.98-4.89-3.02-10.17-3.02-15.55-.003-3.522 2.857-6.372 6.37-6.37h3.84c3.53 0 6.38 2.85 6.38 6.37z" fill="#fbd9a3"/><path d="m280.504 249.663v17.316c0 3.818-5.283 4.911-6.742 1.383-2.059-4.976-3.138-10.352-3.138-15.84 0-1.76.71-3.35 1.86-4.5 2.353-2.564 7.829-2.81 8.02 1.641z" fill="#faefdc"/></g><g><path d="m332.386 255.4v26.84c0 2.59-3.15 3.86-4.95 2-.61-.63-1.2-1.28-1.76-1.95-2.9-3.41-5.2-7.24-6.86-11.34-1.98-4.89-3.02-10.17-3.02-15.55-.003-3.522 2.857-6.372 6.37-6.37h3.84c3.53 0 6.38 2.85 6.38 6.37z" fill="#fbd9a3"/><path d="m325.676 252.54v17.316c0 3.818-5.283 4.911-6.742 1.383-2.059-4.976-3.138-10.352-3.138-15.84 0-1.76.71-3.35 1.86-4.5 2.354-2.564 7.829-2.81 8.02 1.641z" fill="#faefdc"/></g><g><path d="m150.911 250.68v26.84c0 2.59-3.15 3.86-4.95 2-.61-.63-1.2-1.28-1.76-1.95-2.9-3.41-5.2-7.24-6.86-11.34-1.98-4.89-3.02-10.17-3.02-15.55-.003-3.522 2.857-6.372 6.37-6.37h3.84c3.53 0 6.38 2.85 6.38 6.37z" fill="#fbd9a3"/><path d="m144.201 247.82v17.316c0 3.818-5.283 4.911-6.742 1.383-2.058-4.976-3.138-10.352-3.138-15.84 0-1.76.71-3.35 1.86-4.5 2.354-2.564 7.829-2.81 8.02 1.641z" fill="#faefdc"/></g></g></g></g></svg>