<svg id="Icons" enable-background="new 0 0 512 512" height="512" viewBox="0 0 512 512" width="512" xmlns="http://www.w3.org/2000/svg"><g><circle cx="256" cy="256" fill="#53b976" r="256"/><g><g><path d="m439.47 262.03-1.83 9c-1.36 6.65-3.49 12.94-6.27 18.8-15.8 33.28-52.74 52.8-90.44 45.1l-.32-.07c-5.94-1.21-12.03.66-16.44 4.81-7.13 6.7-15.55 12.06-24.84 15.64-8.56 3.33-17.86 5.14-27.6 5.14h-99.9c-.93 0-1.85-.01-2.77-.05-7.64-.22-15.04-1.4-22.09-3.4-10.46-2.99-20.15-7.8-28.7-14.09-22.41-16.47-36.96-43.03-36.96-72.98v-62.62h137.59c8.31-25.39 28.24-44.46 52.52-52.37 13.05-4.27 27.35-5.3 41.76-2.36l62.4 12.75c44.35 9.06 72.95 52.35 63.89 96.7z" fill="#c2aacf"/><g fill="#decee5"><path d="m146.97 331.75v25.25c-10.46-2.99-20.15-7.8-28.7-14.09v-11.16c0-7.93 6.43-14.35 14.35-14.35 3.96 0 7.55 1.6 10.14 4.2 2.6 2.6 4.21 6.18 4.21 10.15z"/><path d="m197.75 331.75v28.7h-25.92c-.93 0-1.85-.01-2.77-.05v-28.65c0-7.93 6.42-14.35 14.35-14.35 3.96 0 7.55 1.6 10.14 4.2s4.2 6.18 4.2 10.15z"/><path d="m248.54 331.75v28.7h-28.7v-28.7c0-7.93 6.43-14.35 14.35-14.35 3.97 0 7.55 1.6 10.15 4.2s4.2 6.18 4.2 10.15z"/><path d="m299.33 331.75v23.56c-8.56 3.33-17.86 5.14-27.6 5.14h-1.1v-28.7c0-7.93 6.42-14.35 14.35-14.35 3.96 0 7.55 1.6 10.14 4.2 2.6 2.6 4.21 6.18 4.21 10.15z"/></g></g><g><path d="m439.47 262.03-1.83 9c-1.36 6.65-3.49 12.94-6.27 18.8-13.05 4.27-27.35 5.3-41.76 2.36l-62.4-12.75c-.75-.15-1.49-.32-2.23-.49-7.76-1.81-15.88.27-21.71 5.71-14.89 13.92-34.88 22.44-56.87 22.44h-165.09c-6.47 0-12.34-2.62-16.59-6.87-4.24-4.25-6.87-10.11-6.87-16.59 0-1.11.01-2.21.04-3.31 1.76-81.76 68.6-147.51 150.79-147.51h61.48c4.27 0 8.44.45 12.46 1.3 12.68 2.7 23.86 9.43 32.15 18.79l60.81 12.42c44.35 9.06 72.95 52.35 63.89 96.7z" fill="#decee5"/><path d="m282.62 134.12c-32.27 85.3-118.07 146.28-218.83 146.28-1.97 0-3.94-.02-5.9-.07 1.76-81.76 68.6-147.51 150.79-147.51h61.48c4.27 0 8.44.45 12.46 1.3z" fill="#f4e6f4"/></g><g><g><path d="m227.568 184.799c7.492 7.492 10.206 17.943 8.144 27.578-1.153 5.511-3.88 10.731-8.144 14.995l-29.209 29.209c-5.884 5.884-13.574 8.82-21.286 8.82-7.713 0-15.403-2.936-21.287-8.82-10.999-10.999-11.709-28.394-2.12-40.219.652-.816 1.363-1.596 2.12-2.354l29.209-29.209c5.872-5.872 13.574-8.82 21.287-8.82 7.701.012 15.402 2.936 21.286 8.82z" fill="#746087"/><path d="m227.568 184.799c7.492 7.492 10.206 17.943 8.144 27.578-25.982 22.207-61.576 24.316-82.047 3.985.652-.816 1.363-1.596 2.12-2.354l29.209-29.209c5.872-5.872 13.574-8.82 21.287-8.82 7.702.012 15.403 2.936 21.287 8.82z" fill="#9175a7"/></g><path d="m219.53 220.54-22.3 22.3-5.7 5.7c-3.83 3.84-8.84 5.75-13.85 5.75-.29 0-.57-.01-.86-.02-4.72-.2-9.38-2.11-13-5.73-7.64-7.64-7.65-20.05 0-27.7l28-28c3.82-3.82 8.83-5.73 13.84-5.73 5.04 0 10.05 1.91 13.87 5.73 7.65 7.65 7.64 20.06 0 27.7z" fill="#53b976"/><path d="m201.92 223.37c0 6.99-1.69 13.6-4.69 19.47l-5.7 5.7c-3.83 3.84-8.84 5.75-13.85 5.75-.29 0-.57-.01-.86-.02-4.72-.2-9.38-2.11-13-5.73-7.64-7.64-7.65-20.05 0-27.7l26.66-26.66c7.12 7.78 11.44 18 11.44 29.19z" fill="#3e4e60"/><path d="m189.92 223.37c0 12.04-5 22.95-13.1 30.9-4.72-.2-9.38-2.11-13-5.73-7.64-7.64-7.65-20.05 0-27.7l19.81-19.81c4 6.55 6.29 14.19 6.29 22.34z" fill="#2e3140"/><path d="m201.62 196.354-16.41 16.41c-3.205 3.205-3.205 8.402 0 11.607 3.205 3.205 8.402 3.205 11.607 0l16.41-16.41c3.205-3.205 3.205-8.402 0-11.607-3.205-3.205-8.401-3.205-11.607 0z" fill="#83d5ef"/></g><g><path d="m287.23 247.49-43.32-8.59c-4.72-.94-9.6.48-13.08 3.81l-14.41 13.75c-7.93 7.56-5.16 20.81 5.12 24.57l16.8 6.15c14.06 5.14 29.82 2.04 40.88-8.06l13.42-12.25c6.82-6.24 3.66-17.58-5.41-19.38zm21.49-41.6c-.31-9.34-9.55-15.73-18.39-12.71l-35.39 12.08c-3.45 1.18-6.19 3.83-7.48 7.24-2.88 7.59 2.31 15.83 10.4 16.51l36.18 3.06c8.29.69 15.33-5.99 15.06-14.31zm-30.74-51.28-3.28-2.17-4.6-3.03c-7.23-4.76-16.95-2.71-21.64 4.55l-8.56 13.25c-2.35 3.63-3.03 8.09-1.88 12.25 1.72 6.22 7.01 10.35 12.92 11.02 2.54.28 5.2-.08 7.74-1.19l16.97-7.43c11.31-4.95 12.63-20.46 2.33-27.25zm-54.66-13.08h-28.58c-6.22 0-10.59 6.11-8.59 12l1.43 4.21c2.21 6.51 8.32 10.88 15.18 10.88h12.61c6.97 0 13.13-4.49 15.27-11.12l1.32-4.11c1.89-5.86-2.48-11.86-8.64-11.86zm-52.35 14.39-3.24-1.84c-3.08-1.92-7.02-1.79-9.97.33l-45.28 32.5c-7.09 5.09-3.49 16.28 5.24 16.28l21.65 1.66c3.99.31 7.93-1.09 10.83-3.85l23.53-22.34c6.94-6.59 5.56-18-2.76-22.74zm16.4 126.23c-3.42-2.11-7.03-3.85-10.79-5.22-3.75-1.37-7.64-2.37-11.62-2.96-6.7-.99-12.7-3.99-17.4-8.37-5.81-5.39-9.63-12.86-10.33-21.21l-.79-9.46c-.81-9.6-8.84-16.99-18.48-16.99h-19.93c-7.01 0-13.42 3.94-16.56 10.19-3.79 7.53-6.75 15.55-8.76 23.93s-3.08 17.14-3.08 26.14c0 .72.04 1.44.14 2.13 1.04 8.58 8.35 15.22 17.22 15.22h96.59c4.49 0 7.25-3.64 7.25-7.32 0-2.3-1.07-4.61-3.46-6.08z" fill="#c68132"/><g fill="#f39e22"><path d="m147.56 265.6c-24.23 8.91-50.42 14.07-77.79 14.73-.1-.69-.14-1.41-.14-2.13 0-9 1.07-17.76 3.08-26.14s4.97-16.4 8.76-23.93c3.14-6.25 9.55-10.19 16.56-10.19h19.93c9.64 0 17.67 7.39 18.48 16.99l.79 9.46c.7 8.35 4.52 15.82 10.33 21.21z"/><path d="m173.73 178.66-23.53 22.34c-2.9 2.76-6.84 4.16-10.83 3.85l-21.65-1.66c-8.73 0-12.33-11.19-5.24-16.28l45.28-32.5c2.95-2.12 6.89-2.25 9.97-.33l3.24 1.84c8.32 4.74 9.7 16.15 2.76 22.74z"/><path d="m231.96 153.39-1.32 4.11c-2.14 6.63-8.3 11.12-15.27 11.12h-12.61c-6.86 0-12.97-4.37-15.18-10.88l-1.43-4.21c-2-5.89 2.37-12 8.59-12h28.58c6.16 0 10.53 6 8.64 11.86z"/><path d="m274.7 152.44c-6.6 13.47-14.57 26.21-23.76 38.04-5.91-.67-11.2-4.8-12.92-11.02-1.15-4.16-.47-8.62 1.88-12.25l8.56-13.25c4.69-7.26 14.41-9.31 21.64-4.55z"/></g></g><g><path d="m110.16 236.86c0 .94-.13 1.88-.39 2.82-.01.05-.02.11-.04.16l-3.33 11.23c-1.65 5.55-7.48 8.71-13.03 7.06-.88-.26-1.69-.62-2.44-1.08-3.99-2.4-6.01-7.27-4.62-11.94l3.33-11.23c1.64-5.55 7.47-8.71 13.02-7.07 4.56 1.35 7.5 5.53 7.5 10.05z" fill="#2e3140"/><path d="m109.77 239.68c-.01.05-.02.11-.04.16l-3.33 11.23c-1.65 5.55-7.48 8.71-13.03 7.06-.88-.26-1.69-.62-2.44-1.08.01-.05.03-.09.04-.14l3.34-11.24c1.64-5.54 7.47-8.71 13.02-7.06.88.26 1.69.62 2.44 1.07z" fill="#3e4e60"/></g><g><path d="m463.09 312.95c-.86.85-1.77 1.68-2.73 2.47l-26.53 21.97c-21.89 18.11-55.12 9.13-64.89-17.55l-53.69-146.51c-1.71-4.68-2.55-9.53-2.55-14.35 0-10.29 3.81-20.41 10.99-28.25 13.34-14.56 33.89-17.31 50.04-9.34 6.74 3.33 12.71 8.52 17.08 15.5l4.56 7.28 4.58 7.32 10.43 16.69 20.4 32.6 11.35 18.14 20.39 32.6 6.49 10.37c1.19 1.89 2.2 3.85 3.04 5.85 6.5 15.37 3.04 33.34-8.96 45.21z" fill="#c68132"/><g fill="#f39e22"><path d="m399.95 151.49-40.73 17.49c-9.65 4.14-20.82-.32-24.96-9.97-4.14-9.64.32-20.81 9.96-24.95l29.51-12.67c6.74 3.33 12.71 8.52 17.08 15.5z"/><path d="m430.78 200.78-49.26 21.15c-9.64 4.14-20.82-.32-24.96-9.96s.32-20.82 9.96-24.96l43.86-18.83z"/><path d="m462.52 251.52-56.69 24.34c-9.64 4.15-20.82-.32-24.96-9.96s.32-20.82 9.97-24.96l51.29-22.02z"/><path d="m463.09 312.95-34.7 14.9c-9.64 4.14-20.82-.32-24.96-9.97-4.14-9.64.32-20.81 9.96-24.96l58.66-25.18c6.5 15.37 3.04 33.34-8.96 45.21z"/></g></g></g></g></svg>