<svg id="Icons" enable-background="new 0 0 512 512" height="512" viewBox="0 0 512 512" width="512" xmlns="http://www.w3.org/2000/svg"><g><circle cx="256" cy="256" fill="#ea792e" r="256"/><g><path d="m429.37 203.276v86.845h-316.241c-12.87 0-24.526-5.221-32.959-13.654-1.943-1.942-3.709-4.051-5.287-6.302-4.437-6.358-7.329-13.886-8.135-22.02-.154-1.523-.232-3.069-.232-4.636 0-21.877 15.21-40.762 36.491-45.497.265-.066.541-.122.817-.177l191.438-38.974 63.831-12.991c16.866-3.433 33.234.706 45.917 9.846 10.089 7.274 17.848 17.693 21.689 29.967 1.733 5.529 2.671 11.434 2.671 17.593z" fill="#50755c"/><path d="m429.37 290.121v24.184c0 20.144-10.331 37.517-25.685 47.639-11.545 7.616-25.928 11.104-40.873 8.566l-8.587-1.457-12.793-2.174-49.46-8.411-12.782-2.163-49.471-8.411-12.782-2.174-49.46-8.4-12.793-2.174-4.139-.707c-15.685-2.671-28.323-13.267-34.062-27.263-2.163-5.287-3.356-11.049-3.356-17.053h316.243z" fill="#daab42"/><path d="m104.817 209.193c0 19.945-16.59 36.413-38.069 38.952-.154-1.523-.232-3.069-.232-4.636 0-21.877 15.21-40.762 36.491-45.497 1.181 3.543 1.81 7.295 1.81 11.181z" fill="#53b976"/><g><g><path d="m304.12 207.114c2.146 8.71-.466 17.47-6.181 23.547-3.25 3.487-7.512 6.074-12.469 7.296l-33.957 8.365c-6.84 1.685-13.697.444-19.285-2.935s-9.873-8.875-11.558-15.715c-3.15-12.786 3.955-25.7 16.083-30.067.83-.305 1.687-.559 2.567-.776l33.957-8.365c6.827-1.682 13.697-.444 19.285 2.935 5.575 3.383 9.873 8.876 11.558 15.715z" fill="#528f66"/><path d="m304.12 207.114c2.146 8.71-.466 17.47-6.181 23.547-28.551 4.706-55.262-9.358-61.186-33.055.83-.305 1.687-.559 2.567-.776l33.957-8.365c6.827-1.682 13.697-.444 19.285 2.935 5.575 3.382 9.873 8.875 11.558 15.714z" fill="#53b976"/></g><path d="m294.774 209.417c2.192 8.899-3.252 17.883-12.137 20.072l-32.548 8.018c-4.456 1.098-8.923.287-12.552-1.907-3.63-2.195-6.422-5.774-7.52-10.23-2.189-8.885 3.238-17.88 12.137-20.072l32.548-8.018c4.443-1.094 8.909-.284 12.539 1.911 3.646 2.204 6.439 5.783 7.533 10.226z" fill="#f9c744"/><path d="m275.041 222.438c0 4.338-2.483 8.334-6.402 10.232-.717.353-1.468.629-2.274.828-6.115 1.512-12.296-2.23-13.808-8.345l-2.472-10.066c-1.512-6.115 2.23-12.296 8.344-13.797 2.704-.662 5.408-.309 7.726.828 2.936 1.424 5.232 4.106 6.071 7.517l2.483 10.066c.221.916.332 1.832.332 2.737z" fill="#2e3140"/><path d="m91.458 240.46c-3.994-3.994-3.994-10.469 0-14.462l4.211-4.211c3.994-3.994 10.469-3.994 14.462 0 3.994 3.994 3.994 10.469 0 14.462l-4.211 4.211c-3.993 3.993-10.468 3.993-14.462 0z" fill="#2e3140"/><path d="m275.041 222.438c0 4.338-2.483 8.334-6.402 10.232-2.947-1.413-5.254-4.095-6.093-7.517l-2.472-10.066c-1.314-5.32 1.347-10.685 6.082-12.969 2.936 1.424 5.232 4.106 6.071 7.517l2.483 10.066c.22.916.331 1.832.331 2.737z" fill="#3f5d77"/><path d="m280.26 204.119-19.077 4.7c-3.726.918-6.003 4.683-5.085 8.409.918 3.726 4.683 6.002 8.409 5.085l19.077-4.7c3.726-.918 6.002-4.683 5.085-8.409-.918-3.727-4.683-6.003-8.409-5.085z" fill="#cde6f6"/></g><g><path d="m429.37 203.276v86.845h-52.219c-28.841 0-52.219-23.378-52.219-52.219 0-8.609 2.086-16.733 5.784-23.885 2.483-4.835 5.695-9.228 9.514-13.036 9.448-9.459 22.506-15.298 36.921-15.298h49.548c1.733 5.529 2.671 11.434 2.671 17.593z" fill="#528f66"/><path d="m429.37 203.276v39.04h-52.219c-20.221 0-37.76-11.49-46.435-28.301 2.483-4.835 5.695-9.228 9.514-13.036 9.448-9.459 22.506-15.298 36.921-15.298h49.548c1.733 5.531 2.671 11.436 2.671 17.595z" fill="#53b976"/><g fill="#528f66"><path d="m285.682 251.191c13.658 0 24.73 11.072 24.73 24.73v14.198h-49.461v-14.198c.001-13.658 11.073-24.73 24.731-24.73z"/><path d="m223.43 251.191c13.658 0 24.73 11.072 24.73 24.73v14.198h-49.46v-14.198c0-13.658 11.072-24.73 24.73-24.73z"/><path d="m161.178 251.191c13.658 0 24.73 11.072 24.73 24.73v14.198h-49.461v-14.198c.001-13.658 11.073-24.73 24.731-24.73z"/><path d="m123.659 275.927v14.195h-10.53c-12.87 0-24.526-5.221-32.959-13.654-1.943-1.942-3.709-4.051-5.287-6.302 2.583-10.883 12.373-18.974 24.04-18.974 13.665-.001 24.736 11.07 24.736 24.735z"/></g></g><path d="m115.548 195.448 2.782 14.685c3.071 16.21 18.397 27.1 34.715 24.666l8.765-1.307c30.925-4.613 55.261-28.794 60.071-59.689z" fill="#528f66"/><path d="m130.265 192.452 2.426 12.512c1.208 6.232 7.271 10.278 13.49 9.003l29.094-5.964c11.192-2.294 20.702-9.616 25.782-19.849l5.584-11.249z" fill="#53b976"/><path d="m405.01 155.715c-3.587 4.327-8.62 7.461-14.481 8.587l-66.458 12.781c-12.903 2.483-25.519-5.497-28.809-18.223l63.831-12.991c16.866-3.432 33.234.707 45.917 9.846z" fill="#53b976"/><g fill="#f9c744"><path d="m403.685 327.914v34.029c-11.545 7.616-25.928 11.104-40.873 8.566l-8.587-1.457v-41.138c0-13.654 11.071-24.735 24.735-24.735 6.821 0 13.002 2.77 17.484 7.252 4.471 4.47 7.241 10.651 7.241 17.483z"/><path d="m341.433 327.914v38.963l-49.46-8.411v-30.552c0-13.654 11.082-24.735 24.735-24.735 6.822 0 13.002 2.77 17.484 7.252 4.47 4.47 7.241 10.651 7.241 17.483z"/><path d="m279.191 327.914v28.389l-49.471-8.411v-19.978c0-13.654 11.082-24.735 24.735-24.735 6.821 0 13.014 2.77 17.484 7.252 4.482 4.47 7.252 10.651 7.252 17.483z"/><path d="m216.938 327.914v17.804l-49.46-8.4v-9.404c0-13.654 11.071-24.735 24.724-24.735 6.821 0 13.014 2.77 17.484 7.252 4.482 4.47 7.252 10.651 7.252 17.483z"/><path d="m154.686 327.914v7.23l-4.139-.707c-15.685-2.671-28.323-13.267-34.062-27.263 3.874-2.528 8.499-3.996 13.466-3.996 6.832 0 13.013 2.77 17.495 7.252 4.469 4.471 7.24 10.652 7.24 17.484z"/></g></g></g></svg>