<svg id="Icons" enable-background="new 0 0 512 512" height="512" viewBox="0 0 512 512" width="512" xmlns="http://www.w3.org/2000/svg"><g><circle cx="256" cy="256" fill="#ee6781" r="256"/><g><g><path d="m377.52 318.149-46.914 61.529-6.974 9.141c-5.936 7.804-13.521 13.682-21.912 17.509-5.487 2.501-11.331 4.127-17.29 4.818-3.308.38-6.651.484-9.994.3-6.397-.369-12.783-1.809-18.892-4.38-2.79-1.153-5.521-2.559-8.173-4.196l-9.118-5.66-28.886-17.912-17.29-10.72-28.886-17.913-17.29-10.731-28.886-17.913-17.29-10.72-3.861-2.398c-8.945-5.544-14.8-14.8-16.08-25.082-.185-1.418-.277-2.859-.277-4.311v-15.884h218.442z" fill="#ea792e"/><path d="m274.437 411.446c-6.397-.369-12.783-1.809-18.892-4.38-2.79-1.153-5.521-2.559-8.173-4.196l-9.118-5.66-28.886-17.912-17.29-10.72-28.886-17.913-17.29-10.731-28.886-17.913-17.29-10.72-3.861-2.398c-8.945-5.544-14.8-14.8-16.08-25.082 6.397.369 12.783 1.81 18.892 4.38 2.789 1.153 5.521 2.559 8.173 4.196l9.118 5.66 28.886 17.912 17.29 10.72 28.886 17.913 17.29 10.731 28.886 17.913 17.29 10.72 3.862 2.397c8.944 5.545 14.799 14.801 16.079 25.083z" fill="#f39e22"/><g><path d="m316.163 352.429c-7.976 0-14.443 6.467-14.443 14.443v39.456c8.391-3.827 15.976-9.705 21.912-17.509l6.974-9.141v-12.806c0-7.976-6.466-14.443-14.443-14.443zm-216.851-63.961c-1.568-6.294-7.25-10.962-14.028-10.962-2.052 0-4 .426-5.775 1.199v.807c0 1.452.092 2.893.277 4.311 1.279 10.282 7.135 19.538 16.08 25.082l3.861 2.398v-19.353c0-1.2-.15-2.364-.415-3.482zm32.148-2.894c-7.538 0-13.74 5.786-14.385 13.163-.035.415-.058.842-.058 1.28v22.004l28.886 17.913v-39.917c0-7.976-6.467-14.443-14.443-14.443zm46.176 9.222c-7.977 0-14.443 6.467-14.443 14.443v41.427l28.886 17.913v-59.339c0-7.978-6.467-14.444-14.443-14.444zm46.176 11.527c-7.977 0-14.443 6.467-14.443 14.443v58.533l28.886 17.912v-76.445c0-7.977-6.467-14.443-14.443-14.443zm46.175 20.748c-7.976 0-14.443 6.467-14.443 14.443v65.552c6.109 2.57 12.495 4.011 18.892 4.38 3.343.185 6.686.081 9.994-.3v-69.633c0-7.976-6.466-14.442-14.443-14.442z" fill="#f39e22"/><g fill="#f9c744"><path d="m99.312 288.468c.265 1.118.415 2.282.415 3.481v19.353l-3.861-2.398c-8.945-5.544-14.8-14.8-16.08-25.082 6.397.369 12.783 1.81 18.892 4.38.207.093.426.173.634.266z"/><path d="m144.854 315.97 1.049.646v23.318l-28.886-17.913v-22.004c0-.438.023-.865.058-1.28z"/><path d="m191.03 344.603 1.049.645v23.33l-28.886-17.912v-23.33z"/><path d="m237.206 373.247 1.049.645v23.318l-28.886-17.912v-23.318z"/><path d="m274.437 411.446c-6.397-.369-12.783-1.809-18.892-4.38v-22.443l2.812 1.741c8.945 5.544 14.8 14.8 16.08 25.082z"/></g></g></g><g><path d="m446.219 152.234-45.588 123.658-7.043 19.1c-4.449 12.057-12.483 21.521-22.362 27.803-17.532 11.181-40.862 12.322-60.123.115l-4.08-2.57c-27.457-17.405-58.152-29.07-90.242-34.315l-137.272-22.397c-8.933-1.452-16.391-7.584-19.549-16.057l-2.259-6.052c-2.006-5.372-2.063-11.031-.484-16.172 1.948-6.386 6.42-11.953 12.794-15.158l71.316-35.79c22.523-11.296 47.363-17.175 72.56-17.175h61.011c16.472 0 32.275-6.547 43.928-18.201l9.383-9.383c17.889-17.878 42.142-27.929 67.431-27.929h15.354c8.564 0 16.264 2.789 22.431 7.412 12.667 9.476 18.869 26.639 12.794 43.111z" fill="#f39e22"/><path d="m433.424 109.124-48.297 70.543c-14.04 20.506-36.355 33.831-61.068 36.459l-217.624 23.192c-14.789 1.568-29.67-1.833-42.303-9.671l-6.916-4.299c1.948-6.386 6.42-11.953 12.794-15.158l.104-.046 71.212-35.744c8.484-4.253 17.302-7.746 26.35-10.443 14.95-4.449 30.511-6.731 46.21-6.731h61.011c16.472 0 32.275-6.547 43.928-18.201l9.383-9.383c17.889-17.878 42.142-27.929 67.431-27.929h15.354c8.565-.001 16.265 2.789 22.431 7.411z" fill="#f9c744"/><g fill="#f9c744"><circle cx="291.807" cy="257.721" r="13.343"/><circle cx="342.519" cy="244.378" r="20.014"/><circle cx="316.163" cy="291.078" r="20.014"/><path d="m400.631 275.892-7.043 19.1c-4.449 12.057-12.483 21.521-22.362 27.803-12.195-3.377-21.14-14.558-21.14-27.825 0-15.941 12.933-28.875 28.886-28.875 8.634-.001 16.38 3.792 21.659 9.797z"/></g><path d="m167.677 163.956-1.003 13.198c-1.36 17.913-13.221 33.301-30.188 39.191l-17.878 6.202c-15.815 5.487-33.37 1.763-45.588-9.683l-2.905-2.72 6.34-3.181 61.887-31.065 2.986-1.498c8.483-4.254 17.3-7.746 26.349-10.444z" fill="#fad98f"/><path d="m410.994 101.712-15.711 19.48-40.724 50.51c-8.818 10.939-23.295 14.985-36.171 10.881-2.49-.796-4.911-1.891-7.227-3.297l-36.263-22.062c16.472 0 32.275-6.547 43.928-18.201l9.383-9.383c17.889-17.878 42.142-27.929 67.431-27.929h15.354z" fill="#fad98f"/><g fill="#fff"><path d="m371.635 122.471c8.924-3.934 17.109 6.832 10.987 14.424l-28.063 34.807c-3.452 4.282-7.772 7.508-12.523 9.603-8.924 3.934-17.109-6.832-10.987-14.424l28.063-34.807c3.452-4.283 7.772-7.509 12.523-9.603z"/><path d="m138.387 177.788c0 20.898-16.944 37.842-37.842 37.842-9.164 0-17.544-3.251-24.091-8.668l61.887-31.065c.035.623.046 1.257.046 1.891z"/></g></g><g><path d="m240.479 269.184c-17.774 10.12-39.191 7.988-54.464-3.746-5.072-3.873-9.475-8.818-12.829-14.72-13.486-23.687-5.21-53.818 18.466-67.304 22.754-12.944 51.444-5.832 65.633 15.734.576.888 1.141 1.81 1.672 2.743 13.474 23.675 5.21 53.806-18.478 67.293z" fill="#fad98f"/><path d="m240.479 269.184c-17.774 10.12-39.191 7.988-54.464-3.746-.173-1.798-.254-3.631-.254-5.475 0-34.027 27.583-61.61 61.622-61.61 3.366 0 6.674.265 9.901.795.576.888 1.141 1.81 1.672 2.743 13.475 23.675 5.211 53.806-18.477 67.293z" fill="#f9c744"/><path d="m224.814 253.323c-12.552 7.146-27.768 5.302-38.222-3.493-2.962-2.478-5.533-5.533-7.562-9.083-9.175-16.103-3.539-36.609 12.576-45.784 13.394-7.619 29.843-5.014 40.274 5.36 2.109 2.098 3.965 4.507 5.51 7.216 9.175 16.114 3.539 36.609-12.576 45.784z" fill="#faefdc"/><path d="m224.814 253.323c-12.552 7.146-27.768 5.302-38.222-3.493 3.988-24.091 21.947-43.467 45.288-49.507 2.109 2.098 3.965 4.507 5.51 7.216 9.175 16.114 3.539 36.609-12.576 45.784z" fill="#fad98f"/><path d="m213.761 240.897c-7.965 4.53-17.636 3.239-24.102-2.524-1.648-1.475-3.089-3.228-4.242-5.245-5.671-9.982-2.19-22.661 7.781-28.344 7.631-4.334 16.852-3.32 23.295 1.867 1.983 1.591 3.7 3.573 5.037 5.913 5.682 9.971 2.201 22.662-7.769 28.333z" fill="#fff"/><path d="m213.761 240.897c-7.965 4.53-17.636 3.239-24.102-2.524 5.014-13.417 14.581-24.621 26.834-31.721 1.983 1.591 3.7 3.573 5.037 5.913 5.682 9.97 2.201 22.661-7.769 28.332z" fill="#faefdc"/><g><path d="m212.923 217.473c2.15 3.777 1.779 8.298-.565 11.635-.897 1.267-2.077 2.363-3.51 3.179-5.209 2.965-11.843 1.145-14.808-4.064-2.971-5.219-1.15-11.853 4.058-14.818 1.433-.816 2.977-1.27 4.525-1.395 4.067-.314 8.144 1.676 10.3 5.463z" fill="#3f5d77"/></g><g><path d="m212.923 217.473c2.15 3.777 1.779 8.298-.565 11.635-4.067.313-8.144-1.677-10.294-5.454-2.156-3.787-1.785-8.308.559-11.646 4.067-.312 8.144 1.678 10.3 5.465z" fill="#2e3140"/></g><path d="m251.342 241.745c-.505 0-1.019-.066-1.529-.207l-17.725-4.865c-3.07-.842-4.875-4.013-4.032-7.083s4.019-4.877 7.083-4.032l17.725 4.865c3.07.842 4.875 4.013 4.032 7.083-.703 2.559-3.024 4.239-5.554 4.239z" fill="#faefdc"/></g><g><g fill="#f9c744"><circle cx="291.807" cy="257.721" r="13.343"/><circle cx="342.519" cy="244.378" r="20.014"/><circle cx="316.163" cy="291.078" r="20.014"/><path d="m400.631 275.892-7.043 19.1c-4.449 12.057-12.483 21.521-22.362 27.803-12.195-3.377-21.14-14.558-21.14-27.825 0-15.941 12.933-28.875 28.886-28.875 8.634-.001 16.38 3.792 21.659 9.797z"/></g><g fill="#fad98f"><circle cx="311.553" cy="286.467" r="11.439"/><circle cx="369.972" cy="288.171" r="14.366"/><circle cx="337.909" cy="239.767" r="11.439"/><circle cx="288.974" cy="254.887" r="7.139"/></g></g></g></g></svg>