<svg id="Icons" enable-background="new 0 0 512 512" height="512" viewBox="0 0 512 512" width="512" xmlns="http://www.w3.org/2000/svg"><g><circle cx="256" cy="256" fill="#ee6781" r="256"/><g><g><g><g><g><path d="m360.611 379.175c-4.883 4.877-12.787 4.882-17.666 0 0 0-39.779-39.779-39.779-39.779l17.666-17.666 39.779 39.779c4.942 4.913 4.788 12.917 0 17.666z" fill="#57409b"/><path d="m363.418 374.862c-4.562 1.761-9.759.769-13.353-2.808 0 0-39.779-39.779-39.779-39.779l10.546-10.546 39.779 39.779c3.615 3.616 4.544 8.889 2.807 13.354z" fill="#6c53a2"/><path d="m343.37 365.36-21.958-21.958c-4.772-5.071 2.371-12.235 7.456-7.456 0 0 21.957 21.957 21.957 21.957 4.773 5.072-2.37 12.236-7.455 7.457z" fill="#9175a7"/></g><g><path d="m345.881 393.904-28.86 28.86c-2.441 2.441-6.025 3.052-9.035 1.841-5.43-2.088-7.005-9.586-2.765-13.641 0 0 28.86-28.86 28.86-28.86 1.627-1.627 3.762-2.441 5.897-2.434 7.213-.133 11.204 9.041 5.903 14.234z" fill="#57409b"/><path d="m345.881 393.904-28.86 28.86c-2.441 2.441-6.025 3.052-9.035 1.841-1.211-3.01-.6-6.594 1.841-9.035l28.86-28.86c2.425-2.418 5.957-3.05 9.029-1.835 1.211 3.01.606 6.589-1.835 9.029z" fill="#6c53a2"/><path d="m314.442 415.642c-1.294-1.294-1.294-3.392 0-4.686l20.02-20.02c1.294-1.294 3.392-1.294 4.686 0s1.294 3.392 0 4.686l-20.02 20.02c-1.294 1.294-3.392 1.294-4.686 0z" fill="#9175a7"/></g><g><g fill="#3e4e60"><path d="m309.082 489.391c1.34 0 2.426-1.086 2.426-2.426v-14.061h-4.852v14.061c-.001 1.34 1.086 2.426 2.426 2.426z"/><path d="m300.184 489.391c1.34 0 2.426-1.086 2.426-2.426v-14.061h-4.852v14.061c0 1.34 1.086 2.426 2.426 2.426z"/></g><g fill="#57409b"><path d="m309.131 475.764c-1.645.008-7.155.006-8.888.006-2.312 0-4.184-1.872-4.184-4.184v-4.392c.404-11.323 16.706-11.399 17.152 0v4.392c0 2.275-1.816 4.129-4.08 4.178z"/><path d="m309.027 458.618c-2.452.007-6.305-.005-8.784 0-2.312 0-4.184-1.872-4.184-4.184v-4.392c.403-11.32 16.704-11.396 17.146.006v4.392c.006 2.306-1.865 4.178-4.178 4.178z"/><path d="m309.027 441.466c-2.458.012-6.304.001-8.79.006-2.306-.006-4.178-1.878-4.178-4.178l-.006-4.398c.405-11.32 16.709-11.408 17.152 0v4.392c0 2.312-1.871 4.184-4.178 4.178z"/></g><path d="m306.651 475.774c-2.301-.009-4.178-1.886-4.178-4.178v-4.403c0-3.599 2.215-6.687 5.372-7.95 3.183 1.239 5.385 4.487 5.364 7.95v4.395c-.006 2.27-1.81 4.122-4.074 4.178h-.078z" fill="#6c53a2"/><path d="m309.03 458.62h-2.379c-2.301 0-4.178-1.869-4.178-4.178v-4.395c0-3.599 2.224-6.687 5.372-7.959 3.168 1.255 5.392 4.492 5.364 7.959v4.395c.001 2.312-1.889 4.179-4.179 4.178z" fill="#6c53a2"/><path d="m306.66 441.474c-2.302-.015-4.19-1.856-4.187-4.187v-4.395c0-3.59 2.224-6.678 5.372-7.959 3.164 1.263 5.389 4.496 5.364 7.959v4.395c.001 2.304-1.88 4.181-4.178 4.178z" fill="#6c53a2"/><g fill="#9175a7"><path d="m310.518 440.531c-2.777 0-5.035-2.258-5.035-5.043-.104-3.778 4.338-6.317 7.535-4.369.335 1.179.143 4.904.191 6.168-.036 1.61-.878 3.473-2.691 3.244z"/><path d="m310.518 457.677c-2.777 0-5.035-2.258-5.035-5.035-.104-3.787 4.335-6.325 7.535-4.377.335 1.179.143 4.91.191 6.177-.037 1.624-.877 3.458-2.691 3.235z"/><path d="m310.518 474.822c-2.777 0-5.035-2.249-5.035-5.035-.104-3.778 4.338-6.317 7.535-4.369.335 1.179.143 4.904.191 6.168-.037 1.62-.878 3.46-2.691 3.236z"/></g></g></g><g><g><path d="m151.389 379.175c4.883 4.877 12.787 4.882 17.666 0 0 0 39.779-39.779 39.779-39.779l-17.666-17.666-39.779 39.779c-4.942 4.913-4.788 12.917 0 17.666z" fill="#57409b"/><path d="m148.582 374.862c4.562 1.761 9.759.769 13.353-2.808 0 0 39.779-39.779 39.779-39.779l-10.546-10.546-39.779 39.779c-3.615 3.616-4.545 8.889-2.807 13.354z" fill="#6c53a2"/><path d="m168.63 365.36 21.958-21.958c4.772-5.071-2.371-12.235-7.456-7.456 0 0-21.957 21.957-21.957 21.957-4.773 5.072 2.37 12.236 7.455 7.457z" fill="#9175a7"/></g><g><path d="m166.119 393.904 28.86 28.86c2.441 2.441 6.025 3.052 9.035 1.841 5.43-2.088 7.005-9.586 2.765-13.641 0 0-28.86-28.86-28.86-28.86-1.627-1.627-3.762-2.441-5.897-2.434-7.213-.133-11.204 9.041-5.903 14.234z" fill="#57409b"/><path d="m166.119 393.904 28.86 28.86c2.441 2.441 6.025 3.052 9.035 1.841 1.211-3.01.6-6.594-1.841-9.035l-28.86-28.86c-2.425-2.418-5.957-3.05-9.029-1.835-1.211 3.01-.606 6.589 1.835 9.029z" fill="#6c53a2"/><path d="m197.558 415.642c1.294-1.294 1.294-3.392 0-4.686l-20.02-20.02c-1.294-1.294-3.392-1.294-4.686 0s-1.294 3.392 0 4.686l20.02 20.02c1.294 1.294 3.392 1.294 4.686 0z" fill="#9175a7"/></g><g><g fill="#2e3140"><path d="m202.918 489.391c-1.34 0-2.426-1.086-2.426-2.426v-14.061h4.852v14.061c.001 1.34-1.086 2.426-2.426 2.426z"/><path d="m211.816 489.391c-1.34 0-2.426-1.086-2.426-2.426v-14.061h4.852v14.061c0 1.34-1.086 2.426-2.426 2.426z"/></g><g fill="#57409b"><path d="m202.869 475.764c1.645.008 7.155.006 8.888.006 2.312 0 4.184-1.872 4.184-4.184v-4.392c-.404-11.323-16.706-11.399-17.152 0v4.392c0 2.275 1.816 4.129 4.08 4.178z"/><path d="m202.973 458.618c2.452.007 6.305-.005 8.784 0 2.312 0 4.184-1.872 4.184-4.184v-4.392c-.403-11.32-16.704-11.396-17.146.006v4.392c-.006 2.306 1.866 4.178 4.178 4.178z"/><path d="m202.973 441.466c2.458.012 6.304.001 8.79.006 2.306-.006 4.178-1.878 4.178-4.178l.006-4.398c-.405-11.32-16.709-11.408-17.152 0v4.392c0 2.312 1.871 4.184 4.178 4.178z"/></g><path d="m205.349 475.774c2.301-.009 4.178-1.886 4.178-4.178v-4.403c0-3.599-2.215-6.687-5.372-7.95-3.183 1.239-5.385 4.487-5.364 7.95v4.395c.006 2.27 1.81 4.122 4.074 4.178h.078z" fill="#6c53a2"/><path d="m202.97 458.62h2.379c2.301 0 4.178-1.869 4.178-4.178v-4.395c0-3.599-2.224-6.687-5.372-7.959-3.168 1.255-5.392 4.492-5.364 7.959v4.395c-.001 2.312 1.889 4.179 4.179 4.178z" fill="#6c53a2"/><path d="m205.34 441.474c2.302-.015 4.19-1.856 4.187-4.187v-4.395c0-3.59-2.224-6.678-5.372-7.959-3.164 1.263-5.389 4.496-5.364 7.959v4.395c-.001 2.304 1.88 4.181 4.178 4.178z" fill="#6c53a2"/><g fill="#9175a7"><path d="m201.482 440.531c2.777 0 5.035-2.258 5.035-5.043.104-3.778-4.338-6.317-7.535-4.369-.335 1.179-.143 4.904-.191 6.168.036 1.61.878 3.473 2.691 3.244z"/><path d="m201.482 457.677c2.777 0 5.035-2.258 5.035-5.035.104-3.787-4.334-6.325-7.535-4.377-.335 1.179-.143 4.91-.191 6.177.037 1.624.877 3.458 2.691 3.235z"/><path d="m201.482 474.822c2.777 0 5.035-2.249 5.035-5.035.104-3.778-4.338-6.317-7.535-4.369-.335 1.179-.143 4.904-.191 6.168.037 1.62.878 3.46 2.691 3.236z"/></g></g></g></g><g><g><g><path d="m389.579 249.919c-.004 6.901-5.59 12.494-12.492 12.492h-56.256v-24.983h56.256c6.969-.021 12.52 5.748 12.492 12.491z" fill="#57409b"/><path d="m388.515 244.884c-1.98 4.471-6.357 7.444-11.428 7.457h-56.256v-14.914h56.256c5.113.001 9.499 3.072 11.428 7.457z" fill="#6c53a2"/><path d="m367.62 252.341h-31.053c-6.96-.211-6.975-10.328 0-10.544h31.052c2.912 0 5.272 2.36 5.272 5.272s-2.36 5.272-5.271 5.272z" fill="#9175a7"/></g><g><path d="m389.579 270.75v40.814c-.43 11.093-16.291 11.028-16.687 0v-40.814c0-2.301.934-4.386 2.448-5.891 5.006-5.195 14.315-1.529 14.239 5.891z" fill="#57409b"/><path d="m389.579 270.75v40.814c0 3.452-2.102 6.419-5.087 7.691-2.985-1.272-5.087-4.239-5.087-7.691v-40.814c.005-3.425 2.055-6.369 5.087-7.682 2.985 1.272 5.087 4.231 5.087 7.682z" fill="#6c53a2"/><path d="m382.719 308.352c-1.83 0-3.313-1.483-3.313-3.313v-28.313c0-1.83 1.483-3.313 3.313-3.313s3.313 1.483 3.313 3.313v28.313c0 1.829-1.483 3.313-3.313 3.313z" fill="#9175a7"/></g><g><g fill="#3e4e60"><path d="m431.077 364.29c.947-.947.947-2.484 0-3.431l-9.943-9.943-3.431 3.431 9.943 9.943c.948.948 2.484.948 3.431 0z"/><path d="m424.786 370.582c.948-.948.948-2.484 0-3.431l-9.943-9.943-3.431 3.431 9.943 9.943c.947.948 2.483.948 3.431 0z"/></g><g fill="#57409b"><path d="m421.476 354.619c-1.157 1.169-5.055 5.064-6.28 6.289-1.635 1.635-4.282 1.635-5.917 0l-3.106-3.105c-7.732-8.265 3.778-19.886 12.128-12.128 0 0 3.105 3.105 3.105 3.105 1.61 1.609 1.636 4.204.07 5.839z"/><path d="m409.279 342.569c-1.729 1.738-4.462 4.455-6.211 6.211-1.635 1.635-4.282 1.635-5.917 0l-3.106-3.105c-7.73-8.262 3.779-19.882 12.128-12.12 0 0 3.106 3.106 3.106 3.106 1.635 1.626 1.635 4.273 0 5.908z"/><path d="m397.151 330.441c-1.73 1.747-4.457 4.459-6.211 6.22-1.635 1.626-4.282 1.626-5.908 0l-3.114-3.106c-7.729-8.263 3.774-19.893 12.128-12.128 0 0 3.105 3.105 3.105 3.105 1.635 1.635 1.635 4.282 0 5.909z"/></g><path d="m419.73 356.381c-1.633 1.621-4.288 1.621-5.909 0l-3.113-3.114c-2.545-2.545-3.162-6.294-1.823-9.42 3.127-1.374 6.98-.635 9.414 1.829 0 0 3.107 3.107 3.107 3.107 1.6 1.609 1.635 4.195.073 5.836 0 0-.055.055-.055.055z" fill="#6c53a2"/><path d="m409.282 342.569-1.682 1.682c-1.627 1.627-4.276 1.633-5.909 0l-3.107-3.107c-2.545-2.545-3.156-6.301-1.829-9.426 3.127-1.353 6.989-.636 9.42 1.835 0 0 3.107 3.107 3.107 3.107 1.636 1.633 1.621 4.29 0 5.909z" fill="#6c53a2"/><path d="m395.482 332.121c-1.639 1.617-4.275 1.65-5.921 0 0 0-3.107-3.107-3.107-3.107-2.539-2.539-3.15-6.295-1.829-9.426 3.13-1.345 6.99-.631 9.42 1.835 0 0 3.107 3.107 3.107 3.107 1.63 1.629 1.627 4.286 0 5.909z" fill="#6c53a2"/><g fill="#9175a7"><path d="m397.544 328.726c-1.964 1.964-5.157 1.964-7.126-.006-2.745-2.598-1.399-7.534 2.239-8.417 1.07.596 3.569 3.366 4.496 4.227 1.113 1.163 1.834 3.076.391 4.196z"/><path d="m409.667 340.85c-1.964 1.964-5.157 1.964-7.12 0-2.751-2.604-1.408-7.538 2.233-8.423 1.07.597 3.573 3.371 4.502 4.233 1.124 1.174 1.826 3.065.385 4.19z"/><path d="m421.791 352.973c-1.964 1.964-5.151 1.97-7.12 0-2.745-2.598-1.399-7.534 2.239-8.417 1.07.597 3.568 3.366 4.496 4.227 1.119 1.171 1.826 3.066.385 4.19z"/></g></g></g><g><g><path d="m122.421 249.919c.004 6.901 5.59 12.494 12.492 12.492h56.256v-24.983h-56.256c-6.969-.021-12.52 5.748-12.492 12.491z" fill="#57409b"/><path d="m123.485 244.884c1.98 4.471 6.357 7.444 11.428 7.457h56.256v-14.914h-56.256c-5.113.001-9.499 3.072-11.428 7.457z" fill="#6c53a2"/><path d="m144.38 252.341h31.053c6.96-.211 6.975-10.328 0-10.544h-31.053c-2.912 0-5.272 2.36-5.272 5.272s2.361 5.272 5.272 5.272z" fill="#9175a7"/></g><g><path d="m122.421 270.75v40.814c.43 11.093 16.291 11.028 16.687 0v-40.814c0-2.301-.934-4.386-2.448-5.891-5.006-5.195-14.315-1.529-14.239 5.891z" fill="#57409b"/><path d="m122.421 270.75v40.814c0 3.452 2.102 6.419 5.087 7.691 2.985-1.272 5.087-4.239 5.087-7.691v-40.814c-.005-3.425-2.055-6.369-5.087-7.682-2.985 1.272-5.087 4.231-5.087 7.682z" fill="#6c53a2"/><path d="m129.281 308.352c1.83 0 3.313-1.483 3.313-3.313v-28.313c0-1.83-1.483-3.313-3.313-3.313s-3.313 1.483-3.313 3.313v28.313c0 1.829 1.483 3.313 3.313 3.313z" fill="#9175a7"/></g><g><g fill="#2e3140"><path d="m80.923 364.29c-.947-.947-.947-2.484 0-3.431l9.943-9.943 3.431 3.431-9.943 9.943c-.948.948-2.484.948-3.431 0z"/><path d="m87.214 370.582c-.947-.948-.947-2.484 0-3.431l9.943-9.943 3.431 3.431-9.943 9.943c-.947.948-2.483.948-3.431 0z"/></g><g fill="#57409b"><path d="m90.524 354.619c1.157 1.169 5.055 5.064 6.28 6.289 1.635 1.635 4.282 1.635 5.917 0l3.106-3.105c7.732-8.265-3.778-19.886-12.128-12.128 0 0-3.105 3.105-3.105 3.105-1.61 1.609-1.636 4.204-.07 5.839z"/><path d="m102.721 342.569c1.729 1.738 4.462 4.455 6.211 6.211 1.635 1.635 4.282 1.635 5.917 0l3.106-3.105c7.73-8.262-3.779-19.882-12.128-12.12 0 0-3.106 3.106-3.106 3.106-1.635 1.626-1.635 4.273 0 5.908z"/><path d="m114.849 330.441c1.73 1.747 4.457 4.459 6.211 6.22 1.635 1.626 4.282 1.626 5.908 0l3.114-3.106c7.729-8.263-3.774-19.893-12.128-12.128 0 0-3.105 3.105-3.105 3.105-1.635 1.635-1.635 4.282 0 5.909z"/></g><path d="m92.27 356.381c1.633 1.621 4.288 1.621 5.909 0l3.114-3.114c2.545-2.545 3.162-6.294 1.823-9.42-3.127-1.374-6.98-.635-9.414 1.829 0 0-3.107 3.107-3.107 3.107-1.6 1.609-1.635 4.195-.073 5.836 0 0 .055.055.055.055z" fill="#6c53a2"/><path d="m102.718 342.569 1.682 1.682c1.627 1.627 4.276 1.633 5.909 0l3.107-3.107c2.545-2.545 3.156-6.301 1.829-9.426-3.127-1.353-6.989-.636-9.42 1.835 0 0-3.107 3.107-3.107 3.107-1.636 1.633-1.621 4.29 0 5.909z" fill="#6c53a2"/><path d="m116.518 332.121c1.639 1.617 4.275 1.65 5.921 0 0 0 3.107-3.107 3.107-3.107 2.539-2.539 3.15-6.295 1.829-9.426-3.13-1.345-6.99-.631-9.42 1.835 0 0-3.107 3.107-3.107 3.107-1.63 1.629-1.627 4.286 0 5.909z" fill="#6c53a2"/><g fill="#9175a7"><path d="m114.456 328.726c1.964 1.964 5.157 1.964 7.126-.006 2.745-2.598 1.399-7.534-2.239-8.417-1.07.596-3.569 3.366-4.496 4.227-1.113 1.163-1.834 3.076-.391 4.196z"/><path d="m102.333 340.85c1.964 1.964 5.157 1.964 7.12 0 2.751-2.604 1.408-7.538-2.233-8.423-1.071.597-3.573 3.371-4.502 4.233-1.124 1.174-1.826 3.065-.385 4.19z"/><path d="m90.209 352.973c1.964 1.964 5.151 1.97 7.12 0 2.745-2.598 1.399-7.534-2.239-8.417-1.071.597-3.568 3.366-4.496 4.227-1.119 1.171-1.826 3.066-.385 4.19z"/></g></g></g></g><g><g><g><path d="m358.259 188.474c-.004 6.901-5.59 12.494-12.492 12.492h-56.256v-24.983h56.256c6.97-.021 12.521 5.747 12.492 12.491z" fill="#57409b"/><path d="m357.195 183.439c-1.98 4.471-6.357 7.444-11.428 7.457h-56.256v-14.914h56.256c5.113.001 9.499 3.071 11.428 7.457z" fill="#6c53a2"/><path d="m336.3 190.896h-31.053c-6.96-.211-6.975-10.328 0-10.544h31.052c2.912 0 5.272 2.36 5.272 5.272s-2.359 5.272-5.271 5.272z" fill="#9175a7"/></g><g><path d="m358.259 126.664v40.814c-.43 11.093-16.291 11.028-16.687 0v-40.814c0-2.301.934-4.386 2.448-5.891 5.006-5.195 14.315-1.53 14.239 5.891z" fill="#57409b"/><path d="m358.259 126.664v40.814c0 3.452-2.102 6.419-5.087 7.691-2.985-1.272-5.087-4.239-5.087-7.691v-40.814c.005-3.425 2.055-6.369 5.087-7.682 2.985 1.272 5.087 4.23 5.087 7.682z" fill="#6c53a2"/><path d="m351.399 164.265c-1.83 0-3.313-1.483-3.313-3.313v-28.313c0-1.83 1.483-3.313 3.313-3.313s3.313 1.483 3.313 3.313v28.313c.001 1.83-1.483 3.313-3.313 3.313z" fill="#9175a7"/></g><g><g fill="#3e4e60"><path d="m386.948 65.87c-.947-.947-2.484-.947-3.431 0l-9.943 9.943 3.431 3.431 9.943-9.943c.948-.948.948-2.484 0-3.431z"/><path d="m393.24 72.161c-.948-.947-2.484-.947-3.431 0l-9.943 9.943 3.431 3.431 9.943-9.943c.948-.947.948-2.483 0-3.431z"/></g><g fill="#57409b"><path d="m377.277 75.471c1.169 1.157 5.064 5.055 6.289 6.28 1.635 1.635 1.635 4.282 0 5.917l-3.105 3.106c-8.265 7.732-19.886-3.778-12.128-12.128 0 0 3.105-3.105 3.105-3.105 1.609-1.61 4.204-1.636 5.839-.07z"/><path d="m365.227 87.668c1.738 1.729 4.455 4.462 6.211 6.211 1.635 1.635 1.635 4.282 0 5.917l-3.105 3.106c-8.262 7.73-19.882-3.779-12.12-12.128 0 0 3.106-3.106 3.106-3.106 1.626-1.635 4.273-1.635 5.908 0z"/><path d="m353.099 99.797c1.747 1.73 4.459 4.457 6.22 6.211 1.626 1.635 1.626 4.282 0 5.908l-3.106 3.114c-8.263 7.729-19.893-3.774-12.128-12.128 0 0 3.105-3.105 3.105-3.105 1.635-1.635 4.282-1.635 5.909 0z"/></g><path d="m379.039 77.217c1.621 1.633 1.621 4.288 0 5.909l-3.114 3.114c-2.545 2.545-6.294 3.162-9.42 1.823-1.374-3.127-.635-6.98 1.829-9.414 0 0 3.107-3.107 3.107-3.107 1.609-1.6 4.195-1.635 5.836-.073 0 0 .055.055.055.055z" fill="#6c53a2"/><path d="m365.226 87.665 1.682 1.682c1.627 1.627 1.633 4.276 0 5.909l-3.107 3.107c-2.545 2.545-6.301 3.156-9.426 1.829-1.353-3.127-.636-6.989 1.835-9.42 0 0 3.107-3.107 3.107-3.107 1.634-1.636 4.291-1.621 5.909 0z" fill="#6c53a2"/><path d="m354.778 101.465c1.617 1.639 1.65 4.275 0 5.921 0 0-3.107 3.107-3.107 3.107-2.539 2.539-6.295 3.15-9.426 1.829-1.345-3.13-.631-6.99 1.835-9.42 0 0 3.107-3.107 3.107-3.107 1.629-1.63 4.286-1.627 5.909 0z" fill="#6c53a2"/><g fill="#9175a7"><path d="m351.384 99.404c1.964 1.964 1.964 5.157-.006 7.126-2.598 2.745-7.534 1.399-8.417-2.239.596-1.07 3.366-3.569 4.227-4.496 1.162-1.113 3.075-1.835 4.196-.391z"/><path d="m363.507 87.28c1.964 1.964 1.964 5.157 0 7.12-2.604 2.751-7.538 1.408-8.423-2.233.597-1.071 3.371-3.573 4.233-4.502 1.175-1.123 3.066-1.826 4.19-.385z"/><path d="m375.631 75.156c1.964 1.964 1.97 5.151 0 7.12-2.598 2.745-7.534 1.399-8.417-2.239.597-1.071 3.366-3.568 4.227-4.496 1.171-1.119 3.066-1.826 4.19-.385z"/></g></g></g><g><g><path d="m153.742 188.474c.004 6.901 5.59 12.494 12.492 12.492h56.256v-24.983h-56.256c-6.97-.021-12.521 5.747-12.492 12.491z" fill="#57409b"/><path d="m154.806 183.439c1.98 4.471 6.357 7.444 11.428 7.457h56.256v-14.914h-56.256c-5.113.001-9.499 3.071-11.428 7.457z" fill="#6c53a2"/><path d="m175.701 190.896h31.053c6.96-.211 6.975-10.328 0-10.544h-31.053c-2.912 0-5.272 2.36-5.272 5.272s2.36 5.272 5.272 5.272z" fill="#9175a7"/></g><g><path d="m153.742 126.664v40.814c.43 11.093 16.291 11.028 16.687 0v-40.814c0-2.301-.934-4.386-2.448-5.891-5.007-5.195-14.315-1.53-14.239 5.891z" fill="#57409b"/><path d="m153.742 126.664v40.814c0 3.452 2.102 6.419 5.087 7.691 2.985-1.272 5.087-4.239 5.087-7.691v-40.814c-.005-3.425-2.055-6.369-5.087-7.682-2.985 1.272-5.087 4.23-5.087 7.682z" fill="#6c53a2"/><path d="m160.601 164.265c1.83 0 3.313-1.483 3.313-3.313v-28.313c0-1.83-1.483-3.313-3.313-3.313s-3.313 1.483-3.313 3.313v28.313c0 1.83 1.484 3.313 3.313 3.313z" fill="#9175a7"/></g><g><g fill="#2e3140"><path d="m125.052 65.87c.947-.947 2.484-.947 3.431 0l9.943 9.943-3.431 3.431-9.943-9.943c-.947-.948-.947-2.484 0-3.431z"/><path d="m118.761 72.161c.947-.947 2.484-.947 3.431 0l9.943 9.943-3.431 3.431-9.943-9.943c-.948-.947-.948-2.483 0-3.431z"/></g><g fill="#57409b"><path d="m134.724 75.471c-1.169 1.157-5.064 5.055-6.289 6.28-1.635 1.635-1.635 4.282 0 5.917l3.105 3.106c8.265 7.732 19.886-3.778 12.128-12.128 0 0-3.105-3.105-3.105-3.105-1.609-1.61-4.204-1.636-5.839-.07z"/><path d="m146.774 87.668c-1.738 1.729-4.455 4.462-6.211 6.211-1.635 1.635-1.635 4.282 0 5.917l3.105 3.106c8.262 7.73 19.882-3.779 12.12-12.128 0 0-3.106-3.106-3.106-3.106-1.626-1.635-4.273-1.635-5.908 0z"/><path d="m158.902 99.797c-1.747 1.73-4.458 4.457-6.22 6.211-1.626 1.635-1.626 4.282 0 5.908l3.106 3.114c8.263 7.729 19.893-3.774 12.128-12.128 0 0-3.105-3.105-3.105-3.105-1.635-1.635-4.282-1.635-5.909 0z"/></g><path d="m132.962 77.217c-1.621 1.633-1.621 4.288 0 5.909l3.114 3.114c2.545 2.545 6.294 3.162 9.42 1.823 1.374-3.127.635-6.98-1.829-9.414 0 0-3.107-3.107-3.107-3.107-1.609-1.6-4.195-1.635-5.836-.073 0 0-.055.055-.055.055z" fill="#6c53a2"/><path d="m146.774 87.665-1.682 1.682c-1.627 1.627-1.633 4.276 0 5.909l3.107 3.107c2.545 2.545 6.301 3.156 9.426 1.829 1.353-3.127.636-6.989-1.835-9.42 0 0-3.107-3.107-3.107-3.107-1.633-1.636-4.29-1.621-5.909 0z" fill="#6c53a2"/><path d="m157.222 101.465c-1.617 1.639-1.65 4.275 0 5.921 0 0 3.107 3.107 3.107 3.107 2.539 2.539 6.295 3.15 9.426 1.829 1.345-3.13.631-6.99-1.835-9.42 0 0-3.107-3.107-3.107-3.107-1.629-1.63-4.286-1.627-5.909 0z" fill="#6c53a2"/><g fill="#9175a7"><path d="m160.617 99.404c-1.964 1.964-1.964 5.157.006 7.126 2.598 2.745 7.534 1.399 8.417-2.239-.596-1.07-3.366-3.569-4.227-4.496-1.163-1.113-3.076-1.835-4.196-.391z"/><path d="m148.493 87.28c-1.964 1.964-1.964 5.157 0 7.12 2.604 2.751 7.538 1.408 8.423-2.233-.597-1.071-3.371-3.573-4.233-4.502-1.174-1.123-3.065-1.826-4.19-.385z"/><path d="m136.37 75.156c-1.964 1.964-1.97 5.151 0 7.12 2.598 2.745 7.534 1.399 8.417-2.239-.597-1.071-3.366-3.568-4.227-4.496-1.171-1.119-3.066-1.826-4.19-.385z"/></g></g></g></g></g><g><g><g><path d="m320.832 236.145v107.366c.001 35.802-29.03 64.832-64.832 64.832-35.806 0-64.832-29.026-64.832-64.832v-107.366c0-9.641 4.75-18.17 12.042-23.372 4.665-3.368 10.648-5.36 16.658-5.328h72.264c15.85 0 28.7 12.85 28.7 28.7z" fill="#f9c744"/><path d="m320.832 236.145v107.366c.001 35.802-29.03 64.832-64.832 64.832v-200.898h36.132c.837 0 1.667.037 2.49.104 14.632 1.254 26.214 13.547 26.21 28.596z" fill="#fad98f"/><path d="m283.507 207.445v170.16c0 3.912-3.172 7.084-7.084 7.084-3.913 0-7.084-3.172-7.084-7.084v-170.16z" fill="#faefdc"/><path d="m308.79 212.773v135.191c0 3.912-3.172 7.084-7.084 7.084-3.913 0-7.084-3.172-7.084-7.084v-140.415c5.261.452 10.107 2.327 14.168 5.224z" fill="#faefdc"/><g fill="#fad98f"><path d="m242.662 207.445v170.16c0 3.912-3.172 7.084-7.084 7.084-3.913 0-7.084-3.172-7.084-7.084v-170.16z"/><path d="m217.378 207.549v140.416c0 3.912-3.172 7.084-7.084 7.084-3.913 0-7.084-3.172-7.084-7.084v-135.192c4.061-2.897 8.907-4.772 14.168-5.224z"/></g></g><g><path d="m269.338 207.445v24.246c0 7.366-5.973 13.338-13.338 13.338s-13.338-5.973-13.338-13.338v-24.246z" fill="#57409b"/><path d="m269.338 207.445v24.246c0 7.366-5.973 13.338-13.338 13.338v-37.585h13.338z" fill="#6c53a2"/></g></g><g><g><path d="m309.666 169.289v10.051c0 15.526-12.588 28.105-28.106 28.105h-51.121c-15.518 0-28.106-12.58-28.106-28.105v-10.051c0-15.518 12.588-28.106 28.106-28.106h51.121c15.519 0 28.106 12.588 28.106 28.106z" fill="#57409b"/><path d="m309.669 169.287v10.052c.29 23.673-29.168 37.58-46.178 20.614-4.628-4.619-7.491-11.012-7.491-18.071v-15.139c0-5.13 1.514-9.905 4.126-13.91 14.991-22.429 49.59-10.008 49.543 16.454z" fill="#6c53a2"/></g><path d="m283.763 152.838h-55.527c-15.341.614-15.365 22.521 0 23.146h55.527c6.391 0 11.573-5.181 11.573-11.573s-5.181-11.573-11.573-11.573z" fill="#6c53a2"/><path d="m295.335 164.408c0 6.393-5.182 11.575-11.575 11.575h-27.76v-9.239c0-5.13 1.514-9.905 4.126-13.91h23.634c6.389-.001 11.575 5.185 11.575 11.574z" fill="#9175a7"/></g><g><g><g><path d="m281.632 107.451v16.203c0 9.68-7.846 17.527-17.535 17.527h-16.194c-9.689 0-17.535-7.846-17.535-17.527v-16.203c0-9.68 7.846-17.526 17.535-17.526h16.194c9.689 0 17.535 7.846 17.535 17.526z" fill="#57409b"/><path d="m281.632 107.451v16.203c0 9.68-7.846 17.527-17.535 17.527-4.472 0-8.097-3.625-8.097-8.097v-43.159h8.097c9.689 0 17.535 7.846 17.535 17.526z" fill="#6c53a2"/></g><g><g><path d="m285.563 103.912c4.481 2.587 6.04 8.285 3.517 12.786-.016.041-.037.079-.059.117l-3.286 5.691c-6.698 10.637-22.22 1.591-16.367-9.45 0 0 3.286-5.691 3.286-5.691 2.613-4.517 8.389-6.063 12.909-3.453z" fill="#2e3140"/><path d="m285.563 103.912c4.481 2.587 6.04 8.285 3.517 12.786-5.91 3.307-14.654 2.262-20.198-2.67.178-.554 3.421-6.016 3.771-6.663 2.614-4.517 8.39-6.063 12.91-3.453z" fill="#3e4e60"/><path d="m277.357 107.749-1.977 3.424c-.851 1.474-.346 3.36 1.128 4.211s3.36.346 4.211-1.128l1.977-3.424c1.944-3.572-3.217-6.553-5.339-3.083z" fill="#fff"/></g><g><path d="m226.437 103.912c-4.481 2.587-6.04 8.285-3.517 12.786.016.041.037.079.059.117l3.286 5.691c6.698 10.637 22.22 1.591 16.367-9.45 0 0-3.286-5.691-3.286-5.691-2.613-4.517-8.389-6.063-12.909-3.453z" fill="#2e3140"/><path d="m226.437 103.912c-4.481 2.587-6.04 8.285-3.517 12.786 5.91 3.307 14.654 2.262 20.198-2.67-.178-.554-3.421-6.016-3.771-6.663-2.614-4.517-8.39-6.063-12.91-3.453z" fill="#3e4e60"/><path d="m234.643 107.749 1.977 3.424c.851 1.474.346 3.36-1.128 4.211s-3.36.346-4.211-1.128l-1.977-3.424c-1.944-3.572 3.217-6.553 5.339-3.083z" fill="#fff"/></g></g></g><g><g><path d="m322.935 57.76c0 3.31-1.48 6.6-4.37 8.77l-44.99 33.86c-1.2.9-2.88.79-3.94-.28-1.07-1.06-1.18-2.74-.28-3.94 2.549-3.374 30.496-40.536 33.86-44.99 6.406-8.448 19.76-3.707 19.72 6.58z" fill="#6c53a2"/><path d="m317.055 51.9c0 3.3-1.48 6.59-4.37 8.76l-23.115 17.394c-2.483 1.868-5.625-1.274-3.756-3.757l17.401-23.117c3.257-4.861 13.315-6.893 13.84.72z" fill="#9175a7"/></g><g><path d="m189.065 57.76c0 3.31 1.48 6.6 4.37 8.77l44.99 33.86c1.2.9 2.88.79 3.94-.28 1.07-1.06 1.18-2.74.28-3.94-2.549-3.374-30.496-40.536-33.86-44.99-6.406-8.448-19.76-3.707-19.72 6.58z" fill="#57409b"/><path d="m194.945 51.9c0 3.3 1.48 6.59 4.37 8.76l23.115 17.394c2.483 1.868 5.625-1.274 3.756-3.757l-17.4-23.117c-3.258-4.861-13.316-6.893-13.841.72z" fill="#6c53a2"/></g></g><g><path d="m263.729 92.777 8.435-8.435c1.077-1.077 1.077-2.823 0-3.901l-2.724-2.724c-1.077-1.077-2.823-1.077-3.901 0l-2.932 2.932c-1.077 1.077-1.077 2.823 0 3.901 1.077 1.077 1.077 2.823 0 3.901l-1.603 1.603c-1.757 1.815.904 4.485 2.725 2.723z" fill="#3e4e60"/><path d="m250.99 92.78c-.742.75-1.977.749-2.72 0 0 0-8.43-8.44-8.43-8.44-.94-.94-1.06-2.38-.36-3.45.105-.273 2.827-2.891 3.08-3.17 1.08-1.08 2.82-1.08 3.9 0l2.93 2.93c1.08 1.08 1.08 2.82 0 3.9-.54.54-.81 1.25-.81 1.95-.136 1.397 1.556 2.644 2.41 3.55.76.76.76 1.97 0 2.73z" fill="#2e3140"/></g></g></g></g></g></svg>