<svg id="Icons" enable-background="new 0 0 512 512" height="512" viewBox="0 0 512 512" width="512" xmlns="http://www.w3.org/2000/svg"><g><circle cx="256" cy="256" fill="#53b976" r="256"/><g><g><g><g><g><path d="m321.116 288.771c0 5.986-4.857 10.844-10.852 10.844h-40.322c-5.994 0-10.852-4.857-10.852-10.844-.048-5.891 4.872-10.893 10.852-10.852h40.322c6.044-.019 10.89 4.986 10.852 10.852z" fill="#2e3140"/><path d="m320.205 284.407c-1.68 3.821-5.501 6.488-9.941 6.488h-40.322c-4.439 0-8.26-2.667-9.94-6.488 1.721-3.892 5.537-6.478 9.94-6.488h40.322c4.439.001 8.26 2.667 9.941 6.488z" fill="#334353"/><path d="m301.773 282.404h-23.34c-4.69 0-8.491 3.802-8.491 8.491h40.322c0-4.69-3.802-8.491-8.491-8.491z" fill="#3f5d77"/></g><g><path d="m359.671 336.044c-2.53 2.53-6.635 2.53-9.168-.003l-31.125-31.125c-2.533-2.533-2.533-6.638-.003-9.168 2.47-2.51 6.662-2.544 9.172 0 0 0 31.125 31.125 31.125 31.125 2.561 2.545 2.494 6.708-.001 9.171z" fill="#2e3140"/><path d="m361.13 333.815c-2.325.904-5.066.417-6.942-1.459l-31.125-31.125c-1.876-1.876-2.364-4.618-1.459-6.942 2.372-.917 5.078-.398 6.942 1.459 0 0 31.125 31.125 31.125 31.125 1.876 1.876 2.364 4.617 1.459 6.942z" fill="#334353"/><path d="m354.188 325.18-23.949-23.949c-1.982-1.982-5.195-1.982-7.176 0l31.125 31.125c1.982-1.982 1.982-5.195 0-7.176z" fill="#3f5d77"/></g><g><g fill="#2e3140"><path d="m380.686 414.596c1.204-1.204 1.204-3.157 0-4.361l-10.456-10.456c-2.944-2.801-7.166 1.41-4.361 4.361 0 0 10.456 10.456 10.456 10.456 1.204 1.205 3.157 1.205 4.361 0z"/><path d="m373.784 421.498c1.204-1.204 1.204-3.157 0-4.361l-10.456-10.456c-2.944-2.801-7.166 1.41-4.361 4.361 0 0 10.456 10.456 10.456 10.456 1.205 1.204 3.157 1.204 4.361 0z"/></g><g><path d="m361.569 408.074c-3.577 0-6.48-2.903-6.48-6.485v-57.622c0-3.582 2.903-6.485 6.48-6.485 3.521-.028 6.51 2.911 6.485 6.485v57.622c.012 3.612-2.979 6.508-6.485 6.485z" fill="#2e3140"/><path d="m364.177 407.53c-2.283-1.004-3.877-3.288-3.877-5.941v-57.622c0-2.653 1.594-4.936 3.877-5.941 2.326 1.029 3.872 3.309 3.877 5.941v57.622c0 2.653-1.594 4.936-3.877 5.941z" fill="#334353"/><path d="m365.374 396.514v-47.473c0-2.803-2.272-5.074-5.074-5.074v57.622c2.802 0 5.074-2.272 5.074-5.075z" fill="#3f5d77"/></g></g></g><g><g><path d="m190.884 288.771c0 5.986 4.857 10.844 10.852 10.844h40.322c5.994 0 10.852-4.857 10.852-10.844.048-5.891-4.872-10.893-10.852-10.852h-40.322c-6.044-.019-10.89 4.986-10.852 10.852z" fill="#2e3140"/><path d="m191.795 284.407c1.68 3.821 5.501 6.488 9.941 6.488h40.322c4.439 0 8.26-2.667 9.94-6.488-1.721-3.892-5.537-6.478-9.94-6.488h-40.322c-4.439.001-8.26 2.667-9.941 6.488z" fill="#334353"/><path d="m210.227 282.404h23.34c4.69 0 8.491 3.802 8.491 8.491h-40.322c0-4.69 3.802-8.491 8.491-8.491z" fill="#3f5d77"/></g><g><path d="m152.329 336.044c2.53 2.53 6.635 2.53 9.168-.003l31.125-31.125c2.533-2.533 2.533-6.638.003-9.168-2.47-2.51-6.662-2.544-9.172 0 0 0-31.125 31.125-31.125 31.125-2.561 2.545-2.494 6.708.001 9.171z" fill="#2e3140"/><path d="m150.87 333.815c2.325.904 5.066.417 6.942-1.459l31.125-31.125c1.876-1.876 2.364-4.618 1.459-6.942-2.372-.917-5.078-.398-6.942 1.459 0 0-31.125 31.125-31.125 31.125-1.876 1.876-2.364 4.617-1.459 6.942z" fill="#334353"/><path d="m157.812 325.18 23.949-23.949c1.982-1.982 5.195-1.982 7.176 0l-31.125 31.125c-1.982-1.982-1.982-5.195 0-7.176z" fill="#3f5d77"/></g><g><g fill="#2e3140"><path d="m131.314 414.596c-1.204-1.204-1.204-3.157 0-4.361l10.456-10.456c2.944-2.801 7.166 1.41 4.361 4.361 0 0-10.456 10.456-10.456 10.456-1.204 1.205-3.157 1.205-4.361 0z"/><path d="m138.216 421.498c-1.204-1.204-1.204-3.157 0-4.361l10.456-10.456c2.944-2.801 7.166 1.41 4.361 4.361 0 0-10.456 10.456-10.456 10.456-1.205 1.204-3.157 1.204-4.361 0z"/></g><g><path d="m150.431 408.074c3.577 0 6.48-2.903 6.48-6.485v-57.622c0-3.582-2.903-6.485-6.48-6.485-3.521-.028-6.51 2.911-6.485 6.485v57.622c-.012 3.612 2.979 6.508 6.485 6.485z" fill="#2e3140"/><path d="m147.823 407.53c2.283-1.004 3.877-3.288 3.877-5.941v-57.622c0-2.653-1.594-4.936-3.877-5.941-2.326 1.029-3.872 3.309-3.877 5.941v57.622c0 2.653 1.594 4.936 3.877 5.941z" fill="#334353"/><path d="m146.626 396.514v-47.473c0-2.803 2.272-5.074 5.074-5.074v57.622c-2.802 0-5.074-2.272-5.074-5.075z" fill="#3f5d77"/></g></g></g></g><g><g><g><path d="m343.408 255.895c0 5.986-4.857 10.844-10.852 10.844h-40.322c-5.994 0-10.852-4.857-10.852-10.844-.048-5.891 4.872-10.893 10.852-10.852h40.322c6.044-.02 10.89 4.985 10.852 10.852z" fill="#2e3140"/><path d="m342.497 251.531c-1.68 3.821-5.501 6.488-9.941 6.488h-40.322c-4.439 0-8.26-2.667-9.94-6.488 1.721-3.892 5.537-6.478 9.94-6.488h40.322c4.439 0 8.26 2.667 9.941 6.488z" fill="#334353"/><path d="m324.065 249.527h-23.34c-4.69 0-8.491 3.802-8.491 8.491h40.322c0-4.689-3.802-8.491-8.491-8.491z" fill="#3f5d77"/></g><g><path d="m400.785 255.893c0 3.577-2.903 6.48-6.485 6.48h-44.018c-3.582 0-6.485-2.903-6.485-6.48-.028-3.521 2.912-6.51 6.485-6.485h44.018c3.611-.012 6.507 2.979 6.485 6.485z" fill="#2e3140"/><path d="m400.24 253.285c-1.004 2.283-3.288 3.877-5.941 3.877h-44.018c-2.653 0-4.936-1.594-5.941-3.877 1.028-2.326 3.309-3.872 5.941-3.877h44.018c2.654 0 4.937 1.594 5.941 3.877z" fill="#334353"/><path d="m389.225 252.088h-33.869c-2.803 0-5.074 2.272-5.074 5.074h44.018c-.001-2.802-2.272-5.074-5.075-5.074z" fill="#3f5d77"/></g><g><g fill="#2e3140"><path d="m465.797 303.05c0-1.703-1.381-3.084-3.084-3.084h-14.788c-1.703 0-3.084 1.381-3.084 3.084s1.381 3.084 3.084 3.084h14.788c1.704 0 3.084-1.381 3.084-3.084z"/><path d="m465.797 312.811c0-1.703-1.381-3.084-3.084-3.084h-14.788c-1.703 0-3.084 1.381-3.084 3.084s1.381 3.084 3.084 3.084h14.788c1.704-.001 3.084-1.382 3.084-3.084z"/></g><g><path d="m447.667 311.956c-2.53 2.53-6.635 2.53-9.168-.003l-40.745-40.745c-2.533-2.533-2.533-6.638-.003-9.168 2.47-2.51 6.662-2.544 9.172 0 0 0 40.745 40.745 40.745 40.745 2.562 2.545 2.495 6.708-.001 9.171z" fill="#2e3140"/><path d="m449.127 309.727c-2.325.904-5.066.417-6.942-1.459l-40.745-40.745c-1.876-1.876-2.364-4.618-1.459-6.942 2.372-.917 5.078-.398 6.942 1.459 0 0 40.745 40.745 40.745 40.745 1.875 1.876 2.363 4.617 1.459 6.942z" fill="#334353"/><path d="m442.184 301.091-33.568-33.568c-1.982-1.982-5.195-1.982-7.176 0l40.745 40.745c1.981-1.982 1.981-5.195-.001-7.177z" fill="#3f5d77"/></g></g></g><g><g><path d="m168.592 255.895c0 5.986 4.857 10.844 10.852 10.844h40.322c5.994 0 10.852-4.857 10.852-10.844.048-5.891-4.872-10.893-10.852-10.852h-40.322c-6.044-.02-10.89 4.985-10.852 10.852z" fill="#2e3140"/><path d="m169.503 251.531c1.68 3.821 5.501 6.488 9.941 6.488h40.322c4.439 0 8.26-2.667 9.94-6.488-1.721-3.892-5.537-6.478-9.94-6.488h-40.322c-4.439 0-8.26 2.667-9.941 6.488z" fill="#334353"/><path d="m187.935 249.527h23.34c4.69 0 8.491 3.802 8.491 8.491h-40.322c0-4.689 3.802-8.491 8.491-8.491z" fill="#3f5d77"/></g><g><path d="m111.215 255.893c0 3.577 2.903 6.48 6.485 6.48h44.018c3.582 0 6.485-2.903 6.485-6.48.028-3.521-2.912-6.51-6.485-6.485h-44.018c-3.611-.012-6.507 2.979-6.485 6.485z" fill="#2e3140"/><path d="m111.76 253.285c1.004 2.283 3.288 3.877 5.941 3.877h44.018c2.653 0 4.936-1.594 5.941-3.877-1.028-2.326-3.309-3.872-5.941-3.877h-44.018c-2.654 0-4.937 1.594-5.941 3.877z" fill="#334353"/><path d="m122.775 252.088h33.869c2.803 0 5.074 2.272 5.074 5.074h-44.018c.001-2.802 2.272-5.074 5.075-5.074z" fill="#3f5d77"/></g><g><g fill="#2e3140"><path d="m46.203 303.05c0-1.703 1.381-3.084 3.084-3.084h14.788c1.703 0 3.084 1.381 3.084 3.084s-1.381 3.084-3.084 3.084h-14.789c-1.703 0-3.083-1.381-3.083-3.084z"/><path d="m46.203 312.811c0-1.703 1.381-3.084 3.084-3.084h14.788c1.703 0 3.084 1.381 3.084 3.084s-1.381 3.084-3.084 3.084h-14.789c-1.703-.001-3.083-1.382-3.083-3.084z"/></g><g><path d="m64.333 311.956c2.53 2.53 6.635 2.53 9.168-.003l40.745-40.745c2.533-2.533 2.533-6.638.003-9.168-2.47-2.51-6.662-2.544-9.172 0 0 0-40.745 40.745-40.745 40.745-2.562 2.545-2.495 6.708.001 9.171z" fill="#2e3140"/><path d="m62.873 309.727c2.325.904 5.066.417 6.942-1.459l40.745-40.745c1.876-1.876 2.364-4.618 1.459-6.942-2.372-.917-5.078-.398-6.942 1.459 0 0-40.745 40.745-40.745 40.745-1.875 1.876-2.363 4.617-1.459 6.942z" fill="#334353"/><path d="m69.816 301.091 33.568-33.568c1.982-1.982 5.195-1.982 7.176 0l-40.745 40.745c-1.981-1.982-1.981-5.195.001-7.177z" fill="#3f5d77"/></g></g></g></g><g><g><g><path d="m326.511 191.527c4.233 4.233 4.233 11.102-.006 15.341l-28.512 28.512c-4.239 4.239-11.108 4.239-15.341.006-4.2-4.132-4.257-11.148 0-15.347 0 0 28.512-28.512 28.512-28.512 4.26-4.288 11.225-4.176 15.347 0z" fill="#2e3140"/><path d="m322.78 189.085c1.513 3.89.697 8.477-2.442 11.617l-28.512 28.512c-3.139 3.139-7.727 3.955-11.616 2.442-1.535-3.969-.665-8.496 2.441-11.617 0 0 28.512-28.512 28.512-28.512 3.14-3.14 7.727-3.956 11.617-2.442z" fill="#334353"/><path d="m308.33 200.702-16.504 16.504c-3.316 3.316-3.316 8.692 0 12.008l28.512-28.512c-3.315-3.316-8.692-3.316-12.008 0z" fill="#3f5d77"/></g><g><path d="m367.201 150.834c2.53 2.53 2.53 6.635-.003 9.168l-31.125 31.125c-2.533 2.533-6.638 2.533-9.168.003-2.51-2.47-2.544-6.662 0-9.172 0 0 31.125-31.125 31.125-31.125 2.545-2.562 6.708-2.495 9.171.001z" fill="#2e3140"/><path d="m364.972 149.374c.904 2.325.417 5.066-1.459 6.942l-31.125 31.125c-1.876 1.876-4.618 2.364-6.942 1.459-.917-2.372-.398-5.078 1.459-6.942 0 0 31.125-31.125 31.125-31.125 1.876-1.876 4.617-2.363 6.942-1.459z" fill="#334353"/><path d="m356.336 156.317-23.949 23.949c-1.982 1.982-1.982 5.195 0 7.176l31.125-31.125c-1.981-1.982-5.194-1.982-7.176 0z" fill="#3f5d77"/></g><g><g fill="#2e3140"><path d="m435.356 201.947c0-1.703-1.381-3.084-3.084-3.084h-14.788c-1.703 0-3.084 1.381-3.084 3.084s1.381 3.084 3.084 3.084h14.788c1.703-.001 3.084-1.381 3.084-3.084z"/><path d="m435.356 211.707c0-1.703-1.381-3.084-3.084-3.084h-14.788c-1.703 0-3.084 1.381-3.084 3.084s1.381 3.084 3.084 3.084h14.788c1.703-.001 3.084-1.381 3.084-3.084z"/></g><g><path d="m417.226 210.853c-2.53 2.53-6.635 2.53-9.168-.003l-40.745-40.745c-2.533-2.533-2.533-6.638-.003-9.168 2.47-2.51 6.662-2.545 9.172 0 0 0 40.745 40.745 40.745 40.745 2.561 2.545 2.494 6.708-.001 9.171z" fill="#2e3140"/><path d="m418.685 208.623c-2.325.904-5.066.417-6.942-1.459l-40.745-40.745c-1.876-1.876-2.364-4.618-1.459-6.942 2.372-.917 5.078-.398 6.942 1.459 0 0 40.745 40.745 40.745 40.745 1.876 1.876 2.364 4.618 1.459 6.942z" fill="#334353"/><path d="m411.743 199.988-33.568-33.568c-1.982-1.982-5.195-1.982-7.176 0l40.745 40.745c1.981-1.983 1.981-5.196-.001-7.177z" fill="#3f5d77"/></g></g></g><g><g><path d="m185.489 191.527c-4.233 4.233-4.233 11.102.006 15.341l28.512 28.512c4.239 4.239 11.108 4.239 15.341.006 4.2-4.132 4.257-11.148 0-15.347 0 0-28.512-28.512-28.512-28.512-4.26-4.288-11.225-4.176-15.347 0z" fill="#2e3140"/><path d="m189.22 189.085c-1.513 3.89-.697 8.477 2.442 11.617l28.512 28.512c3.139 3.139 7.727 3.955 11.616 2.442 1.535-3.969.665-8.496-2.441-11.617 0 0-28.512-28.512-28.512-28.512-3.14-3.14-7.727-3.956-11.617-2.442z" fill="#334353"/><path d="m203.67 200.702 16.504 16.504c3.316 3.316 3.316 8.692 0 12.008l-28.512-28.512c3.315-3.316 8.692-3.316 12.008 0z" fill="#3f5d77"/></g><g><path d="m144.799 150.834c-2.53 2.53-2.53 6.635.003 9.168l31.125 31.125c2.533 2.533 6.638 2.533 9.168.003 2.51-2.47 2.544-6.662 0-9.172 0 0-31.125-31.125-31.125-31.125-2.545-2.562-6.708-2.495-9.171.001z" fill="#2e3140"/><path d="m147.028 149.374c-.904 2.325-.417 5.066 1.459 6.942l31.125 31.125c1.876 1.876 4.618 2.364 6.942 1.459.917-2.372.398-5.078-1.459-6.942 0 0-31.125-31.125-31.125-31.125-1.876-1.876-4.617-2.363-6.942-1.459z" fill="#334353"/><path d="m155.664 156.317 23.949 23.949c1.982 1.982 1.982 5.195 0 7.176l-31.125-31.125c1.981-1.982 5.194-1.982 7.176 0z" fill="#3f5d77"/></g><g><g fill="#2e3140"><path d="m76.644 201.947c0-1.703 1.381-3.084 3.084-3.084h14.788c1.703 0 3.084 1.381 3.084 3.084s-1.381 3.084-3.084 3.084h-14.788c-1.703-.001-3.084-1.381-3.084-3.084z"/><path d="m76.644 211.707c0-1.703 1.381-3.084 3.084-3.084h14.788c1.703 0 3.084 1.381 3.084 3.084s-1.381 3.084-3.084 3.084h-14.788c-1.703-.001-3.084-1.381-3.084-3.084z"/></g><g><path d="m94.774 210.853c2.53 2.53 6.635 2.53 9.168-.003l40.745-40.745c2.533-2.533 2.533-6.638.003-9.168-2.47-2.51-6.662-2.545-9.172 0 0 0-40.745 40.745-40.745 40.745-2.561 2.545-2.494 6.708.001 9.171z" fill="#2e3140"/><path d="m93.315 208.623c2.325.904 5.066.417 6.942-1.459l40.745-40.745c1.876-1.876 2.364-4.618 1.459-6.942-2.372-.917-5.078-.398-6.942 1.459 0 0-40.745 40.745-40.745 40.745-1.876 1.876-2.364 4.618-1.459 6.942z" fill="#334353"/><path d="m100.257 199.988 33.568-33.568c1.982-1.982 5.195-1.982 7.176 0l-40.745 40.745c-1.981-1.983-1.981-5.196.001-7.177z" fill="#3f5d77"/></g></g></g></g></g><g><path d="m239.547 181.297h32.906v22.715h-32.906z" fill="#2e3140"/><path d="m256 181.297h16.453v22.715h-16.453z" fill="#334353"/></g><g><path d="m239.547 274.848h32.906v52.022h-32.906z" fill="#2e3140"/><path d="m256 274.848h16.453v52.022h-16.453z" fill="#334353"/></g><g><g><path d="m312.605 350.401v56.278c0 15.629-6.33 29.783-16.576 40.029-34.934 35.335-96.782 10.309-96.634-40.03v-56.277c0-19.928 16.148-36.076 36.076-36.076h41.058c19.928 0 36.076 16.148 36.076 36.076z" fill="#334353"/><path d="m312.605 350.401v56.278c.007 31.263-25.343 56.604-56.605 56.605v-148.959h20.529c19.928 0 36.076 16.148 36.076 36.076z" fill="#3e4e60"/></g><g><path d="m256 422.56v-96.346h16.525c14.623 0 26.478 11.855 26.478 26.478v26.865c0 23.751-19.253 43.003-43.003 43.003z" fill="#3f5d77"/><path d="m256 422.56v-96.346h-16.525c-14.623 0-26.478 11.855-26.478 26.478v26.865c0 23.751 19.253 43.003 43.003 43.003z" fill="#3e4e60"/></g><g><path d="m272.91 367.984h-16.91v-28.464h16.91c18.881.751 18.871 27.718 0 28.464z" fill="#3f6c8e"/><path d="m239.09 339.52h16.91v28.464h-16.91c-18.881-.751-18.871-27.718 0-28.464z" fill="#3f5d77"/></g></g><g><g><path d="m295.264 239.191c0 10.848-4.399 38.849-11.503 45.952-7.104 7.113-16.922 11.503-27.761 11.503s-20.657-4.39-27.761-11.503c-7.104-7.104-11.503-35.105-11.503-45.952 0-21.686 17.578-39.264 39.264-39.264 21.678-.002 39.261 17.579 39.264 39.264z" fill="#334353"/><path d="m295.264 239.191c0 10.848-4.399 38.849-11.503 45.952-7.104 7.113-16.922 11.503-27.761 11.503v-96.719c21.678-.002 39.261 17.579 39.264 39.264z" fill="#3e4e60"/></g><g><path d="m256 270.074c39.139-1.558 39.11-57.454 0-58.998z" fill="#3f5d77"/><path d="m256 211.076c-39.139 1.558-39.11 57.454 0 58.998z" fill="#3e4e60"/></g><g><path d="m267.626 247.463h-11.626v-19.57h11.626c12.981.516 12.975 19.058 0 19.57z" fill="#3f6c8e"/><path d="m244.374 227.894h11.626v19.57h-11.626c-12.981-.517-12.975-19.058 0-19.57z" fill="#3f5d77"/></g></g><g><g><path d="m303.616 130.931v24.91c0 14.062-11.394 25.457-25.456 25.457h-44.32c-14.062 0-25.456-11.394-25.456-25.457v-24.91c0-24.782 20.083-44.874 44.865-44.874 26.931-2.23 50.268 17.444 50.367 44.874z" fill="#334353"/><path d="m303.616 130.931v24.91c0 14.062-11.394 25.457-25.456 25.457h-22.16v-95.241c25.704-1.396 47.704 19.02 47.616 44.874z" fill="#3e4e60"/></g><g><g><path d="m268.96 127.182h-11.918c-.575 0-1.042-.467-1.042-1.042v-27.133c0-.575.467-1.042 1.042-1.042h11.918c19.377.769 19.373 28.45 0 29.217z" fill="#3f5d77"/><path d="m243.04 97.965h11.918c.575 0 1.042.467 1.042 1.042v27.133c0 .575-.467 1.042-1.042 1.042h-11.918c-19.377-.769-19.373-28.45 0-29.217z" fill="#3e4e60"/></g><g><path d="m268.526 117.379h-11.92c-.334 0-.606-.271-.606-.606v-15.769c0-.334.271-.606.606-.606h11.92c11.248.416 11.248 16.566 0 16.981z" fill="#3f6c8e"/><path d="m243.474 100.399h11.92c.334 0 .606.271.606.606v15.769c0 .334-.271.606-.606.606h-11.92c-11.248-.416-11.248-16.566 0-16.981z" fill="#3f5d77"/></g></g><g><g><g><path d="m320.979 100.897c2.53 2.53 2.53 6.635-.003 9.168l-31.126 31.125c-2.533 2.533-6.638 2.533-9.168.003-2.51-2.47-2.544-6.662 0-9.172 0 0 31.125-31.125 31.125-31.125 2.546-2.562 6.709-2.495 9.172.001z" fill="#2e3140"/><path d="m318.749 99.438c.904 2.325.417 5.066-1.459 6.942l-31.125 31.125c-1.876 1.876-4.618 2.364-6.942 1.459-.917-2.372-.398-5.078 1.459-6.942 0 0 31.125-31.125 31.125-31.125 1.876-1.876 4.618-2.364 6.942-1.459z" fill="#334353"/><path d="m310.114 106.38-23.949 23.949c-1.982 1.982-1.982 5.195 0 7.176l31.125-31.125c-1.981-1.982-5.194-1.982-7.176 0z" fill="#3f5d77"/></g><g><path d="m316.395 41.521c3.577 0 6.48 2.903 6.48 6.485v44.018c0 3.582-2.903 6.485-6.48 6.485-3.521.028-6.51-2.912-6.485-6.485v-44.018c-.012-3.611 2.979-6.507 6.485-6.485z" fill="#2e3140"/><path d="m313.787 42.066c2.283 1.004 3.877 3.288 3.877 5.941v44.018c0 2.653-1.594 4.936-3.877 5.941-2.326-1.028-3.872-3.309-3.877-5.941v-44.018c0-2.653 1.594-4.937 3.877-5.941z" fill="#334353"/><path d="m312.59 53.081v33.869c0 2.803 2.272 5.074 5.074 5.074v-44.017c-2.802 0-5.074 2.272-5.074 5.074z" fill="#3f5d77"/></g></g><g><g><path d="m191.021 100.897c-2.53 2.53-2.53 6.635.003 9.168l31.125 31.125c2.533 2.533 6.638 2.533 9.168.003 2.51-2.47 2.544-6.662 0-9.172 0 0-31.125-31.125-31.125-31.125-2.545-2.562-6.708-2.495-9.171.001z" fill="#2e3140"/><path d="m193.251 99.438c-.904 2.325-.417 5.066 1.459 6.942l31.125 31.125c1.876 1.876 4.618 2.364 6.942 1.459.917-2.372.398-5.078-1.459-6.942 0 0-31.125-31.125-31.125-31.125-1.876-1.876-4.618-2.364-6.942-1.459z" fill="#334353"/><path d="m201.886 106.38 23.949 23.949c1.982 1.982 1.982 5.195 0 7.176l-31.125-31.125c1.981-1.982 5.194-1.982 7.176 0z" fill="#3f5d77"/></g><g><path d="m195.605 41.521c-3.577 0-6.48 2.903-6.48 6.485v44.018c0 3.582 2.903 6.485 6.48 6.485 3.521.028 6.51-2.912 6.485-6.485v-44.018c.012-3.611-2.979-6.507-6.485-6.485z" fill="#2e3140"/><path d="m198.213 42.066c-2.283 1.004-3.877 3.288-3.877 5.941v44.018c0 2.653 1.594 4.936 3.877 5.941 2.326-1.028 3.872-3.309 3.877-5.941v-44.018c0-2.653-1.594-4.937-3.877-5.941z" fill="#334353"/><path d="m199.41 53.081v33.869c0 2.803-2.272 5.074-5.074 5.074v-44.017c2.802 0 5.074 2.272 5.074 5.074z" fill="#3f5d77"/></g></g></g><g><g><path d="m309.91 150.879v5.21c.031 4.976-4.117 9.049-9.013 9.019-4.98 0-9.012-4.039-9.012-9.019v-5.21c.418-11.901 17.56-11.978 18.025 0z" fill="#334353"/><path d="m309.91 150.879v5.21c-.011 3.615-2.101 6.758-5.273 8.202-3.11-1.415-5.273-4.556-5.273-8.202v-5.21c0-3.646 2.163-6.781 5.273-8.196 3.11 1.415 5.273 4.55 5.273 8.196z" fill="#3e4e60"/></g><g><path d="m202.09 156.096v-5.21c-.031-4.976 4.117-9.049 9.013-9.019 4.98 0 9.012 4.039 9.012 9.019v5.21c-.418 11.901-17.56 11.978-18.025 0z" fill="#2e3140"/><path d="m202.09 156.096v-5.21c.011-3.615 2.101-6.758 5.273-8.202 3.11 1.415 5.273 4.556 5.273 8.202v5.21c0 3.646-2.163 6.781-5.273 8.196-3.11-1.415-5.273-4.55-5.273-8.196z" fill="#334353"/></g></g><g><g><path d="m241.573 79.879 6.758 6.445-18.862 6.552c-8.918-8.906-8.769-23.343 0-32.069 0 0 12.778-12.778 12.778-12.778 2.377-2.368 6.439-.692 6.439 2.669.002 6.447-2.562 12.609-7.113 17.168-3.28 3.233-3.33 8.728 0 12.013z" fill="#2e3140"/><path d="m248.686 50.697c0 3.224-.637 6.376-1.849 9.29-1.211 2.914-2.987 5.601-5.264 7.878-.883.883-1.53 1.922-1.949 3.024-4.741 3.163-11.135 3.778-16.33 1.412.847-4.217 2.905-8.225 6.175-11.494l12.778-12.778c2.377-2.368 6.439-.692 6.439 2.668z" fill="#334353"/></g><g><path d="m270.438 79.879-6.758 6.446 18.862 6.551c8.918-8.906 8.769-23.343 0-32.069 0 0-12.778-12.778-12.778-12.778-2.377-2.368-6.439-.692-6.439 2.669-.002 6.447 2.562 12.609 7.113 17.168 3.28 3.233 3.331 8.728 0 12.013z" fill="#334353"/><path d="m263.325 50.697c0 3.224.637 6.376 1.849 9.29 1.211 2.914 2.987 5.601 5.264 7.878.883.883 1.53 1.922 1.949 3.024 4.741 3.163 11.135 3.778 16.33 1.412-.847-4.217-2.905-8.225-6.175-11.494l-12.778-12.778c-2.377-2.368-6.439-.692-6.439 2.668z" fill="#3e4e60"/></g></g></g></g></g></svg>