<svg id="Icons" enable-background="new 0 0 512 512" height="512" viewBox="0 0 512 512" width="512" xmlns="http://www.w3.org/2000/svg"><g><circle cx="256" cy="256" fill="#6c53a2" r="256"/><g><g><g><path d="m319.986 317.147v38.58c0 17.67-7.158 33.667-18.742 45.243-11.577 11.585-27.573 18.742-45.244 18.742-35.34 0-63.986-28.646-63.986-63.986v-38.58c0-28.129 22.807-50.936 50.936-50.936h26.1c28.129.001 50.936 22.808 50.936 50.937z" fill="#c44a1a"/><path d="m319.986 317.147v38.58c0 17.67-7.158 33.667-18.742 45.243-11.577 11.585-27.573 18.742-45.244 18.742v-153.501h13.05c28.129 0 50.936 22.807 50.936 50.936z" fill="#dd5e26"/></g><g><g><path d="m249.489 404.734h6.511v-85.05h-22.685c-16.561 0-29.986 13.425-29.986 29.986v8.905c0 25.492 20.667 46.159 46.16 46.159z" fill="#dd5e26"/><path d="m262.511 404.734h-6.511v-85.05h22.685c16.561 0 29.986 13.425 29.986 29.986v8.905c0 25.492-20.667 46.159-46.16 46.159z" fill="#ea792e"/></g><g><path d="m286.567 365.442h-30.567v-30.726h30.567c8.485 0 15.363 6.878 15.363 15.363 0 8.484-6.878 15.363-15.363 15.363z" fill="#f39e22"/><path d="m225.433 334.716h30.567v30.726h-30.567c-8.485 0-15.363-6.878-15.363-15.363 0-8.485 6.878-15.363 15.363-15.363z" fill="#ea792e"/></g></g></g><g><g><g><path d="m225.535 119.887v31.026l24.975-1.478v-29.548c0-4.787-2.701-8.949-6.658-11.051-1.741-.92-3.719-1.437-5.829-1.437-6.897 0-12.488 5.591-12.488 12.488z" fill="#9175a7"/><path d="m250.51 119.887v20.878c-1.576.616-3.284.952-5.082.952-7.717 0-13.982-6.256-13.982-13.982v-14.384c0-1.577.263-3.095.747-4.516 1.741-.92 3.719-1.437 5.829-1.437 6.897.001 12.488 5.592 12.488 12.489z" fill="#a583bb"/></g><g><path d="m286.471 119.887v31.026l-24.975-1.478v-29.548c0-4.787 2.701-8.949 6.658-11.051 1.741-.92 3.719-1.437 5.829-1.437 6.897 0 12.488 5.591 12.488 12.488z" fill="#a583bb"/><path d="m286.471 119.887v20.878c-1.576.616-3.284.952-5.082.952-7.717 0-13.982-6.256-13.982-13.982v-14.384c0-1.577.263-3.095.747-4.516 1.741-.92 3.719-1.437 5.829-1.437 6.897.001 12.488 5.592 12.488 12.489z" fill="#c2aacf"/></g></g><g><g><g><path d="m319.986 191.066v21.673c0 17.67-7.158 33.667-18.742 45.251-11.577 11.577-27.573 18.742-45.244 18.742-35.34 0-63.986-28.653-63.986-63.994v-21.673c0-23.37 18.943-42.313 42.313-42.313h43.346c23.37.001 42.313 18.944 42.313 42.314z" fill="#ea792e"/><path d="m319.986 191.066v21.673c0 17.67-7.158 33.667-18.742 45.251-11.577 11.577-27.573 18.742-45.244 18.742v-127.979h21.673c23.37 0 42.313 18.943 42.313 42.313z" fill="#f39e22"/></g><g><path d="m306.928 195.493v17.246c0 14.061-5.7 26.795-14.917 36.011-9.217 9.217-21.943 14.917-36.011 14.917-28.129 0-50.928-22.799-50.928-50.928v-17.246c0-18.603 15.079-33.682 33.682-33.682h34.492c18.603 0 33.682 15.079 33.682 33.682z" fill="#334353"/><path d="m306.928 195.493v17.246c0 14.061-5.7 26.795-14.917 36.011-9.217 9.217-21.943 14.917-36.011 14.917v-101.856h17.246c18.603 0 33.682 15.079 33.682 33.682z" fill="#3e4e60"/></g></g><g><path d="m269.099 195.4c-2.975 0-5.386-2.411-5.386-5.386v-4.419c0-2.975 2.411-5.386 5.386-5.386 2.975 0 5.386 2.411 5.386 5.386v4.419c0 2.975-2.412 5.386-5.386 5.386z" fill="#334353"/><path d="m242.901 195.4c-2.975 0-5.386-2.411-5.386-5.386v-4.419c0-2.975 2.411-5.386 5.386-5.386 2.975 0 5.386 2.411 5.386 5.386v4.419c0 2.975-2.411 5.386-5.386 5.386z" fill="#2e3140"/></g><g><path d="m267.172 244.271h-11.172v-39.172h21.134c8.066 0 14.605 6.539 14.605 14.605 0 13.568-10.999 24.567-24.567 24.567z" fill="#3f5d77"/><path d="m244.828 244.271h11.172v-39.172h-21.134c-8.066 0-14.605 6.539-14.605 14.605 0 13.568 10.999 24.567 24.567 24.567z" fill="#3e4e60"/></g></g></g><g><g><g><g><path d="m443.574 204.958c-1.998 1.998-4.765 3.234-7.814 3.234h-14.932c-6.1.003-11.047-4.944-11.047-11.047-.042-6.094 5.051-11.094 11.048-11.048h14.932c9.768-.068 14.731 12.044 7.813 18.861z" fill="#2e3140"/><path d="m445.877 201.583c-1.36.597-2.856.927-4.435.927h-14.932c-7.837.141-13.374-8.395-10.121-15.483 1.356-.601 2.856-.934 4.439-.93h14.932c7.846-.134 13.374 8.395 10.117 15.486z" fill="#334353"/></g><g><path d="m359.336 186.097c0 4.692-1.902 8.929-4.975 12.002-3.066 3.073-7.31 4.968-11.995 4.968h-13.867c-9.376 0-16.977-7.593-16.977-16.97 0-2.059.366-4.02 1.029-5.848.865-2.335 2.215-4.423 3.946-6.154 3.073-3.073 7.31-4.975 12.002-4.975h13.867c7.318 0 13.554 4.632 15.941 11.129.664 1.827 1.029 3.789 1.029 5.848z" fill="#334353"/><path d="m358.307 180.249c-.865 2.335-2.215 4.424-3.946 6.154-3.066 3.073-7.31 4.975-11.995 4.975h-13.867c-7.325 0-13.561-4.632-15.948-11.129.865-2.335 2.215-4.423 3.946-6.154 3.073-3.073 7.31-4.975 12.002-4.975h13.867c7.318-.001 13.554 4.631 15.941 11.129z" fill="#3e4e60"/></g><g><path d="m408.622 199.055c-3.615 0-7.237-1.385-9.995-4.143l-25.537-25.537c-5.522-5.516-5.522-14.468 0-19.99 5.476-5.551 14.607-5.467 19.99 0 0 0 25.537 25.537 25.537 25.537 5.522 5.522 5.522 14.474 0 19.99-2.69 2.687-6.269 4.137-9.995 4.143z" fill="#ea792e"/><path d="m413.759 198.086c-1.77-.69-3.423-1.746-4.852-3.174l-25.537-25.537c-7.218-6.963-4.505-19.695 4.852-23.164 1.77.683 3.429 1.739 4.858 3.174l25.537 25.537c7.22 6.977 4.504 19.694-4.858 23.164z" fill="#f39e22"/></g><g><path d="m390.039 155.307c0 3.615-1.385 7.237-4.143 9.995l-25.537 25.537c-5.516 5.522-14.468 5.522-19.99 0-5.551-5.476-5.467-14.607 0-19.99 0 0 25.537-25.537 25.537-25.537 5.522-5.522 14.474-5.522 19.99 0 2.687 2.69 4.137 6.269 4.143 9.995z" fill="#c44a1a"/><path d="m389.07 150.17c-.69 1.77-1.746 3.423-3.174 4.852l-25.537 25.537c-6.963 7.218-19.695 4.505-23.164-4.852.683-1.77 1.739-3.429 3.174-4.858l25.537-25.537c6.977-7.22 19.694-4.504 23.164 4.858z" fill="#dd5e26"/></g></g><g><g><path d="m381.838 100.76c0 2.246-.861 4.496-2.574 6.209l-8.392 8.392c-3.427 3.431-8.988 3.431-12.418 0-3.449-3.402-3.396-9.074 0-12.418 0 0 8.392-8.392 8.392-8.392 5.451-5.529 15.048-1.511 14.992 6.209z" fill="#2e3140"/><path d="m381.236 97.568c-.428 1.1-1.084 2.126-1.972 3.014l-8.392 8.392c-4.325 4.484-12.235 2.798-14.39-3.014.425-1.1 1.081-2.13 1.972-3.018l8.392-8.392c4.334-4.485 12.234-2.798 14.39 3.018z" fill="#334353"/></g><g><path d="m323.892 137.504c2.637 2.637 3.949 6.088 3.949 9.542.004 3.45-1.317 6.901-3.949 9.534l-7.794 7.794c-5.27 5.27-13.81 5.274-19.08.004-1.157-1.157-2.054-2.465-2.708-3.865-.826-1.799-1.241-3.731-1.241-5.677 0-3.455 1.312-6.905 3.949-9.542l7.794-7.794c4.113-4.113 10.221-5.014 15.214-2.704 1.4.654 2.708 1.551 3.866 2.708z" fill="#334353"/><path d="m320.026 134.796c.826 1.799 1.241 3.731 1.241 5.677.004 3.45-1.312 6.905-3.945 9.538l-7.794 7.794c-4.117 4.117-10.225 5.018-15.219 2.708-.826-1.799-1.241-3.731-1.241-5.677 0-3.455 1.312-6.905 3.949-9.542l7.794-7.794c4.114-4.113 10.222-5.014 15.215-2.704z" fill="#3e4e60"/></g><g><path d="m358.875 117.086c-2.032 2.032-4.846 3.289-7.946 3.289h-28.706c-6.204.003-11.235-5.028-11.235-11.235-.042-6.198 5.137-11.283 11.235-11.235h28.706c6.208 0 11.239 5.031 11.235 11.235-.001 3.022-1.198 5.849-3.289 7.946z" fill="#ea792e"/><path d="m361.218 113.654c-1.383.608-2.905.943-4.511.943h-28.706c-7.97.143-13.601-8.538-10.293-15.746 1.379-.611 2.905-.95 4.514-.946h28.706c7.98-.137 13.602 8.538 10.29 15.749z" fill="#f39e22"/></g><g><path d="m323.843 102.943c2.032 2.032 3.289 4.846 3.289 7.946v28.706c.003 6.204-5.028 11.235-11.235 11.235-6.198.042-11.283-5.137-11.235-11.235v-28.706c0-6.208 5.031-11.239 11.235-11.235 3.022.001 5.848 1.198 7.946 3.289z" fill="#c44a1a"/><path d="m320.411 100.6c.608 1.383.943 2.905.943 4.511v28.706c.143 7.97-8.538 13.601-15.746 10.293-.611-1.379-.95-2.905-.946-4.514v-28.706c-.137-7.98 8.537-13.602 15.749-10.29z" fill="#dd5e26"/></g></g><g><g><path d="m444.609 280.465c-2.592 1.608-5.806 2.225-9.01 1.473l-15.694-3.68c-6.413-1.5-10.393-7.919-8.889-14.335 1.458-6.416 8.044-10.416 14.335-8.889 0 0 15.694 3.681 15.694 3.681 10.285 2.337 12.516 16.291 3.564 21.75z" fill="#2e3140"/><path d="m447.862 277.486c-1.576.293-3.231.27-4.891-.119l-15.694-3.681c-8.272-1.783-11.988-12.12-6.821-18.768 1.573-.297 3.232-.277 4.895.116l15.694 3.681c8.281 1.793 11.988 12.121 6.817 18.771z" fill="#334353"/></g><g><path d="m360.719 239.877c-1.157 4.932-4.2 8.916-8.188 11.389-3.98 2.474-8.908 3.419-13.832 2.265l-14.575-3.418c-9.855-2.311-15.973-12.166-13.662-22.021.507-2.164 1.375-4.136 2.523-5.893 1.485-2.241 3.419-4.103 5.664-5.496 3.988-2.473 8.91-3.428 13.841-2.271l14.575 3.418c7.691 1.804 13.104 8.21 14.011 15.627.249 2.084.15 4.236-.357 6.4z" fill="#334353"/><path d="m361.078 233.476c-1.485 2.241-3.419 4.103-5.664 5.496-3.98 2.475-8.91 3.428-13.834 2.273l-14.575-3.418c-7.699-1.806-13.112-8.211-14.019-15.629 1.485-2.241 3.419-4.103 5.664-5.496 3.988-2.473 8.91-3.428 13.841-2.271l14.575 3.418c7.692 1.804 13.105 8.21 14.012 15.627z" fill="#3e4e60"/></g><g><path d="m409.328 265.645c-3.8-.891-7.265-3.24-9.484-6.819l-20.547-33.136c-4.445-7.159-2.238-16.568 4.927-21.011 7.124-4.485 16.701-2.146 21.011 4.927 0 0 20.547 33.136 20.547 33.136 4.443 7.166 2.237 16.574-4.927 21.011-3.491 2.163-7.61 2.804-11.527 1.892z" fill="#ea792e"/><path d="m414.966 265.893c-1.691-1.161-3.167-2.678-4.317-4.532l-20.547-33.136c-5.87-9.097.12-21.811 10.809-23.151 1.692 1.155 3.175 2.673 4.323 4.534l20.547 33.136c5.87 9.112-.12 21.81-10.815 23.149z" fill="#f39e22"/></g><g><path d="m400.579 215.083c-.891 3.8-3.24 7.265-6.819 9.484l-33.136 20.547c-7.159 4.445-16.568 2.238-21.011-4.927-4.485-7.124-2.146-16.701 4.927-21.011 0 0 33.136-20.547 33.136-20.547 7.166-4.443 16.574-2.237 21.011 4.927 2.162 3.49 2.803 7.609 1.892 11.527z" fill="#c44a1a"/><path d="m400.826 209.444c-1.161 1.691-2.678 3.167-4.532 4.317l-33.136 20.547c-9.098 5.87-21.811-.12-23.152-10.809 1.155-1.692 2.673-3.175 4.534-4.323l33.136-20.547c9.114-5.869 21.812.12 23.15 10.815z" fill="#dd5e26"/></g></g><g><g><path d="m394.571 357.011c-2.983.637-6.216.131-8.977-1.659l-13.527-8.769c-5.528-3.579-7.105-10.966-3.52-16.495 3.541-5.545 11.091-7.084 16.496-3.52 0 0 13.527 8.769 13.527 8.769 8.888 5.674 6.271 19.561-3.999 21.674z" fill="#2e3140"/><path d="m398.64 355.306c-1.582-.257-3.132-.838-4.562-1.765l-13.527-8.769c-7.182-4.474-7.186-15.459-.076-19.969 1.581.252 3.136.831 4.567 1.764l13.527 8.769c7.187 4.486 7.185 15.459.071 19.97z" fill="#334353"/></g><g><path d="m329.337 290.456c-2.755 4.25-6.967 6.972-11.555 7.951-4.582.983-9.54.207-13.783-2.544l-12.562-8.143c-8.494-5.506-10.921-16.849-5.414-25.343 1.209-1.865 2.692-3.427 4.367-4.693 2.155-1.607 4.604-2.706 7.189-3.258 4.589-.979 9.544-.214 13.794 2.541l12.562 8.143c6.629 4.297 9.558 12.156 7.905 19.443-.473 2.046-1.294 4.038-2.503 5.903z" fill="#334353"/><path d="m331.838 284.554c-2.155 1.607-4.605 2.706-7.189 3.258-4.582.984-9.544.214-13.788-2.537l-12.562-8.143c-6.636-4.302-9.565-12.16-7.912-19.447 2.155-1.607 4.604-2.706 7.189-3.258 4.589-.979 9.544-.214 13.794 2.541l12.562 8.143c6.63 4.297 9.559 12.155 7.906 19.443z" fill="#3e4e60"/></g><g><path d="m366.375 331.138c-3.275-2.123-5.742-5.505-6.621-9.623l-8.138-38.131c-1.763-8.24 3.493-16.349 11.739-18.109 8.221-1.813 16.443 3.625 18.109 11.739 0 0 8.138 38.131 8.138 38.131 1.76 8.246-3.497 16.355-11.739 18.109-4.015.854-8.109.066-11.488-2.116z" fill="#ea792e"/><path d="m371.598 333.277c-1.199-1.664-2.076-3.591-2.531-5.725l-8.138-38.131c-2.45-10.546 7.485-20.487 17.998-18.135 1.202 1.659 2.085 3.589 2.536 5.728l8.138 38.131c2.444 10.56-7.485 20.487-18.003 18.132z" fill="#f39e22"/></g><g><path d="m375.231 280.594c-2.123 3.275-5.505 5.742-9.623 6.621l-38.131 8.138c-8.24 1.763-16.349-3.493-18.109-11.739-1.813-8.221 3.625-16.443 11.739-18.109 0 0 38.131-8.138 38.131-8.138 8.246-1.76 16.355 3.497 18.109 11.739.855 4.015.066 8.109-2.116 11.488z" fill="#c44a1a"/><path d="m377.37 275.371c-1.664 1.199-3.591 2.076-5.725 2.531l-38.131 8.138c-10.546 2.45-20.487-7.485-18.135-17.998 1.659-1.202 3.589-2.085 5.728-2.536l38.131-8.138c10.561-2.444 20.487 7.485 18.132 18.003z" fill="#dd5e26"/></g></g></g><g><g><g><path d="m68.426 204.958c1.998 1.998 4.765 3.234 7.814 3.234h14.932c6.1.003 11.047-4.944 11.047-11.047.042-6.094-5.051-11.094-11.048-11.048h-14.932c-9.768-.068-14.731 12.044-7.813 18.861z" fill="#2e3140"/><path d="m66.123 201.583c1.36.597 2.856.927 4.435.927h14.932c7.837.141 13.374-8.395 10.121-15.483-1.356-.601-2.856-.934-4.439-.93h-14.932c-7.846-.134-13.374 8.395-10.117 15.486z" fill="#334353"/></g><g><path d="m152.664 186.097c0 4.692 1.902 8.929 4.975 12.002 3.066 3.073 7.31 4.968 11.995 4.968h13.867c9.376 0 16.977-7.593 16.977-16.97 0-2.059-.366-4.02-1.029-5.848-.865-2.335-2.215-4.423-3.946-6.154-3.073-3.073-7.31-4.975-12.002-4.975h-13.867c-7.318 0-13.554 4.632-15.941 11.129-.664 1.827-1.029 3.789-1.029 5.848z" fill="#334353"/><path d="m153.693 180.249c.865 2.335 2.215 4.424 3.946 6.154 3.066 3.073 7.31 4.975 11.995 4.975h13.867c7.325 0 13.561-4.632 15.948-11.129-.865-2.335-2.215-4.423-3.946-6.154-3.073-3.073-7.31-4.975-12.002-4.975h-13.867c-7.318-.001-13.554 4.631-15.941 11.129z" fill="#3e4e60"/></g><g><path d="m103.378 199.055c3.615 0 7.237-1.385 9.995-4.143l25.537-25.537c5.522-5.516 5.522-14.468 0-19.99-5.476-5.551-14.607-5.467-19.99 0 0 0-25.537 25.537-25.537 25.537-5.522 5.522-5.522 14.474 0 19.99 2.69 2.687 6.269 4.137 9.995 4.143z" fill="#ea792e"/><path d="m98.241 198.086c1.77-.69 3.423-1.746 4.852-3.174l25.537-25.537c7.218-6.963 4.505-19.695-4.852-23.164-1.77.683-3.429 1.739-4.858 3.174l-25.537 25.537c-7.22 6.977-4.504 19.694 4.858 23.164z" fill="#f39e22"/></g><g><path d="m121.961 155.307c0 3.615 1.385 7.237 4.143 9.995l25.537 25.537c5.516 5.522 14.468 5.522 19.99 0 5.551-5.476 5.467-14.607 0-19.99 0 0-25.537-25.537-25.537-25.537-5.522-5.522-14.474-5.522-19.99 0-2.687 2.69-4.137 6.269-4.143 9.995z" fill="#c44a1a"/><path d="m122.93 150.17c.69 1.77 1.746 3.423 3.174 4.852l25.537 25.537c6.963 7.218 19.695 4.505 23.164-4.852-.683-1.77-1.739-3.429-3.174-4.858l-25.537-25.537c-6.977-7.22-19.694-4.504-23.164 4.858z" fill="#dd5e26"/></g></g><g><g><path d="m130.162 100.76c0 2.246.861 4.496 2.574 6.209l8.392 8.392c3.427 3.431 8.988 3.431 12.418 0 3.449-3.402 3.396-9.074 0-12.418 0 0-8.392-8.392-8.392-8.392-5.451-5.529-15.048-1.511-14.992 6.209z" fill="#2e3140"/><path d="m130.764 97.568c.428 1.1 1.084 2.126 1.972 3.014l8.392 8.392c4.325 4.484 12.235 2.798 14.39-3.014-.424-1.1-1.081-2.13-1.972-3.018l-8.392-8.392c-4.334-4.485-12.234-2.798-14.39 3.018z" fill="#334353"/></g><g><path d="m188.108 137.504c-2.637 2.637-3.949 6.088-3.949 9.542-.004 3.45 1.317 6.901 3.949 9.534l7.794 7.794c5.27 5.27 13.81 5.274 19.08.004 1.157-1.157 2.054-2.465 2.708-3.865.826-1.799 1.241-3.731 1.241-5.677 0-3.455-1.312-6.905-3.949-9.542l-7.794-7.794c-4.113-4.113-10.221-5.014-15.214-2.704-1.4.654-2.708 1.551-3.866 2.708z" fill="#334353"/><path d="m191.974 134.796c-.826 1.799-1.241 3.731-1.241 5.677-.004 3.45 1.312 6.905 3.945 9.538l7.794 7.794c4.117 4.117 10.225 5.018 15.219 2.708.826-1.799 1.241-3.731 1.241-5.677 0-3.455-1.312-6.905-3.949-9.542l-7.794-7.794c-4.114-4.113-10.222-5.014-15.215-2.704z" fill="#3e4e60"/></g><g><path d="m153.125 117.086c2.032 2.032 4.846 3.289 7.946 3.289h28.706c6.204.003 11.235-5.028 11.235-11.235.042-6.198-5.137-11.283-11.235-11.235h-28.706c-6.208 0-11.239 5.031-11.235 11.235.001 3.022 1.198 5.849 3.289 7.946z" fill="#ea792e"/><path d="m150.782 113.654c1.383.608 2.905.943 4.511.943h28.706c7.97.143 13.601-8.538 10.293-15.746-1.379-.611-2.905-.95-4.514-.946h-28.706c-7.98-.137-13.602 8.538-10.29 15.749z" fill="#f39e22"/></g><g><path d="m188.157 102.943c-2.032 2.032-3.289 4.846-3.289 7.946v28.706c-.003 6.204 5.028 11.235 11.235 11.235 6.198.042 11.283-5.137 11.235-11.235v-28.706c0-6.208-5.031-11.239-11.235-11.235-3.022.001-5.848 1.198-7.946 3.289z" fill="#c44a1a"/><path d="m191.589 100.6c-.608 1.383-.943 2.905-.943 4.511v28.706c-.143 7.97 8.538 13.601 15.746 10.293.611-1.379.95-2.905.946-4.514v-28.706c.137-7.98-8.537-13.602-15.749-10.29z" fill="#dd5e26"/></g></g><g><g><path d="m67.391 280.465c2.592 1.608 5.805 2.225 9.01 1.473l15.694-3.68c6.413-1.5 10.393-7.919 8.889-14.335-1.458-6.416-8.044-10.416-14.335-8.889 0 0-15.694 3.681-15.694 3.681-10.285 2.337-12.516 16.291-3.564 21.75z" fill="#2e3140"/><path d="m64.138 277.486c1.576.293 3.231.27 4.891-.119l15.694-3.681c8.272-1.783 11.988-12.12 6.821-18.768-1.573-.297-3.232-.277-4.895.116l-15.694 3.681c-8.281 1.793-11.988 12.121-6.817 18.771z" fill="#334353"/></g><g><path d="m151.281 239.877c1.157 4.932 4.2 8.916 8.188 11.389 3.98 2.474 8.908 3.419 13.832 2.265l14.575-3.418c9.855-2.311 15.973-12.166 13.662-22.021-.507-2.164-1.375-4.136-2.523-5.893-1.485-2.241-3.419-4.103-5.664-5.496-3.988-2.473-8.91-3.428-13.841-2.271l-14.575 3.418c-7.691 1.804-13.104 8.21-14.011 15.627-.249 2.084-.15 4.236.357 6.4z" fill="#334353"/><path d="m150.922 233.476c1.485 2.241 3.419 4.103 5.664 5.496 3.98 2.475 8.91 3.428 13.834 2.273l14.575-3.418c7.699-1.806 13.112-8.211 14.019-15.629-1.485-2.241-3.419-4.103-5.664-5.496-3.988-2.473-8.91-3.428-13.841-2.271l-14.575 3.418c-7.692 1.804-13.105 8.21-14.012 15.627z" fill="#3e4e60"/></g><g><path d="m102.672 265.645c3.8-.891 7.265-3.24 9.484-6.819l20.547-33.136c4.445-7.159 2.238-16.568-4.927-21.011-7.124-4.485-16.701-2.146-21.011 4.927 0 0-20.547 33.136-20.547 33.136-4.443 7.166-2.237 16.574 4.927 21.011 3.491 2.163 7.61 2.804 11.527 1.892z" fill="#ea792e"/><path d="m97.034 265.893c1.691-1.161 3.167-2.678 4.317-4.532l20.547-33.136c5.87-9.097-.12-21.811-10.809-23.151-1.692 1.155-3.175 2.673-4.323 4.534l-20.547 33.136c-5.87 9.112.12 21.81 10.815 23.149z" fill="#f39e22"/></g><g><path d="m111.421 215.083c.891 3.8 3.24 7.265 6.819 9.484l33.136 20.547c7.159 4.445 16.568 2.238 21.011-4.927 4.485-7.124 2.146-16.701-4.927-21.011 0 0-33.136-20.547-33.136-20.547-7.166-4.443-16.574-2.237-21.011 4.927-2.162 3.49-2.803 7.609-1.892 11.527z" fill="#c44a1a"/><path d="m111.174 209.444c1.161 1.691 2.678 3.167 4.532 4.317l33.136 20.547c9.097 5.87 21.811-.12 23.151-10.809-1.155-1.692-2.673-3.175-4.534-4.323l-33.136-20.547c-9.113-5.869-21.811.12-23.149 10.815z" fill="#dd5e26"/></g></g><g><g><path d="m117.429 357.011c2.983.637 6.216.131 8.977-1.659l13.527-8.769c5.528-3.579 7.105-10.966 3.52-16.495-3.541-5.545-11.091-7.084-16.496-3.52 0 0-13.527 8.769-13.527 8.769-8.888 5.674-6.271 19.561 3.999 21.674z" fill="#2e3140"/><path d="m113.36 355.306c1.582-.257 3.132-.838 4.562-1.765l13.527-8.769c7.182-4.474 7.186-15.459.076-19.969-1.581.252-3.136.831-4.567 1.764l-13.527 8.769c-7.187 4.486-7.185 15.459-.071 19.97z" fill="#334353"/></g><g><path d="m182.663 290.456c2.755 4.25 6.967 6.972 11.555 7.951 4.582.983 9.54.207 13.783-2.544l12.562-8.143c8.494-5.506 10.921-16.849 5.414-25.343-1.209-1.865-2.692-3.427-4.367-4.693-2.155-1.607-4.604-2.706-7.189-3.258-4.589-.979-9.544-.214-13.794 2.541l-12.562 8.143c-6.629 4.297-9.558 12.156-7.905 19.443.473 2.046 1.294 4.038 2.503 5.903z" fill="#334353"/><path d="m180.162 284.554c2.155 1.607 4.605 2.706 7.189 3.258 4.582.984 9.544.214 13.788-2.537l12.562-8.143c6.636-4.302 9.565-12.16 7.912-19.447-2.155-1.607-4.604-2.706-7.189-3.258-4.589-.979-9.544-.214-13.794 2.541l-12.562 8.143c-6.63 4.297-9.559 12.155-7.906 19.443z" fill="#3e4e60"/></g><g><path d="m145.625 331.138c3.275-2.123 5.742-5.505 6.621-9.623l8.138-38.131c1.763-8.24-3.493-16.349-11.739-18.109-8.221-1.813-16.443 3.625-18.109 11.739 0 0-8.138 38.131-8.138 38.131-1.76 8.246 3.497 16.355 11.739 18.109 4.015.854 8.109.066 11.488-2.116z" fill="#ea792e"/><path d="m140.402 333.277c1.199-1.664 2.076-3.591 2.531-5.725l8.138-38.131c2.45-10.546-7.485-20.487-17.998-18.135-1.202 1.659-2.085 3.589-2.536 5.728l-8.138 38.131c-2.444 10.56 7.485 20.487 18.003 18.132z" fill="#f39e22"/></g><g><path d="m136.769 280.594c2.123 3.275 5.505 5.742 9.623 6.621l38.131 8.138c8.24 1.763 16.349-3.493 18.109-11.739 1.813-8.221-3.625-16.443-11.739-18.109 0 0-38.131-8.138-38.131-8.138-8.246-1.76-16.355 3.497-18.109 11.739-.855 4.015-.066 8.109 2.116 11.488z" fill="#c44a1a"/><path d="m134.63 275.371c1.664 1.199 3.591 2.076 5.725 2.531l38.131 8.138c10.546 2.45 20.487-7.485 18.135-17.998-1.659-1.202-3.589-2.085-5.728-2.536l-38.131-8.138c-10.561-2.444-20.487 7.485-18.132 18.003z" fill="#dd5e26"/></g></g></g></g></g></g></svg>