<svg id="Icons" enable-background="new 0 0 512 512" height="512" viewBox="0 0 512 512" width="512" xmlns="http://www.w3.org/2000/svg"><g><circle cx="256" cy="256" fill="#53b976" r="256"/><g><g><path d="m272.14 369.5-13.46 126.34c-.26 2.38-1.47 3.58-2.68 3.58s-2.42-1.2-2.68-3.58l-13.46-126.34c-1.85-17.31 5.89-33.27 16.14-33.27s17.99 15.96 16.14 33.27z" fill="#b26e2b"/><path d="m272.14 369.5-13.46 126.34c-.26 2.38-1.47 3.58-2.68 3.58v-163.19c10.25 0 17.99 15.96 16.14 33.27z" fill="#c68132"/></g><g><path d="m340.95 313.17-17.89 53.28c-3.61 10.74-17.58 13.39-24.87 4.71l-10.69-12.73-10.41-12.41c-5.51-6.55-13.3-9.82-21.09-9.82s-15.58 3.27-21.09 9.82l-21.1 25.14c-7.29 8.68-21.26 6.03-24.87-4.71l-17.89-53.28c-6.56-19.54-1.49-41.12 13.09-55.7l20.79-20.8h102.14l20.79 20.8c14.58 14.58 19.65 36.16 13.09 55.7z" fill="#b26e2b"/><path d="m340.95 313.17-17.89 53.28c-3.61 10.74-17.58 13.39-24.87 4.71l-10.69-12.73-10.41-12.41c-5.51-6.55-13.3-9.82-21.09-9.82v-99.53h51.07l20.79 20.8c14.58 14.58 19.65 36.16 13.09 55.7z" fill="#c68132"/><g><path d="m307.07 236.67-43.58 84.93c-1.57 3.05-4.53 4.58-7.49 4.58s-5.92-1.53-7.49-4.58l-43.58-84.93z" fill="#c68132"/><path d="m307.07 236.67-43.58 84.93c-1.57 3.05-4.53 4.58-7.49 4.58v-89.51z" fill="#dd8c29"/></g><path d="m340.95 313.17-17.89 53.28c-3.61 10.74-17.58 13.39-24.87 4.71-6.582-7.838-8.319-18.661-4.52-28.165l22.869-57.206c5.299-13.256 24.965-10.996 26.79 3.163 1.032 8.005.286 16.28-2.379 24.218z" fill="#dd8c29"/><path d="m171.05 313.17 17.89 53.28c3.61 10.74 17.58 13.39 24.87 4.71 6.582-7.838 8.319-18.661 4.52-28.165l-22.869-57.206c-5.299-13.256-24.965-10.996-26.79 3.163-1.032 8.005-.286 16.28 2.379 24.218z" fill="#c68132"/><g><path d="m276.995 236.67v45.635c0 5.798-4.7 10.498-10.498 10.498-5.798 0-10.498-4.7-10.498-10.498v-45.635z" fill="#f9c744"/><path d="m266.498 241.225c-5.798 0-10.498 4.7-10.498 10.498v15.027c0 5.798 4.7 10.498 10.498 10.498 5.798 0 10.498-4.7 10.498-10.498v-15.027c-.001-5.798-4.701-10.498-10.498-10.498z" fill="#fff"/></g></g><g><path d="m314.82 228.923c0 4.28-3.47 7.75-7.75 7.75h-102.14c-2.14 0-4.08-.87-5.48-2.27s-2.27-3.34-2.27-5.48c0-4.28 3.47-7.75 7.75-7.75h102.14c2.14 0 4.08.87 5.48 2.27s2.27 3.34 2.27 5.48z" fill="#f9c744"/><path d="m314.82 228.923c0 4.28-3.47 7.75-7.75 7.75h-51.07v-15.5h51.07c2.14 0 4.08.87 5.48 2.27s2.27 3.34 2.27 5.48z" fill="#fad98f"/></g><g><g><g><path d="m402.75 174.423v100.38c0 13.9-18.03 19.36-25.74 7.8l-24.84-37.21c-4.33-6.49-9.93-11.87-16.35-15.88-8.55-5.37-18.55-8.34-28.95-8.34h-101.74c-10.4 0-20.4 2.97-28.95 8.34-6.42 4.01-12.02 9.39-16.35 15.88l-24.84 37.21c-7.71 11.56-25.74 6.1-25.74-7.8v-100.38c0-81.05 65.7-146.75 146.75-146.75s146.75 65.7 146.75 146.75z" fill="#b26e2b"/><path d="m402.75 174.423v100.38c0 9.42-8.28 14.96-16.02 13.96-3.67-.47-7.24-2.43-9.72-6.16l-11.27-16.88-13.57-20.33c-10.1-15.13-27.1-24.22-45.3-24.22h-50.87v-193.5c81.05 0 146.75 65.7 146.75 146.75z" fill="#c68132"/></g><g><path d="m335.82 150.813v78.7c-8.55-5.37-18.55-8.34-28.95-8.34h-101.74c-10.4 0-20.4 2.97-28.95 8.34v-78.7c0-44.09 35.74-79.83 79.82-79.83s79.82 35.74 79.82 79.83z" fill="#c68132"/><path d="m335.82 150.813v78.7c-6.34-3.98-13.49-6.65-21-7.75-2.61-.39-5.27-.59-7.95-.59h-50.87v-150.19c44.08 0 79.82 35.74 79.82 79.83z" fill="#dd8c29"/></g><g><path d="m273.764 108.813h-17.764v112.36h41.991v-88.133c0-13.38-10.847-24.227-24.227-24.227z" fill="#f39e22"/><path d="m238.236 108.813h17.764v112.36h-41.991v-88.133c0-13.38 10.847-24.227 24.227-24.227z" fill="#dd8c29"/></g></g><path d="m256 221.173v-77.635c0-5.798 4.7-10.498 10.498-10.498 5.798 0 10.498 4.7 10.498 10.498v77.635z" fill="#f9c744"/><path d="m266.498 201.618c5.798 0 10.498-4.7 10.498-10.498v-32.027c0-5.798-4.7-10.498-10.498-10.498-5.798 0-10.498 4.7-10.498 10.498v32.027c0 5.798 4.7 10.498 10.498 10.498z" fill="#fff"/><path d="m335.82 159.093v70.42c-6.34-3.98-13.49-6.65-21-7.75v-62.67c0-5.8 4.7-10.5 10.5-10.5 2.9 0 5.52 1.17 7.42 3.07s3.08 4.53 3.08 7.43z" fill="#f39e22"/><path d="m325.322 217.173c5.798 0 10.498-4.7 10.498-10.498v-32.027c0-5.798-4.7-10.498-10.498-10.498-5.798 0-10.498 4.7-10.498 10.498v32.027c.001 5.798 4.701 10.498 10.498 10.498z" fill="#f9c744"/><path d="m386.73 143.54v145.223c-3.67-.47-7.24-2.43-9.72-6.16l-11.27-16.88v-122.183c0-2.9 1.18-5.52 3.07-7.42 1.9-1.9 4.53-3.08 7.42-3.08 5.8 0 10.5 4.7 10.5 10.5z" fill="#dd8c29"/><path d="m376.234 233.051c5.798 0 10.498-4.7 10.498-10.498v-62.1c0-5.798-4.7-10.498-10.498-10.498-5.798 0-10.498 4.7-10.498 10.498v62.1c.001 5.798 4.701 10.498 10.498 10.498z" fill="#f39e22"/><path d="m125.271 143.54v145.223c3.67-.47 7.24-2.43 9.72-6.16l11.27-16.88v-122.183c0-2.9-1.18-5.52-3.07-7.42-1.9-1.9-4.53-3.08-7.42-3.08-5.8 0-10.5 4.7-10.5 10.5z" fill="#c68132"/><path d="m135.767 233.051c-5.798 0-10.498-4.7-10.498-10.498v-62.1c0-5.798 4.7-10.498 10.498-10.498 5.798 0 10.498 4.7 10.498 10.498v62.1c0 5.798-4.7 10.498-10.498 10.498z" fill="#dd8c29"/></g></g></g></svg>