<svg id="Icons" enable-background="new 0 0 512 512" height="512" viewBox="0 0 512 512" width="512" xmlns="http://www.w3.org/2000/svg"><g><circle cx="256" cy="256" fill="#6c53a2" r="256"/><g><g><g><g><path d="m173.278 37.96v156.8c0 8.348 1.581 16.485 4.521 23.268l18.672 43.081 4.64-5.1 44.009-48.412-11.015-76.175c-1.467-8.812-4.146-16.935-7.834-23.739l-41.654-76.948c-2.193-4.015-5.846-4.715-8.533-1.634-.874 1.015-1.58 2.346-2.059 3.863-.106.315-.197.654-.275.98-.309 1.262-.472 2.616-.472 4.016z" fill="#f4829b"/><path d="m245.12 207.6-44.01 48.41-4.83-20.83c-.81-3.52-1.49-7.09-2.02-10.71-2.38-16.08-2.01-33 1.14-48.86 1.43-7.22 2.28-15.75 2.56-24.67.58-18.06-1.17-37.76-5.2-51.61l-19.01-65.38c.08-.33.17-.67.28-.98.48-1.52 1.18-2.85 2.05-3.87 2.69-3.08 6.34-2.38 8.54 1.64l21.24 39.229 20.41 37.71c3.69 6.81 6.37 14.93 7.84 23.74l4.01 27.72z" fill="#d48d77"/><path d="m212.5 125.61c0 9.27-.52 19.1-1.52 28.99-2.61 25.82-8.46 52.08-16.72 69.87-2.38-16.08-2.01-33 1.14-48.86 1.43-7.22 2.28-15.75 2.56-24.67.58-18.06-1.17-37.76-5.2-51.61l-19.01-65.38c.08-.33.17-.67.28-.98.48-1.52 1.18-2.85 2.05-3.87 2.69-3.08 6.34-2.38 8.54 1.64l21.24 39.229c4.28 17.151 6.64 35.941 6.64 55.641z" fill="#eea47d"/></g><g><path d="m197.96 150.94c.58-18.06-1.17-37.76-5.2-51.61l-19.01-65.38c.08-.33.17-.67.28-.98.48-1.52 1.18-2.85 2.05-3.87 2.69-3.08 6.34-2.38 8.54 1.64l21.24 39.229 20.41 37.71c3.69 6.81 6.37 14.93 7.84 23.74l4.01 27.72c-13.87-1.299-27.32-4.079-40.16-8.199z" fill="#2e3140"/><path d="m212.5 125.61c0 9.27-.52 19.1-1.52 28.99-4.4-1.07-8.75-2.29-13.02-3.66.58-18.06-1.17-37.76-5.2-51.61l-19.01-65.38c.08-.33.17-.67.28-.98.48-1.52 1.18-2.85 2.05-3.87 2.69-3.08 6.34-2.38 8.54 1.64l21.24 39.229c4.28 17.151 6.64 35.941 6.64 55.641z" fill="#334353"/></g></g><g><g><path d="m338.714 37.96v156.8c0 8.348-1.581 16.485-4.521 23.268l-18.672 43.081-4.64-5.1-44.009-48.412 11.015-76.175c1.467-8.812 4.146-16.935 7.834-23.739l41.654-76.948c2.193-4.015 5.846-4.715 8.533-1.634.874 1.015 1.58 2.346 2.059 3.863.106.315.197.654.275.98.31 1.262.472 2.616.472 4.016z" fill="#ff9fb4"/><path d="m316.59 175.61c3.16 15.86 3.52 32.78 1.14 48.86-.53 3.62-1.21 7.19-2.02 10.71l-4.83 20.83-44.01-48.41 7.01-48.46 4.01-27.72c1.46-8.81 4.14-16.93 7.83-23.74l20.42-37.71 21.24-39.229c2.19-4.021 5.84-4.72 8.53-1.64.87 1.02 1.58 2.35 2.06 3.87.1.31.19.65.27.98l-19.01 65.38c-4.02 13.85-5.78 33.55-5.2 51.61.28 8.929 1.13 17.449 2.56 24.669z" fill="#eea47d"/><path d="m316.59 175.61c3.16 15.86 3.52 32.78 1.14 48.86-8.26-17.79-14.11-44.05-16.71-69.87-1.01-9.89-1.53-19.72-1.53-28.99 0-19.7 2.37-38.49 6.65-55.64l21.24-39.229c2.19-4.021 5.84-4.72 8.53-1.64.87 1.02 1.58 2.35 2.06 3.87.1.31.19.65.27.98l-19.01 65.38c-4.02 13.85-5.78 33.55-5.2 51.61.28 8.929 1.13 17.449 2.56 24.669z" fill="#f5b890"/></g><g><path d="m319.23 99.33c-4.02 13.85-5.78 33.55-5.2 51.61-12.84 4.12-26.28 6.9-40.15 8.2l4.01-27.72c1.46-8.81 4.14-16.93 7.83-23.74l20.42-37.71 21.24-39.229c2.19-4.021 5.84-4.72 8.53-1.64.87 1.02 1.58 2.35 2.06 3.87.1.31.19.65.27.98z" fill="#334353"/><path d="m319.23 99.33c-4.02 13.85-5.78 33.55-5.2 51.61-4.27 1.37-8.61 2.59-13.01 3.66-1.01-9.89-1.53-19.72-1.53-28.99 0-19.7 2.37-38.49 6.65-55.64l21.24-39.229c2.19-4.021 5.84-4.72 8.53-1.64.87 1.02 1.58 2.35 2.06 3.87.1.31.19.65.27.98z" fill="#3e4e60"/></g></g></g><g><g><path d="m357.979 341.092v18.807c0 46.993-43.567 85.092-97.305 85.092h-9.349c-53.747 0-97.314-38.099-97.314-85.092v-18.807c0-46.993 43.567-93.982 97.314-93.982h9.349c53.738 0 97.305 46.989 97.305 93.982z" fill="#a26d5a"/><path d="m357.979 341.092v18.807c0 46.993-43.567 85.092-97.305 85.092h-4.674v-197.881h4.675c53.737 0 97.304 46.989 97.304 93.982z" fill="#c17e62"/></g><g><path d="m277.335 450.74h-42.669c-27.707 0-48.834-28.63-44.447-60.22l2.658-19.15 2.954-21.3c2.217-15.94 2.217-32.2 0-48.14l-4.187-30.21c-5.139-36.96 19.59-70.46 52.012-70.46h24.689c32.422 0 57.152 33.5 52.012 70.46l-4.187 30.21c-2.217 15.94-2.217 32.2 0 48.14l2.954 21.3 2.658 19.15c4.387 31.59-16.74 60.22-44.447 60.22z" fill="#c17e62"/><path d="m277.335 450.74h-21.335v-249.48h12.345c32.422 0 57.152 33.5 52.012 70.46l-4.187 30.21c-2.217 15.94-2.217 32.2 0 48.14l2.954 21.3 2.658 19.15c4.387 31.59-16.74 60.22-44.447 60.22z" fill="#d48d77"/></g><g><g><path d="m320.58 307.358c9.733 1.716 16.254 10.926 14.666 20.653-.001.085-.015.167-.03.249l-2.18 12.362c-.864 4.901-3.634 9-7.418 11.65-3.787 2.663-8.572 3.866-13.487 3-9.131-1.61-15.446-9.824-14.884-18.857.036-.685.116-1.377.237-2.062l2.18-12.362c.867-4.915 3.647-8.998 7.432-11.647 3.784-2.649 8.57-3.852 13.484-2.986z" fill="#3e4e60"/><path d="m320.58 307.358c9.733 1.716 16.254 10.926 14.666 20.653-7.316 8.111-19.133 12.365-31.44 10.195-2.286-.403-4.481-1.002-6.558-1.792.036-.685.116-1.377.237-2.062l2.18-12.362c.867-4.915 3.647-8.998 7.432-11.647 3.783-2.648 8.569-3.851 13.483-2.985z" fill="#2e3140"/><path d="m308.357 319.606-1.311 7.438c-.565 3.203 1.574 6.257 4.776 6.822 3.203.565 6.257-1.574 6.822-4.776l1.311-7.438c.565-3.203-1.574-6.257-4.776-6.822-3.203-.565-6.257 1.573-6.822 4.776z" fill="#fff"/></g><g><path d="m191.42 307.358c-9.733 1.716-16.254 10.926-14.666 20.653.001.085.015.167.03.249l2.18 12.362c.864 4.901 3.634 9 7.418 11.65 3.787 2.663 8.572 3.866 13.487 3 9.131-1.61 15.446-9.824 14.884-18.857-.036-.685-.116-1.377-.237-2.062l-2.18-12.362c-.867-4.915-3.647-8.998-7.432-11.647-3.784-2.649-8.57-3.852-13.484-2.986z" fill="#3e4e60"/><path d="m191.42 307.358c-9.733 1.716-16.254 10.926-14.666 20.653 7.316 8.111 19.133 12.365 31.44 10.195 2.286-.403 4.481-1.002 6.558-1.792-.036-.685-.116-1.377-.237-2.062l-2.18-12.362c-.867-4.915-3.647-8.998-7.432-11.647-3.783-2.648-8.569-3.851-13.483-2.985z" fill="#2e3140"/><path d="m203.643 319.606 1.311 7.438c.565 3.203-1.574 6.257-4.776 6.822-3.203.565-6.257-1.574-6.822-4.776l-1.311-7.438c-.565-3.203 1.574-6.257 4.776-6.822 3.203-.565 6.257 1.573 6.822 4.776z" fill="#fff"/></g></g><g><path d="m256 218.919c36.116 0 46.557 16.866 46.557 39.822s-8.715 64.184-46.557 64.184z" fill="#eea47d"/><path d="m256 218.919c-36.116 0-46.557 16.866-46.557 39.822s8.715 64.184 46.557 64.184z" fill="#d48d77"/></g><g><g><path d="m327.051 414.53c0 24.095-21.181 44.47-48.207 44.47h-45.687c-29.667 0-52.287-24.541-47.59-51.619.823-4.749 3.291-8.846 6.763-11.769 3.463-2.914 7.929-4.646 12.746-4.646h101.849c9.635 0 17.863 6.926 19.509 16.415.42 2.409.617 4.792.617 7.149z" fill="#d48d77"/><path d="m327.051 414.53c0 24.095-21.181 44.47-48.207 44.47h-22.844v-68.034h50.924c9.635 0 17.863 6.926 19.509 16.415.421 2.409.618 4.792.618 7.149z" fill="#eea47d"/></g><g><path d="m316.067 437.109c-2.156-.958-4.688.014-5.654 2.17-.059.134-6.115 13.36-17.245 13.36-16.852 0-24.187-10.735-28.951-17.237-2.554-3.485-3.931-7.688-3.931-12.009v-7.95c0-2.239-1.637-4.238-3.865-4.45-2.556-.243-4.706 1.76-4.706 4.266v8.134c0 4.321-1.377 8.523-3.931 12.009-4.764 6.502-12.099 17.237-28.951 17.237-11.13 0-17.185-13.226-17.24-13.348-.955-2.165-3.484-3.147-5.65-2.193-2.166.955-3.148 3.485-2.193 5.651.332.754 8.332 18.462 25.083 18.462 16.088 0 24.523-8.485 30.197-15.245 3.64-4.337 10.301-4.337 13.941 0 5.674 6.76 14.109 15.245 30.197 15.245 16.751 0 24.751-17.708 25.083-18.462.952-2.162-.025-4.681-2.184-5.64z" fill="#a26d5a"/><path d="m275.988 383.026v16.666c0 2.785-.809 5.524-2.315 7.877l-3.755 5.834c-1.929 3.011-5.251 4.828-8.818 4.828h-10.2c-3.567 0-6.889-1.816-8.818-4.828l-3.755-5.834c-1.506-2.353-2.315-5.091-2.315-7.877v-16.666c0-5.797 4.696-10.493 10.493-10.493h18.991c5.796.001 10.492 4.696 10.492 10.493z" fill="#f4829b"/><path d="m275.988 383.026v16.666c0 2.785-.809 5.524-2.315 7.877l-3.755 5.834c-1.929 3.011-5.251 4.828-8.818 4.828h-5.1v-45.697h9.495c5.797 0 10.493 4.695 10.493 10.492z" fill="#ff9fb4"/></g><g><g><g><path d="m352.727 437.081c-.18-.376-4.451-9.269-16.456-15.002-5.782-2.76-12.242-4.328-19.363-4.704-12.152-.637-26.223 2.197-42.059 8.485-1.462.588-2.181 2.246-1.601 3.716.588 1.462 2.246 2.181 3.716 1.601 15.451-6.141 29.335-8.804 40.997-7.938 5.717.425 10.903 1.699 15.476 3.822 10.339 4.802 14.088 12.381 14.112 12.446.49 1.037 1.519 1.65 2.589 1.65.408 0 .825-.09 1.217-.269 1.429-.679 2.041-2.378 1.372-3.807z" fill="#eea47d"/><path d="m352.727 437.081c.67 1.429.057 3.128-1.372 3.806-.392.18-.809.269-1.217.269-1.07 0-2.099-.613-2.589-1.65-.025-.065-3.773-7.644-14.112-12.446-4.573-2.123-9.759-3.397-15.476-3.822-.433-1.927-.792-3.879-1.054-5.864 7.121.376 13.581 1.944 19.363 4.704 12.006 5.733 16.277 14.627 16.457 15.003z" fill="#f5b890"/></g><g><path d="m366.205 402.049c-.268-.319-6.629-7.861-19.686-10.407-6.289-1.226-12.936-1.127-19.924.291-11.925 2.424-24.839 8.689-38.597 18.74-1.268.935-1.549 2.72-.62 3.998.935 1.268 2.72 1.549 3.998.62 13.423-9.812 26.199-15.864 37.706-17.944 5.641-1.019 10.981-1.084 15.94-.172 11.212 2.062 16.737 8.462 16.778 8.519.734.882 1.883 1.217 2.919.949.395-.102.776-.293 1.111-.565 1.213-1.015 1.381-2.813.375-4.029z" fill="#eea47d"/><path d="m366.205 402.049c1.006 1.216.838 3.014-.376 4.028-.335.272-.715.463-1.111.565-1.036.268-2.185-.068-2.919-.949-.04-.057-5.566-6.457-16.778-8.519-4.959-.911-10.299-.847-15.94.172-.901-1.758-1.738-3.558-2.487-5.414 6.989-1.418 13.636-1.517 19.924-.291 13.058 2.548 19.419 10.089 19.687 10.408z" fill="#f5b890"/></g></g><g><g><path d="m160.645 440.886c.392.18.809.269 1.217.269 1.07 0 2.099-.613 2.589-1.65.025-.065 3.773-7.644 14.112-12.446 4.573-2.123 9.759-3.397 15.476-3.822 11.662-.866 25.546 1.797 40.997 7.938 1.47.58 3.128-.139 3.716-1.601.58-1.47-.139-3.128-1.601-3.716-15.835-6.288-29.907-9.122-42.059-8.485-7.121.376-13.581 1.944-19.363 4.704-12.005 5.733-16.276 14.627-16.456 15.002-.669 1.431-.057 3.13 1.372 3.807z" fill="#eea47d"/><path d="m159.273 437.081c-.67 1.429-.057 3.128 1.372 3.806.392.18.809.269 1.217.269 1.07 0 2.099-.613 2.589-1.65.025-.065 3.773-7.644 14.112-12.446 4.573-2.123 9.759-3.397 15.476-3.822.433-1.927.792-3.879 1.054-5.864-7.121.376-13.581 1.944-19.363 4.704-12.006 5.733-16.277 14.627-16.457 15.003z" fill="#f5b890"/></g><g><path d="m146.171 406.077c.335.272.715.463 1.111.565 1.036.268 2.185-.068 2.919-.949.04-.057 5.566-6.457 16.778-8.519 4.959-.911 10.299-.847 15.94.172 11.508 2.08 24.283 8.132 37.706 17.944 1.278.929 3.063.648 3.998-.62.929-1.278.648-3.063-.62-3.998-13.758-10.051-26.672-16.315-38.597-18.74-6.989-1.418-13.636-1.517-19.924-.291-13.058 2.547-19.418 10.089-19.686 10.407-1.007 1.217-.839 3.015.375 4.029z" fill="#eea47d"/><path d="m145.795 402.049c-1.006 1.216-.838 3.014.376 4.028.335.272.715.463 1.111.565 1.036.268 2.185-.068 2.919-.949.04-.057 5.566-6.457 16.778-8.519 4.959-.911 10.299-.847 15.94.172.901-1.758 1.738-3.558 2.487-5.414-6.989-1.418-13.636-1.517-19.924-.291-13.058 2.548-19.419 10.089-19.687 10.408z" fill="#f5b890"/></g></g></g></g></g></g></g></svg>