<svg id="Icons" enable-background="new 0 0 512 512" height="512" viewBox="0 0 512 512" width="512" xmlns="http://www.w3.org/2000/svg"><g><circle cx="256" cy="256" fill="#6c53a2" r="256"/><g><g><path d="m431.288 118.396-2.521-22.894c-1.026-9.326-10.085-14.956-18.471-12.756-1.48.39-2.943 1.02-4.337 1.923l-50.334 32.578c-16.68 10.795-32.544 22.772-47.477 35.836-.053 0-.105-.004-.157-.004h-103.981c-.053 0-.105.004-.157.004-14.933-13.064-30.796-25.041-47.477-35.836l-50.334-32.577c-1.394-.903-2.858-1.533-4.337-1.923-8.386-2.201-17.446 3.429-18.471 12.756l-2.521 22.894c-3.322 30.159 7.227 60.194 28.679 81.646l18.725 18.725c-.516 3.591-.796 7.258-.796 10.992v120.48c0 34.26 22.47 63.25 53.47 73.09 9.01 2.85 16.07 9.78 19.8 18.47 6.14 14.29 20.35 24.3 36.9 24.3h37.02c16.55 0 30.76-10.01 36.9-24.3 3.73-8.69 10.79-15.62 19.8-18.47 31-9.84 53.47-38.83 53.47-73.09v-120.48c0-3.734-.281-7.401-.796-10.992l18.725-18.725c21.451-21.452 32-51.488 28.678-81.647z" fill="#ee6781"/><path d="m402.61 200.04c21.45-21.45 32-51.48 28.68-81.64l-2.52-22.9c-1.03-9.32-10.09-14.95-18.47-12.75-.18.05-.37.1-.55.16-1.25.38-2.48.93-3.67 1.68-.01.01-.02.01-.03.02-.03.02-.06.04-.09.06l-50.34 32.58c-13.935 9.014-27.288 18.87-40.014 29.481l-.014-.005-.635.542c-2.288 1.915-4.562 3.847-6.808 5.812v.004c-.054 0-.106-.004-.16-.004h-51.989v313.02h18.51c16.55 0 30.76-10.01 36.9-24.3 3.73-8.69 10.79-15.62 19.8-18.47 31-9.84 53.47-38.83 53.47-73.09v-120.48c0-3.737-.281-7.407-.798-11.001l.008.001z" fill="#f4829b"/><path d="m149.07 176.27c-11.05 11.34-18.61 26.07-20.96 42.49l-18.72-18.72c-21.45-21.45-32-51.48-28.68-81.64l2.52-22.9c1.03-9.32 10.09-14.95 18.47-12.75 1.45.38 2.88.99 4.25 1.86-1.85-1.13-4.63 6.31-5.12 17.93-.87 20.86 18.28 49.53 44.56 70.76z" fill="#f4829b"/><path d="m402.61 200.04-18.72 18.72c-2.35-16.42-9.91-31.15-20.96-42.49l3.68-2.97c26.28-21.23 45.43-49.9 44.56-70.76-.49-11.56-3.24-18.98-5.09-17.95 1.19-.75 2.42-1.3 3.67-1.68.18-.06.37-.11.55-.16 8.38-2.2 17.44 3.43 18.47 12.75l2.52 22.9c3.32 30.16-7.23 60.19-28.68 81.64z" fill="#ff9fb4"/></g><g><g><path d="m308.332 423.432v.593c0 12.762-10.346 23.107-23.107 23.107h-58.449c-12.762 0-23.107-10.346-23.107-23.107v-.593c0-28.895 23.426-52.332 52.332-52.332s52.331 23.437 52.331 52.332z" fill="#ff9fb4"/><path d="m308.332 423.432v.593c0 12.762-10.346 23.107-23.107 23.107h-29.225v-76.032c28.906 0 52.332 23.437 52.332 52.332z" fill="#ffccd7"/><g><path d="m291.203 401.714c-1.092 0-2.177-.463-2.937-1.362-9.505-11.239-20.964-17.43-32.266-17.43s-22.762 6.19-32.266 17.43c-1.371 1.621-3.797 1.824-5.417.453-1.621-1.371-1.824-3.796-.453-5.417 10.99-12.996 24.533-20.154 38.136-20.154s27.147 7.157 38.136 20.154c1.371 1.621 1.168 4.046-.453 5.417-.722.611-1.603.909-2.48.909z" fill="#fff"/></g></g><g fill="#2e3140"><path d="m275.838 439.392h5.078c7.529 0 13.633-6.104 13.633-13.633v-.347c0-9.465-4.259-17.935-10.964-23.599-7.859-6.638-19.912-.902-19.912 9.386v16.027c-.001 6.719 5.446 12.166 12.165 12.166z"/><path d="m236.162 439.392h-5.078c-7.529 0-13.633-6.104-13.633-13.633v-.347c0-9.465 4.259-17.935 10.964-23.599 7.859-6.638 19.912-.902 19.912 9.386v16.027c.001 6.719-5.446 12.166-12.165 12.166z"/></g></g><g><g><path d="m283.61 368.82-5.09-2.1c-7.21-2.98-14.86-4.47-22.52-4.47s-15.31 1.49-22.52 4.47l-5.09 2.1c-5.6 2.32-10.69-4.23-7.06-9.1l10.2-13.66c6.11-8.18 15.29-12.26 24.47-12.26s18.36 4.08 24.47 12.26l10.2 13.66c3.63 4.87-1.46 11.42-7.06 9.1z" fill="#f4829b"/><path d="m283.61 368.82-5.09-2.1c-7.21-2.98-14.86-4.47-22.52-4.47v-28.45c9.18 0 18.36 4.08 24.47 12.26l10.2 13.66c3.63 4.87-1.46 11.42-7.06 9.1z" fill="#ff9fb4"/></g><g><path d="m283.61 333.318-5.09-2.1c-7.21-2.98-14.86-4.47-22.52-4.47s-15.31 1.49-22.52 4.47l-5.09 2.1c-5.6 2.32-10.69-4.23-7.06-9.1l10.2-13.66c6.11-8.18 15.29-12.26 24.47-12.26s18.36 4.08 24.47 12.26l10.2 13.66c3.63 4.87-1.46 11.42-7.06 9.1z" fill="#f4829b"/><path d="m283.61 333.318-5.09-2.1c-7.21-2.98-14.86-4.47-22.52-4.47v-28.45c9.18 0 18.36 4.08 24.47 12.26l10.2 13.66c3.63 4.87-1.46 11.42-7.06 9.1z" fill="#ff9fb4"/></g></g><g><path d="m256 259.063h31.121c25.073 0 45.4-20.326 45.4-45.4 0-25.073-20.326-45.4-45.4-45.4h-31.121z" fill="#ff9fb4"/><path d="m256 168.264h-31.121c-25.073 0-45.4 20.326-45.4 45.4 0 25.073 20.326 45.4 45.4 45.4h31.121z" fill="#f4829b"/></g><g><path d="m337.875 311.908c-17.42 0-31.542 14.122-31.542 31.542v28.623c0 17.42 14.122 31.542 31.542 31.542 17.42 0 31.542-14.122 31.542-31.542v-28.623c0-17.42-14.122-31.542-31.542-31.542z" fill="#ff9fb4"/><path d="m174.845 311.908c-17.42 0-31.542 14.122-31.542 31.542v28.623c0 17.42 14.122 31.542 31.542 31.542 17.42 0 31.542-14.122 31.542-31.542v-28.623c0-17.42-14.122-31.542-31.542-31.542z" fill="#f4829b"/></g><g><path d="m256 219.595h41.227c10.143 0 18.366-8.223 18.366-18.366 0-10.143-8.223-18.366-18.366-18.366h-41.227z" fill="#ffccd7"/><path d="m256 182.864h-41.227c-10.143 0-18.365 8.223-18.365 18.366 0 10.143 8.223 18.366 18.365 18.366h41.227z" fill="#ff9fb4"/></g><g><g><path d="m352.924 280.938c2.503 9.342-2.968 18.933-12.251 21.547-.075.034-.154.055-.233.077l-11.864 3.179c-4.704 1.26-9.484.499-13.399-1.761-3.928-2.257-6.974-6.003-8.238-10.72-2.348-8.764 2.324-17.761 10.568-20.997.623-.251 1.269-.467 1.926-.643l11.864-3.179c4.717-1.264 9.488-.486 13.403 1.774 3.914 2.26 6.96 6.006 8.224 10.723z" fill="#3e4e60"/><path d="m352.924 280.938c2.503 9.342-2.968 18.933-12.251 21.547-10.218-3.134-18.878-11.854-22.043-23.666-.588-2.194-.965-4.389-1.123-6.557.623-.251 1.269-.467 1.926-.643l11.864-3.179c4.717-1.264 9.488-.486 13.403 1.774 3.914 2.261 6.96 6.007 8.224 10.724z" fill="#2e3140"/><path d="m337.007 275.163-7.139 1.913c-3.074.824-4.898 3.983-4.074 7.057.824 3.074 3.983 4.898 7.057 4.074l7.139-1.913c3.074-.824 4.898-3.983 4.074-7.057-.824-3.074-3.983-4.898-7.057-4.074z" fill="#fff"/></g><g><path d="m205.78 293.26c-2.503 9.342-12.037 14.912-21.384 12.535-.082-.008-.161-.029-.24-.05l-11.864-3.179c-4.704-1.26-8.463-4.31-10.724-8.225-2.273-3.918-3.038-8.686-1.774-13.403 2.348-8.764 10.893-14.219 19.651-12.9.665.094 1.332.23 1.989.406l11.864 3.179c4.717 1.264 8.46 4.323 10.72 8.238 2.261 3.915 3.026 8.682 1.762 13.399z" fill="#3e4e60"/><path d="m205.78 293.26c-2.503 9.342-12.037 14.912-21.384 12.535-7.282-7.823-10.421-19.705-7.257-31.517.588-2.194 1.359-4.283 2.306-6.24.665.094 1.332.23 1.989.406l11.864 3.179c4.717 1.264 8.46 4.323 10.72 8.238 2.261 3.915 3.026 8.682 1.762 13.399z" fill="#2e3140"/><path d="m194.883 280.3-7.139-1.913c-3.074-.824-6.233 1.001-7.057 4.074-.824 3.074 1.001 6.233 4.074 7.057l7.139 1.913c3.074.824 6.233-1.001 7.057-4.074.824-3.074-1-6.234-4.074-7.057z" fill="#fff"/></g></g></g></g></svg>