<svg id="Icons" enable-background="new 0 0 512 512" height="512" viewBox="0 0 512 512" width="512" xmlns="http://www.w3.org/2000/svg"><g><circle cx="256" cy="256" fill="#53b976" r="256"/><g><g><path d="m437.95 361.71c-3.35 5.49-7.39 10.65-12.1 15.36-16.47 16.46-35.86 29.31-56.97 38.05-12.3 5.09-25.17 8.79-38.38 10.98-9.46 1.58-19.09 2.39-28.81 2.39h-78.62c-30.99 0-56.11-25.12-56.11-56.1v-44.64l10.52-7.41 62.98-44.37 42.15-29.69 91.88-64.72h.01l61.32 90.36c18.59 27.39 18.81 62.55 2.13 89.79z" fill="#b26e2b"/><path d="m384.58 218.53v36.54c0 38.54-30 70.08-67.94 72.52-1.57.11-3.15.16-4.75.16h-102.37c-11.57 0-22.42-2.68-32.04-7.41-24.28-11.94-40.66-36.97-40.66-65.13 0-3.85.3-7.76.94-11.71 7.61-47.22 45.75-83.6 93.28-88.97l16.89-1.91 32.02-3.62 23.77-2.69c29.63-3.35 56.73 11.53 70.77 35.25h.01c6.39 10.79 10.08 23.41 10.08 36.97z" fill="#b26e2b"/><path d="m437.95 361.71c-9.1 5.93-18.71 10.99-28.7 15.13-.13.05-.25.1-.37.15-22.59 9.29-48.64 3.36-65.23-14.57-9.97-10.78-19.02-22.43-27.01-34.83-7.76-12.04-14.52-24.78-20.18-38.12-5.85-13.81-10.52-28.25-13.85-43.19-.65-2.84-1.24-5.71-1.78-8.59-2.84-15.17-4.33-30.82-4.33-46.82 0-14.26 1.18-28.25 3.45-41.87l23.77-2.69c29.63-3.35 56.73 11.53 70.77 35.25h.01l61.32 90.36c18.59 27.39 18.81 62.55 2.13 89.79z" fill="#c68132"/><path d="m417.034 332.11c-15.538 10.136-36.351 5.756-46.487-9.782l-44.407-68.077c-10.136-15.538-5.756-36.351 9.782-46.487 15.538-10.136 36.351-5.756 46.487 9.782l44.407 68.077c10.136 15.539 5.756 36.352-9.782 46.487z" fill="#f39e22"/></g><path d="m224.634 307.12h-85.197v-52.427l147.53-37.637v27.731c0 34.425-27.907 62.333-62.333 62.333z" fill="#ee6781"/><g><circle cx="279.238" cy="277.117" fill="#f4829b" r="40.32"/><g><path d="m308.664 277.124c0 4.414-.964 8.591-2.724 12.335-4.652 10.086-14.849 17.084-26.695 17.084-16.26 0-29.433-13.173-29.433-29.419 0-11.846 6.999-22.057 17.084-26.709 3.758-1.76 7.935-2.724 12.349-2.724 16.246 0 29.419 13.187 29.419 29.433z" fill="#dd5e26"/><path d="m308.664 277.124c0 4.414-.964 8.591-2.724 12.335-3.744 1.76-7.921 2.724-12.335 2.724-16.246 0-29.433-13.173-29.433-29.419 0-4.414.964-8.591 2.724-12.349 3.758-1.76 7.935-2.724 12.349-2.724 16.246 0 29.419 13.187 29.419 29.433z" fill="#ea792e"/><path d="m297.907 277.124c0 2.794-.615 5.448-1.732 7.823-1.299 2.794-3.255 5.224-5.685 7.068-3.115 2.361-7.013 3.772-11.245 3.772-10.323 0-18.677-8.354-18.677-18.663 0-4.233 1.411-8.13 3.772-11.259 1.844-2.431 4.274-4.4 7.068-5.685 2.389-1.118 5.029-1.732 7.837-1.732 10.309-.001 18.662 8.367 18.662 18.676z" fill="#3e4e60"/><path d="m297.907 277.124c0 2.794-.615 5.448-1.732 7.823-1.299 2.794-3.255 5.224-5.685 7.068-13.76-1.453-24.712-12.391-26.15-26.15 1.844-2.431 4.274-4.4 7.068-5.685 2.389-1.118 5.029-1.732 7.837-1.732 10.309-.001 18.662 8.367 18.662 18.676z" fill="#2e3140"/><circle cx="265.541" cy="271.963" fill="#fff" r="10.956"/></g></g><g><path d="m311.89 352.78v2.89c0 9.72-2.74 18.8-7.48 26.51-8.92 14.5-24.92 24.16-43.19 24.16-7.1 0-14.05-1.49-20.41-4.3-6.37-2.8-12.16-6.91-16.96-12.15l-56.89-62.14h119.91c13.82 0 25.02 11.21 25.02 25.03z" fill="#dd5273"/><path d="m311.89 352.78v2.89c0 9.72-2.74 18.8-7.48 26.51-5.33 1.91-11.08 2.95-17.07 2.95-7.11 0-14.05-1.49-20.42-4.3-6.36-2.8-12.15-6.91-16.95-12.16l-37.47-40.92h74.37c13.82 0 25.02 11.21 25.02 25.03z" fill="#ee6781"/><circle cx="281.123" cy="354.056" fill="#f4829b" r="18.723"/></g><g><path d="m74.148 307.12h82.629c13.068 0 35.467 5.777 43.873 15.783l4.076 4.852h-74.618c-20.514 0-40.356-7.317-55.96-20.635z" fill="#f9c744"/><g><path d="m223.59 280.92c0 7.24-2.93 13.78-7.67 18.53-4.74 4.74-11.3 7.67-18.53 7.67h-145.35c-8.61 0-13.31-10.06-7.78-16.67.7-.84 1.42-1.67 2.15-2.48.24-.27.48-.53.73-.8 8.92-9.78 19.62-17.58 31.39-23.08 13.06-6.1 27.45-9.37 42.21-9.37h76.65c.22 0 .44 0 .66.01 14.17.35 25.54 11.94 25.54 26.19z" fill="#fad98f"/><path d="m183.92 254.72c-.31 8.95-4.05 17.01-9.96 22.92-6.17 6.17-14.69 9.98-24.11 9.98h-97.23c-1.87 0-3.7-.15-5.48-.45 8.92-9.78 19.62-17.58 31.39-23.08 13.06-6.1 27.45-9.37 42.21-9.37z" fill="#faefdc"/><path d="m158.815 278.385h-51.599c-4.5 0-8.149-3.648-8.149-8.149 0-4.5 3.648-8.149 8.149-8.149h51.599c4.5 0 8.149 3.648 8.149 8.149-.001 4.5-3.649 8.149-8.149 8.149z" fill="#fff"/></g><path d="m167.854 287.62h-29.443c-4.543 0-8.225-3.682-8.225-8.225 0-4.543 3.682-8.225 8.225-8.225h29.443c4.543 0 8.225 3.682 8.225 8.225 0 4.543-3.683 8.225-8.225 8.225z" fill="#3e4e60"/></g><g><path d="m285.166 63.51h-73.166c-23.315 0-42.215 18.9-42.215 42.215v48.451c0-21.759-17.639-39.399-39.399-39.399-21.759 0-39.399 17.639-39.399 39.399v55.035c0 25.132 20.373 45.505 45.505 45.505 22.1 0 44.106-2.887 65.458-8.588l91.663-24.472c19.914-5.317 33.767-23.354 33.767-43.965v-71.966c.001-23.315-18.899-42.215-42.214-42.215z" fill="#dd5273"/><g><path d="m126.344 236.797c-13.106 0-23.731-10.625-23.731-23.731v-63.101c0-13.106 10.625-23.731 23.731-23.731 13.106 0 23.731 10.625 23.731 23.731v63.101c0 13.106-10.624 23.731-23.731 23.731z" fill="#ee6781"/><path d="m126.344 192.177c-13.106 0-23.731-10.625-23.731-23.731v-18.481c0-13.106 10.625-23.731 23.731-23.731 13.106 0 23.731 10.625 23.731 23.731v18.481c0 13.106-10.624 23.731-23.731 23.731z" fill="#f4829b"/></g><g><g fill="#ee6781"><path d="m201.17 212.887c-8.68 0-15.717-7.037-15.717-15.717v-90.396c0-8.68 7.037-15.717 15.717-15.717 8.68 0 15.717 7.037 15.717 15.717v90.396c-.001 8.681-7.037 15.717-15.717 15.717z"/><path d="m247.603 182.825c-8.68 0-15.717-7.037-15.717-15.717v-60.333c0-8.68 7.037-15.717 15.717-15.717 8.68 0 15.717 7.037 15.717 15.717v60.333c0 8.68-7.037 15.717-15.717 15.717z"/><path d="m294.037 162.817c-8.68 0-15.717-7.037-15.717-15.717v-40.326c0-8.68 7.037-15.717 15.717-15.717 8.68 0 15.717 7.037 15.717 15.717v40.326c-.001 8.681-7.037 15.717-15.717 15.717z"/></g><g fill="#f4829b"><path d="m201.17 148.558c-8.68 0-15.717-7.037-15.717-15.717v-26.066c0-8.68 7.037-15.717 15.717-15.717 8.68 0 15.717 7.037 15.717 15.717v26.066c-.001 8.68-7.037 15.717-15.717 15.717z"/><path d="m247.603 134.369c-8.68 0-15.717-7.037-15.717-15.717v-11.878c0-8.68 7.037-15.717 15.717-15.717 8.68 0 15.717 7.037 15.717 15.717v11.878c0 8.681-7.037 15.717-15.717 15.717z"/><path d="m294.037 124.926c-8.68 0-15.717-7.037-15.717-15.717v-2.435c0-8.68 7.037-15.717 15.717-15.717 8.68 0 15.717 7.037 15.717 15.717v2.435c-.001 8.681-7.037 15.717-15.717 15.717z"/></g></g></g></g></g></svg>