<svg xmlns="http://www.w3.org/2000/svg" viewBox="0 0 55.75 55.75"><defs><style>.cls-1{fill:#fff;}.cls-2{fill:#00ae82;}</style></defs><title>IconTestServicio</title><g id="Capa_2" data-name="Capa 2"><g id="Layer_1" data-name="Layer 1"><rect class="cls-1" width="55.75" height="55.75" rx="5.96"/><path class="cls-2" d="M15.05,36.22H26.16a.57.57,0,0,0,0-1.14H15.05a.57.57,0,0,0,0,1.14Zm1.2-25.91a.57.57,0,1,0,.57.56.57.57,0,0,0-.57-.56ZM44.41,8H11.34a2.83,2.83,0,0,0-2.83,2.83v26a.57.57,0,1,0,1.13,0V13.71H46.11V43.94a1.7,1.7,0,0,1-1.7,1.7H11.34a1.7,1.7,0,0,1-1.7-1.7v-4.4a.57.57,0,1,0-1.13,0v4.4a2.84,2.84,0,0,0,2.83,2.84H44.41a2.85,2.85,0,0,0,2.84-2.84V10.87A2.84,2.84,0,0,0,44.41,8Zm1.7,4.54H9.64V10.87a1.7,1.7,0,0,1,1.7-1.7H44.41a1.7,1.7,0,0,1,1.7,1.7ZM14,10.31a.57.57,0,1,0,.57.56.57.57,0,0,0-.57-.56Zm1.07,28.18H26.16a.57.57,0,1,0,0-1.14H15.05a.57.57,0,1,0,0,1.14ZM11.71,10.31a.57.57,0,1,0,.57.56.57.57,0,0,0-.57-.56Zm21.52,7.38H28.79A2.33,2.33,0,0,0,26.46,20v4a2.33,2.33,0,0,0,2.33,2.33h1.12v1.09a.81.81,0,0,0,1.37.57l1.66-1.66h8.57A2.33,2.33,0,0,0,43.84,24V20a2.33,2.33,0,0,0-2.33-2.33H35.88a.57.57,0,1,0,0,1.13h5.63a1.2,1.2,0,0,1,1.2,1.2v4a1.2,1.2,0,0,1-1.2,1.2H32.87a1,1,0,0,0-.69.28l-1.13,1.14v-.45a1,1,0,0,0-1-1H28.79a1.2,1.2,0,0,1-1.2-1.2V20a1.2,1.2,0,0,1,1.2-1.2h4.44a.57.57,0,1,0,0-1.13Zm4.65,13.4a6,6,0,1,0,6,6,6,6,0,0,0-6-6Zm0,10.79a4.77,4.77,0,0,1-2.57-.74,2.35,2.35,0,0,1,2.35-2.33h.43a2.36,2.36,0,0,1,2.36,2.33,4.82,4.82,0,0,1-2.57.74Zm-1.43-5.63a1.43,1.43,0,1,1,1.43,1.43,1.43,1.43,0,0,1-1.43-1.43Zm5,4a3.5,3.5,0,0,0-1.78-2.21,2.6,2.6,0,0,0,.75-1.82,2.57,2.57,0,1,0-4.37,1.82,3.47,3.47,0,0,0-1.78,2.21,4.83,4.83,0,1,1,7.18,0ZM40.71,22.6H29.59a.57.57,0,1,0,0,1.13H40.71a.57.57,0,0,0,0-1.13ZM17.87,28.26a6,6,0,1,0-6-6,6,6,0,0,0,6,6Zm0-1.13a4.83,4.83,0,0,1-2.57-.75,2.36,2.36,0,0,1,2.36-2.32h.43a2.35,2.35,0,0,1,2.35,2.32,4.78,4.78,0,0,1-2.57.75Zm-1.43-5.64a1.44,1.44,0,1,1,1.43,1.43,1.44,1.44,0,0,1-1.43-1.43Zm1.43-4A4.83,4.83,0,0,1,22.7,22.3a4.78,4.78,0,0,1-1.24,3.22,3.49,3.49,0,0,0-1.78-2.21,2.57,2.57,0,1,0-3.61,0,3.54,3.54,0,0,0-1.79,2.21,4.77,4.77,0,0,1-1.23-3.22,4.83,4.83,0,0,1,4.82-4.83Zm22.84,2.86H29.59a.57.57,0,1,0,0,1.13H40.71a.57.57,0,0,0,0-1.13ZM11.91,38.79a2.34,2.34,0,0,0,2.33,2.34h8.57l1.66,1.65a.81.81,0,0,0,.87.18.82.82,0,0,0,.5-.75V41.13H27a2.33,2.33,0,0,0,2.33-2.34v-4A2.33,2.33,0,0,0,27,32.44H14.24a2.34,2.34,0,0,0-2.33,2.33Zm1.14-4a1.19,1.19,0,0,1,1.19-1.19H27a1.19,1.19,0,0,1,1.2,1.19v4A1.2,1.2,0,0,1,27,40H25.68a1,1,0,0,0-1,1v.44l-1.13-1.13a.94.94,0,0,0-.69-.29H14.24a1.19,1.19,0,0,1-1.19-1.2Z"/></g></g></svg>