<svg xmlns="http://www.w3.org/2000/svg" viewBox="0 0 55.75 55.75"><defs><style>.cls-1{fill:#fff;}.cls-2{fill:#00ae82;}</style></defs><title>IconTestProgramacion</title><g id="Capa_2" data-name="Capa 2"><g id="Layer_1" data-name="Layer 1"><rect class="cls-1" width="55.75" height="55.75" rx="5.96"/><path class="cls-2" d="M20.53,10.81a.57.57,0,1,0,.57.56.56.56,0,0,0-.57-.56Zm2.26,0a.57.57,0,0,0,0,1.13.57.57,0,1,0,0-1.13Zm-4.51,0a.57.57,0,1,0,.56.56.56.56,0,0,0-.56-.56ZM24.6,25.4a.57.57,0,0,0,.8-.8l-1.54-1.54,1.54-1.55a.57.57,0,1,0-.8-.8l-1.67,1.68a.94.94,0,0,0,0,1.33Zm13.09,6.51H18.28a.57.57,0,0,0-.57.57.56.56,0,0,0,.57.56H37.69a.56.56,0,0,0,.56-.56.57.57,0,0,0-.56-.57Zm6.73-20.12H40.51V10A1.47,1.47,0,0,0,39,8.55H16.92A1.47,1.47,0,0,0,15.45,10v1.77H11.54a2.82,2.82,0,0,0-2.82,2.82V35.86a2.83,2.83,0,0,0,2.82,2.83H16.4a.57.57,0,0,0,.56-.57.56.56,0,0,0-.56-.56H11.54a1.7,1.7,0,0,1-1.69-1.7V14.61a1.69,1.69,0,0,1,1.69-1.69h3.91v1.13H11.84a.86.86,0,0,0-.86.86V34.44a.86.86,0,0,0,.86.86H44.12a.87.87,0,0,0,.87-.86V14.91a.87.87,0,0,0-.87-.86H40.51V12.92h3.91a1.7,1.7,0,0,1,1.7,1.69V35.86a1.7,1.7,0,0,1-1.7,1.7H19a.56.56,0,0,0-.56.56.57.57,0,0,0,.56.57h5.71l-.43,3.19h-.63a1.16,1.16,0,0,0-1.12.86l-.8,2.86a1.13,1.13,0,0,0,.2,1,1.16,1.16,0,0,0,.92.46h10.2A1.16,1.16,0,0,0,34.2,45.6l-.79-2.86a1.16,1.16,0,0,0-1.12-.86h-.63l-.43-3.19H44.42a2.83,2.83,0,0,0,2.83-2.83V14.61a2.83,2.83,0,0,0-2.83-2.82Zm-29,22.38H12.11v-19h3.34ZM16.58,10a.34.34,0,0,1,.34-.34H39a.34.34,0,0,1,.34.34v3.05H16.58Zm27.28,5.16v19H40.51V19.23a.57.57,0,1,0-1.13,0V34.17H16.58v-20h22.8v2.39a.57.57,0,1,0,1.13,0V15.18Zm-18,23.51h4.21l.43,3.19H25.45ZM32.29,43a0,0,0,0,1,0,0l.8,2.86a.08.08,0,0,1,0,0H22.85s0,0,0,0L23.64,43s0,0,0,0ZM26.76,25.15a.56.56,0,0,0,.77-.2l1.86-3.22a.56.56,0,0,0-.2-.77.57.57,0,0,0-.78.2l-1.85,3.22a.56.56,0,0,0,.2.77Zm3.8.25a.57.57,0,0,0,.8,0L33,23.72a1,1,0,0,0,0-1.33l-1.68-1.68a.57.57,0,0,0-.8.8l1.55,1.55L30.56,24.6a.57.57,0,0,0,0,.8ZM22,30.79H34a1.73,1.73,0,0,0,1.72-1.73v-12A1.73,1.73,0,0,0,34,15.33H22a1.72,1.72,0,0,0-1.72,1.72v12A1.73,1.73,0,0,0,22,30.79Zm-.59-13.74a.59.59,0,0,1,.59-.6H34a.6.6,0,0,1,.59.6v12a.6.6,0,0,1-.59.6H22a.59.59,0,0,1-.59-.6Z"/></g></g></svg>