<svg xmlns="http://www.w3.org/2000/svg" viewBox="0 0 55.75 55.75"><defs><style>.cls-1{fill:#fff;}.cls-2{fill:#00ae82;}</style></defs><title>iconTestTrabajo</title><g id="Capa_2" data-name="Capa 2"><g id="Layer_1" data-name="Layer 1"><rect class="cls-1" width="55.75" height="55.75" rx="5.96"/><path class="cls-2" d="M45.68,39.56h-.75v-23a2.83,2.83,0,0,0-2.83-2.83H33.93v-2.1A3.9,3.9,0,0,0,30,7.73H24.6a3.9,3.9,0,0,0-3.89,3.9v2.1H12.54a2.83,2.83,0,0,0-2.83,2.83v23H9A.94.94,0,0,0,8,40.5v2.61a3.24,3.24,0,0,0,3.24,3.23H43.38a3.24,3.24,0,0,0,3.24-3.23V40.5a.94.94,0,0,0-.94-.94ZM33.93,16.4h.18a.86.86,0,1,1,0,1.72h-.18Zm0,2.85h.18a2,2,0,0,0,2-2.12h5.44V35.92h-1.4V32.8a4.7,4.7,0,0,0-3.69-4.58l-5.07-1.11a.82.82,0,0,1-.63-.8v-1a6.61,6.61,0,0,0,3.19-5.65ZM23,28.32l.48-.11a1.94,1.94,0,0,0,1.13-.73l1.82,1.34L25.29,30Zm2.24,2.88L25,35.92H15.64V32.8a3.58,3.58,0,0,1,2.8-3.48l3.11-.68L24.8,31a.89.89,0,0,0,.46.17Zm4.35-4.83-2.29,1.68L25,26.37v-.48a6.64,6.64,0,0,0,2.29.41,6.73,6.73,0,0,0,2.29-.41c0,.05,0,.43,0,.48Zm-3.17,4.06.88-.87.87.87.32,5.49H26.1Zm1.74-1.61L30,27.48a2,2,0,0,0,1.13.73l.49.11L29.35,30ZM29.83,31l3.26-2.39,3.11.68A3.59,3.59,0,0,1,39,32.8v3.12H29.65l-.28-4.72a.89.89,0,0,0,.46-.17Zm-8-14.65a13.75,13.75,0,0,0,2.4-.35.58.58,0,0,0,.42-.69.57.57,0,0,0-.69-.41,12.57,12.57,0,0,1-2.13.31V11.63A2.77,2.77,0,0,1,24.6,8.86H30a2.77,2.77,0,0,1,2.76,2.77V15a6,6,0,0,1-1.31-.79,5.76,5.76,0,0,1-1.38-1.61.82.82,0,0,0-.59-.41.84.84,0,0,0-.69.2,11.22,11.22,0,0,1-2.49,1.65.58.58,0,0,0-.26.76.57.57,0,0,0,.76.26,12.5,12.5,0,0,0,2.48-1.6,6.76,6.76,0,0,0,3.48,2.75v3.45a5.48,5.48,0,0,1-11,0Zm2.06,9v1a.83.83,0,0,1-.64.8l-5.07,1.11a4.67,4.67,0,0,0-3.68,4.58v3.12H13.1V17.13h5.44a2,2,0,0,0,2,2.12h.18v.44a6.61,6.61,0,0,0,3.19,5.65Zm-4.23-8.08a.85.85,0,0,1,.86-.86h.18v1.72h-.18a.86.86,0,0,1-.86-.86ZM45.49,43.11a2.1,2.1,0,0,1-2.11,2.1H11.25a2.11,2.11,0,0,1-2.11-2.1V40.69H23.51v.94A1.32,1.32,0,0,0,24.83,43h5a1.32,1.32,0,0,0,1.32-1.32v-.94h5.44a.57.57,0,0,0,0-1.13H10.84v-23a1.7,1.7,0,0,1,1.7-1.7h8.17v.41h-.18A2,2,0,0,0,19,16H12.84a.87.87,0,0,0-.87.86V36.48a.56.56,0,0,0,.57.57H42.1a.56.56,0,0,0,.56-.57V16.86A.87.87,0,0,0,41.8,16H35.65a2,2,0,0,0-1.54-.73h-.18v-.41H42.1a1.7,1.7,0,0,1,1.69,1.7v23h-4.6a.57.57,0,0,0,0,1.13h6.3ZM24.64,41.63v-.94H30v.94a.18.18,0,0,1-.19.19h-5a.19.19,0,0,1-.19-.19Zm1.24-18.37a3,3,0,0,0,1.41.37,3.06,3.06,0,0,0,1.47-.37.57.57,0,1,0-.55-1,1.91,1.91,0,0,1-.89.23,2,2,0,0,1-.9-.23.57.57,0,0,0-.77.22.56.56,0,0,0,.23.77ZM24.4,19.32a.57.57,0,0,0,.57-.56V17.59a.57.57,0,1,0-1.14,0v1.17a.57.57,0,0,0,.57.56Zm5.83,0a.56.56,0,0,0,.57-.56V17.59a.57.57,0,1,0-1.13,0v1.17a.56.56,0,0,0,.56.56Z"/></g></g></svg>